<svg width="821" height="627" viewBox="0 0 821 627" fill="none" xmlns="http://www.w3.org/2000/svg">
<path d="M681.534 99.2287C754.249 87.0041 807.632 128.561 816.082 260.125C822.366 358.033 772.112 455.204 690.884 501.085C582.958 562.074 421.056 544.826 366.96 447.7C334.651 389.761 338.237 298.838 382.129 261.998C426.111 225.02 476.113 287.003 556.611 251.577C646.109 212.148 622.942 109.094 681.534 99.2287Z" fill="white"/>
<path d="M552.95 537.742C526.488 537.973 500.223 534.689 475.478 527.742C424.98 513.536 387.143 486.034 366.097 448.255C350.244 419.83 342.576 382.893 344.999 346.917C347.504 309.845 360.829 278.656 381.529 261.227C403.181 243.061 426.315 248.38 453.107 254.579C482.094 261.262 514.921 268.823 556.238 250.667C603.964 229.627 619.14 190.984 632.53 156.829C643.912 127.892 653.732 102.893 681.388 98.226C714.329 92.6911 741.893 98.4733 763.212 115.352C794.409 140.084 812.538 188.748 817.13 260.024C823.467 358.662 772.938 455.881 691.438 501.947C650.62 525.026 601.541 537.318 552.95 537.742ZM415.842 250.798C404.207 250.9 393.283 253.961 382.82 262.767C362.528 279.827 349.518 310.512 347.008 347.036C344.581 382.601 352.2 419.129 367.868 447.236C388.681 484.56 426.06 511.747 476.054 525.775C545.716 545.38 627.853 535.583 690.419 500.222C771.284 454.526 821.408 358.087 815.124 260.179C810.582 189.495 792.732 141.33 761.994 116.96C741.134 100.396 714.119 94.7919 681.77 100.23L681.625 99.2278L681.77 100.23C655.208 104.706 645.612 129.201 634.453 157.542C620.883 192.018 605.528 231.119 557.075 252.485C515.168 270.965 481.975 263.316 452.668 256.545C439.546 253.512 427.339 250.698 415.842 250.798Z" fill="black"/>
<path d="M682.516 378.966C682.106 378.969 681.739 378.744 681.553 378.335C670.783 352.056 635.379 347.21 635.014 347.167C634.465 347.081 634.05 346.582 634.137 346.034C634.223 345.486 634.721 345.071 635.27 345.157C635.635 345.2 672.227 350.173 683.417 377.589C683.649 378.089 683.381 378.684 682.881 378.917C682.745 378.964 682.608 378.965 682.516 378.966Z" fill="black"/>
<path d="M632.887 396.281C632.842 396.282 632.796 396.282 632.796 396.282C632.248 396.241 631.833 395.743 631.874 395.195C634.296 369.531 619.641 352.822 619.503 352.687C619.134 352.279 619.174 351.64 619.582 351.271C619.989 350.903 620.628 350.943 620.997 351.35C621.135 351.532 636.344 368.874 633.884 395.406C633.842 395.908 633.435 396.277 632.887 396.281Z" fill="black"/>
<path d="M485.134 494.394C482.832 492.087 469.242 451.095 469.242 451.095L443.307 469.938L472.25 508.15L485.134 494.394Z" fill="white"/>
<path d="M472.259 509.199L472.213 509.2C471.894 509.202 471.618 509.022 471.48 508.795L442.537 470.584C442.353 470.357 442.305 470.084 442.348 469.81C442.391 469.535 442.526 469.306 442.752 469.122L468.687 450.279C468.959 450.094 469.278 450.046 469.598 450.134C469.919 450.222 470.149 450.494 470.243 450.767C475.444 466.418 484.245 491.938 485.903 493.658C486.271 494.065 486.277 494.658 485.915 495.072L473.032 508.873C472.806 509.103 472.533 509.197 472.259 509.199ZM444.724 470.199L472.328 506.643L483.855 494.314C480.796 488.82 471.567 461.296 468.709 452.788L444.724 470.199Z" fill="black"/>
<path d="M438.549 546.817L455.931 546.574C467.428 546.428 478.053 540.495 484.219 530.768L501.137 503.426C505.816 495.857 503.083 485.934 495.199 481.85C488.003 478.126 480.442 474.45 478.71 474.648C475.154 474.999 473.842 491.938 473.842 491.938L458.38 492.666C458.38 492.666 450.993 524.533 444.318 528.196C439.459 530.885 436.071 534.748 433.775 538.327C431.389 541.998 434.123 546.856 438.549 546.817Z" fill="black"/>
<path d="M440.232 541.008C439.73 541.012 439.316 540.651 439.221 540.15C439.125 539.603 439.531 539.098 440.078 539.002L463.817 535.235C468.875 534.416 473.229 531.457 475.837 527.054L496.518 491.786C496.788 491.327 497.425 491.139 497.883 491.409C498.342 491.679 498.53 492.316 498.26 492.774L477.579 528.043C474.702 532.95 469.804 536.324 464.153 537.195L440.414 540.961C440.323 541.007 440.278 541.008 440.232 541.008Z" fill="white"/>
<path d="M469.339 514.381C469.248 514.382 469.157 514.383 469.065 514.338L455.802 510.849C455.253 510.717 454.929 510.172 455.061 509.623C455.193 509.075 455.738 508.751 456.286 508.883L469.55 512.372C470.099 512.504 470.423 513.048 470.291 513.597C470.158 514.1 469.75 514.378 469.339 514.381Z" fill="white"/>
<path d="M462.463 521.24C462.372 521.24 462.281 521.241 462.235 521.196L453.364 519.083C452.815 518.951 452.491 518.406 452.623 517.858C452.755 517.309 453.3 516.985 453.849 517.117L462.72 519.23C463.268 519.362 463.592 519.907 463.46 520.455C463.373 520.912 462.92 521.236 462.463 521.24Z" fill="white"/>
<path d="M395.96 487.325L365.932 518.067L349.775 512.322L377.402 473.115L395.96 487.325Z" fill="white"/>
<path d="M365.94 519.071C365.803 519.072 365.712 519.073 365.575 519.028L349.464 513.283C349.189 513.194 348.913 512.923 348.819 512.65C348.725 512.331 348.768 512.012 348.949 511.782L376.576 472.574C376.757 472.344 376.984 472.206 377.257 472.158C377.53 472.11 377.805 472.198 378.034 472.333L396.593 486.59C396.822 486.77 396.961 487.043 396.964 487.316C396.966 487.59 396.878 487.91 396.697 488.094L366.668 518.836C366.441 518.975 366.168 519.069 365.94 519.071ZM351.367 511.806L365.647 516.883L394.455 487.43L377.643 474.527L351.367 511.806Z" fill="black"/>
<path d="M375.471 513.239C375.471 513.239 377.044 526.183 374.681 537.657C373.411 543.782 367.928 548.119 361.723 548.173L287.264 548.823C281.925 548.87 279.495 542.275 283.526 538.818C296.66 527.615 320.83 510.476 350.717 505.242L359.168 516.849L375.471 513.239Z" fill="black"/>
<path d="M367.847 538.857L290.742 539.53C290.194 539.535 289.734 539.083 289.729 538.535C289.724 537.988 290.177 537.528 290.724 537.523L367.83 536.849C368.377 536.845 368.837 537.297 368.842 537.845C368.847 538.438 368.395 538.852 367.847 538.857Z" fill="white"/>
<path d="M333.646 525.468C333.236 525.472 332.869 525.247 332.728 524.837L328.581 514.971C328.348 514.472 328.617 513.876 329.117 513.643C329.617 513.411 330.212 513.68 330.445 514.179L334.592 524.045C334.825 524.545 334.556 525.141 334.056 525.373C333.875 525.466 333.738 525.467 333.646 525.468Z" fill="white"/>
<path d="M320.21 528.186C319.799 528.19 319.386 527.92 319.246 527.51L316.202 518.593C316.014 518.047 316.283 517.497 316.829 517.31C317.375 517.123 317.925 517.392 318.112 517.937L321.156 526.855C321.344 527.401 321.075 527.95 320.529 528.138C320.438 528.184 320.347 528.185 320.21 528.186Z" fill="white"/>
<path d="M554.561 272.812C554.561 272.812 415.858 257.871 374.97 293.909C334.083 329.947 441.682 482.363 441.682 482.363L475.044 457.159L442.206 349.033L569.956 311.552L554.561 272.812Z" fill="black"/>
<path d="M631.462 342.727C611.397 349.29 575.471 357.862 525.096 357.618C510.813 357.56 497.651 365.568 491.284 378.354C476.62 407.73 444.823 460.663 392.561 495.203L367.35 481.917L430.147 337.139C435.872 323.902 446.733 313.587 460.24 308.495L586.806 260.804C586.806 260.804 626.084 249.464 645.69 284.427C649.213 290.692 655.502 279.413 657.052 284.464C662.451 301.801 648.705 337.101 631.462 342.727Z" fill="black"/>
<path d="M401.753 403.547C401.616 403.548 401.479 403.504 401.342 403.459C400.838 403.236 400.605 402.645 400.828 402.141L429.231 336.69C435.046 323.316 446.223 312.678 459.866 307.54L520.489 284.699C521.035 284.511 521.585 284.78 521.772 285.28C521.959 285.781 521.69 286.376 521.19 286.563L460.567 309.405C447.424 314.356 436.654 324.58 431.063 337.495L402.661 402.946C402.527 403.312 402.164 403.544 401.753 403.547Z" fill="white"/>
<path d="M436.051 459.279C435.777 459.281 435.548 459.192 435.364 459.011C434.95 458.65 434.944 457.965 435.306 457.597C441.047 451.524 446.694 445.041 452.065 438.241C452.426 437.782 453.064 437.731 453.478 438.092C453.937 438.453 453.989 439.092 453.627 439.505C448.211 446.306 442.519 452.88 436.778 458.999C436.597 459.183 436.324 459.277 436.051 459.279Z" fill="white"/>
<path d="M452.855 439.878C452.627 439.88 452.398 439.791 452.214 439.655C451.755 439.294 451.703 438.656 452.065 438.242C454.728 434.888 457.344 431.443 459.915 427.952C460.23 427.493 460.868 427.396 461.327 427.712C461.786 428.027 461.883 428.665 461.568 429.124C458.997 432.615 456.381 436.106 453.672 439.46C453.447 439.736 453.174 439.875 452.855 439.878Z" fill="white"/>
<path d="M522.102 161.169C522.102 161.169 510.887 271.916 429.1 279.885L523.144 280.387C523.144 280.387 557.339 209.547 558.514 182.069C559.688 154.59 522.102 161.169 522.102 161.169Z" fill="white"/>
<path d="M523.152 281.39L429.108 280.888C428.561 280.893 428.146 280.44 428.096 279.939C428.091 279.391 428.452 278.932 429 278.882C470.759 274.821 493.57 243.047 505.344 217.119C518.147 188.9 521.054 161.315 521.097 161.041C521.139 160.585 521.501 160.216 521.911 160.167C522.777 160.023 542.824 156.654 553.353 165.87C557.721 169.71 559.822 175.167 559.518 182.105C558.342 209.492 525.449 277.948 524.06 280.835C523.926 281.155 523.563 281.387 523.152 281.39ZM441 278.914L522.541 279.342C525.767 272.516 556.455 207.638 557.555 181.986C557.819 175.687 555.997 170.775 552.089 167.387C543.353 159.752 526.759 161.494 523.068 162.028C522.47 166.733 518.996 192.087 507.221 217.924C492.045 251.319 469.322 272.187 441 278.914Z" fill="black"/>
<path d="M637.968 89.7989C622.058 86.1963 615.442 86.2085 557.745 88.8112C543.651 89.4362 528.149 111.656 526.629 125.677C531.218 139.097 551.378 200.929 515.696 253.075C510.65 260.465 503.74 268.601 494.227 276.441C499.648 280.728 508.047 286.313 519.3 289.546C537.963 294.904 547.263 288.845 562.278 289.17C601.982 290.01 616.922 334.093 642.514 328.303C649.345 326.783 658.378 321.32 666.708 303.361C671.414 288.445 675.55 270.979 677.751 251.249C683.763 197.766 672.79 153.374 663.056 125.535C660.196 116.799 656.712 94.0611 637.968 89.7989Z" fill="white"/>
<path d="M638.057 329.893C627.517 329.985 618.689 322.26 608.711 313.45C596.526 302.742 582.686 290.635 562.287 290.22C556.948 290.129 552.3 290.809 547.743 291.533C539.587 292.791 531.202 294.05 519.035 290.552C510.023 287.938 501.497 283.496 493.641 277.268C493.411 277.087 493.271 276.769 493.269 276.495C493.266 276.176 493.4 275.901 493.627 275.716C501.872 268.891 509.059 261.118 514.87 252.58C547.443 204.934 533.26 148.25 525.675 126.096C525.628 125.959 525.627 125.822 525.625 125.64C527.147 111.893 542.776 88.5314 557.736 87.8532C616.391 85.1965 622.415 85.2808 638.233 88.8841C654.966 92.662 659.867 110.414 662.834 121.02C663.305 122.704 663.683 124.161 664.104 125.343C678.611 166.921 683.545 209.357 678.848 251.467C676.857 269.097 673.133 286.697 667.761 303.763C667.761 303.808 667.716 303.854 667.716 303.9C660.864 318.652 652.497 327.212 642.798 329.396C641.112 329.684 639.562 329.88 638.057 329.893ZM560.672 288.181C561.22 288.176 561.767 288.171 562.315 288.212C583.445 288.666 597.561 301.045 610.021 311.932C621.057 321.646 630.62 330.004 642.324 327.346C651.34 325.306 659.253 317.115 665.792 303.004C671.119 286.075 674.8 268.659 676.792 251.166C681.492 209.375 676.561 167.212 662.146 125.908C661.725 124.634 661.301 123.178 660.83 121.448C658.004 111.297 653.292 94.2736 637.748 90.7591C622.158 87.245 616.18 87.1603 557.799 89.8147C543.842 90.4385 529.205 112.422 527.632 125.577C535.358 148.186 549.501 205.418 516.522 253.661C510.8 262.015 503.841 269.696 495.823 276.427C503.174 282.112 511.148 286.195 519.565 288.585C531.275 291.951 539.113 290.741 547.406 289.483C551.553 288.853 555.836 288.223 560.672 288.181Z" fill="black"/>
<path d="M511.489 173.627C511.489 173.627 526.374 96.4314 553.236 89.8089L541.705 190.565L511.489 173.627Z" fill="white"/>
<path d="M541.669 191.615C541.486 191.617 541.304 191.573 541.166 191.483L510.949 174.545C510.582 174.32 510.35 173.911 510.438 173.454C511.048 170.255 525.772 95.5242 552.954 88.8533C553.501 88.7116 554.051 89.0718 554.192 89.5725C554.334 90.1188 553.974 90.6695 553.473 90.8107C528.933 96.8654 514.2 165.345 512.625 173.116L540.87 188.976L542.779 172.396C542.865 171.848 543.363 171.433 543.912 171.519C544.46 171.56 544.875 172.104 544.789 172.652L542.711 190.739C542.668 191.059 542.488 191.38 542.17 191.519C541.988 191.567 541.851 191.613 541.669 191.615Z" fill="black"/>
<path d="M590.287 53.3478L588.604 80.0093C588.224 83.4804 585.739 86.3767 582.371 87.273L573.039 89.7728L579.147 94.3279C592.696 104.476 611.375 106.412 624.745 96.0742L634.311 89.0096L622.651 86.1912C619.314 85.4903 616.671 80.7224 616.049 77.3514L610.585 42.1286L590.287 53.3478Z" fill="white"/>
<path d="M604.373 104.055C595.613 104.131 586.507 101.154 578.561 95.2L572.453 90.6449C572.132 90.4196 571.991 90.0102 572.079 89.6444C572.167 89.2786 572.438 88.9568 572.803 88.8624L582.134 86.3626C585.139 85.5607 587.261 83.0326 587.645 79.9721L589.329 53.3563C589.372 52.9909 589.552 52.7155 589.87 52.5303L610.213 41.3562C610.486 41.2169 610.851 41.1681 611.126 41.3482C611.401 41.4827 611.631 41.7545 611.68 42.1191L617.144 77.3419C617.717 80.2571 620.037 84.7084 622.963 85.3216L634.622 88.14C634.988 88.228 635.31 88.5446 635.359 88.9092C635.454 89.2734 635.275 89.6856 634.957 89.9166L625.391 96.9812C619.318 101.597 611.992 103.988 604.373 104.055ZM575.324 90.2092L579.779 93.5467C593.971 104.145 611.817 104.857 624.19 95.3034L632.034 89.5314L622.477 87.2422C618.501 86.41 615.762 81.0955 615.139 77.6332L609.916 43.8227L591.343 54.0231L589.7 80.1367C589.233 84.1105 586.523 87.2824 582.699 88.3197L575.324 90.2092Z" fill="black"/>
<path d="M559.714 16.5192C566.072 13.0872 561.009 23.6715 581.928 5.23755C590.26 -2.09007 590.697 11.4577 592.825 9.56832C600.84 2.56286 600.523 2.79378 605.625 1.88229C608.996 1.25968 613.508 5.87435 614.915 10.2424C616.745 16.0211 612.897 19.5225 614.337 32.8789C615.332 42.2696 618.338 46.8518 615.669 49.5215C612.955 52.2373 608.455 48.9914 605.285 51.7111C601.164 55.2605 605.977 63.0665 602.968 68.6138C601.083 72.1436 594.731 76.3056 581.406 76.1026C579.261 76.0757 577.377 74.4951 577.039 72.3535C576.559 69.62 575.981 66.1574 575.678 62.7835C574.351 46.7797 577.727 41.4117 574.327 38.7037C569.089 34.5517 560.306 42.4308 556.533 38.8135C552.53 35.0613 550.949 21.2498 559.714 16.5192Z" fill="black"/>
<path d="M591.639 25.229L591.403 29.6114C591.284 31.6657 591.348 33.7184 591.503 35.8159C591.856 39.6912 592.37 46.3028 592.358 50.09C592.36 55.611 575.397 56.8086 575.397 56.8086L573.232 54.4092L571.225 54.518C570.86 54.5212 570.449 54.4792 570.082 54.2999C569.212 53.8512 568.793 52.9423 568.922 52.0742C569.701 47.2308 570.976 36.4971 569.352 28.1613C569.397 28.1153 578.82 20.3675 591.639 25.229Z" fill="white"/>
<path d="M575.451 57.7662C575.177 57.7686 574.902 57.6342 574.718 57.4533L572.875 55.4161L571.37 55.4749C570.777 55.5257 570.229 55.3936 569.725 55.1698C568.487 54.5418 567.837 53.2243 568.008 51.854C568.7 47.5133 570.065 36.5962 568.44 28.2605C568.392 27.8959 568.525 27.5297 568.797 27.2992C569.205 26.9762 578.81 19.2268 592.041 24.2672C592.453 24.4005 592.73 24.8088 592.688 25.2654L592.453 29.6477C592.334 31.6564 592.397 33.7091 592.552 35.7154C592.858 39.4542 593.419 46.2479 593.407 50.0352C593.414 56.1493 578.506 57.557 575.497 57.7658L575.451 57.7662ZM573.222 53.3598C573.496 53.3574 573.771 53.4919 573.955 53.6728L575.798 55.7099C582.409 55.1503 591.335 53.1104 591.354 50.0531C591.367 46.3115 590.806 39.5634 590.5 35.8702C590.299 33.7731 590.28 31.6287 590.399 29.5288L590.595 25.8768C580.251 22.2713 572.445 27.0848 570.496 28.4707C571.936 36.6711 570.792 46.7649 569.926 52.111C569.839 52.6136 570.117 53.0675 570.53 53.2921C570.668 53.3821 570.896 53.4257 571.124 53.3781L573.222 53.3598Z" fill="black"/>
<path d="M594.768 38.7082C594.768 38.7082 595.315 28.1626 600.026 29.4448C604.737 30.7269 603.88 42.3247 594.768 38.7082Z" fill="white"/>
<path d="M364.907 290.985L550.69 289.363C555.116 289.324 558.688 285.688 558.65 281.263L558.625 278.48L356.782 280.242L356.806 283.025C356.845 287.451 360.481 291.024 364.907 290.985Z" fill="white"/>
<path d="M550.699 290.367L364.915 291.989C359.942 292.032 355.846 288.007 355.803 283.034L355.778 280.251C355.774 279.704 356.226 279.243 356.773 279.239L558.617 277.476C559.164 277.471 559.624 277.923 559.629 278.471L559.653 281.254C559.697 286.227 555.672 290.323 550.699 290.367ZM357.795 281.237L357.81 283.017C357.844 286.895 361.02 290.015 364.898 289.982L550.681 288.359C554.559 288.325 557.68 285.15 557.646 281.272L557.63 279.492L357.795 281.237Z" fill="black"/>
<path d="M356.784 280.425L472.305 279.416L434.68 171.697C432.46 168.34 428.61 166.321 424.504 166.357L326.821 167.21C322.396 167.248 319.559 171.562 321.052 175.336C321.658 176.837 322.264 178.337 322.78 179.838L356.784 280.425Z" fill="white"/>
<path d="M472.268 280.42L356.747 281.429C356.291 281.433 355.923 281.162 355.783 280.753L321.779 180.212C321.405 179.166 320.985 178.074 320.565 177.029C320.379 176.62 320.238 176.164 320.052 175.755C319.212 173.664 319.511 171.289 320.818 169.406C322.169 167.433 324.349 166.273 326.767 166.252L424.404 165.399C428.875 165.36 433.001 167.514 435.451 171.189C435.497 171.28 435.543 171.325 435.544 171.416L473.17 279.135C473.264 279.453 473.221 279.773 473.041 280.048C472.906 280.232 472.633 280.417 472.268 280.42ZM357.505 279.415L470.882 278.425L433.771 172.162C431.691 169.123 428.254 167.328 424.512 167.36L326.83 168.213C325.051 168.229 323.507 169.064 322.515 170.487C321.614 171.818 321.401 173.508 321.962 175.009C322.148 175.418 322.289 175.873 322.475 176.282C322.894 177.328 323.361 178.464 323.735 179.556L357.505 279.415Z" fill="black"/>
<path d="M399.118 221.834C400.526 226.385 398.469 231.103 394.509 232.324C390.55 233.545 386.192 230.845 384.783 226.294C383.374 221.743 385.432 217.025 389.391 215.804C393.351 214.629 397.709 217.283 399.118 221.834Z" fill="black"/>
<path d="M675.956 192.039C675.956 192.039 670.925 263.856 655.103 291.143C636.224 323.75 539.255 280.885 539.255 280.885L527.976 274.641C520.319 270.419 511.277 269.54 502.997 272.304L484.889 278.302C484.889 278.302 499.697 260.196 512.412 253.24C518.36 249.949 526.143 252.938 532.704 257.033C544.035 264.052 557.296 267.312 570.615 266.786L609.021 265.309C615.452 265.071 620.701 260.006 621.238 253.568L626.327 172.807L675.956 192.039Z" fill="white"/>
<path d="M625.926 304.447C591.251 304.75 541.692 283.099 538.852 281.846L527.482 275.558C520.1 271.47 511.286 270.634 503.279 273.305L485.171 279.304C484.762 279.444 484.259 279.266 484.027 278.903C483.75 278.54 483.792 278.038 484.062 277.671C484.694 276.935 499.142 259.333 511.857 252.333C517.215 249.411 524.39 250.672 533.198 256.161C544.163 262.955 557.059 266.265 570.514 265.737L608.92 264.261C614.85 264.026 619.692 259.376 620.142 253.486L625.232 172.725C625.229 172.406 625.409 172.13 625.681 171.946C625.953 171.761 626.273 171.758 626.593 171.846L676.221 191.033C676.633 191.212 676.911 191.62 676.869 192.031C676.666 194.953 671.615 264.398 655.882 291.592C650.625 300.901 639.43 304.329 625.926 304.447ZM512.511 269.757C518.031 269.709 523.518 271.075 528.425 273.816L539.704 280.059C540.574 280.462 635.981 322.155 654.186 290.695C668.84 265.38 674.25 200.45 674.821 192.734L627.162 174.305L622.151 253.696C621.619 260.636 615.963 266.116 608.984 266.359L570.578 267.835C556.666 268.367 543.404 264.924 532.119 257.95C526.522 254.486 518.643 250.996 512.831 254.195C503.386 259.388 492.627 270.98 487.974 276.268L502.624 271.394C505.854 270.317 509.226 269.785 512.511 269.757Z" fill="black"/>
<path d="M684.988 197.025C684.988 197.025 690.653 150.709 683.803 134.479C667.914 96.6098 644.097 91.525 640.255 90.4178L619.129 184.505L684.988 197.025Z" fill="white"/>
<path d="M684.997 198.029C684.952 198.029 684.86 198.03 684.815 198.03L619.001 185.51C618.727 185.467 618.497 185.286 618.358 185.059C618.219 184.832 618.171 184.559 618.215 184.285L622.518 165.083C622.651 164.535 623.195 164.211 623.744 164.297C624.292 164.429 624.616 164.974 624.53 165.522L620.445 183.718L684.156 195.8C684.962 188.767 688.998 149.309 682.94 134.852C676.044 118.486 663.132 97.6554 640.629 91.5096L640.08 91.3319C639.531 91.1998 639.252 90.6091 639.384 90.0604C639.562 89.5113 640.107 89.2328 640.656 89.3649L641.205 89.497C659.682 94.5372 674.737 109.919 684.849 134.014C691.698 150.289 686.341 195.142 686.084 197.061C686.041 197.335 685.906 197.61 685.679 197.749C685.407 197.98 685.18 198.027 684.997 198.029Z" fill="black"/>
<path d="M108.265 564.577C108.265 564.577 117.797 611.08 134.803 609.517C134.803 609.517 143.489 606.201 147.696 612.553C151.072 617.679 148.886 623.447 141.82 624.102C135.345 624.661 125.364 625.888 116.807 617.887C107.33 609.027 83.6799 586.419 86.457 575.262C87.7343 570.003 108.265 564.577 108.265 564.577Z" fill="white"/>
<path d="M135.216 625.483C129.33 625.534 122.385 624.409 116.129 618.577C93.4492 597.421 83.4231 583.136 85.4961 574.951C86.8623 569.418 104.523 564.518 108.074 563.575C108.347 563.527 108.621 563.524 108.851 563.705C109.08 563.84 109.265 564.066 109.313 564.339C109.408 564.795 118.88 609.701 134.657 608.469C135.885 608.047 144.349 605.509 148.604 611.951C150.499 614.809 150.846 617.909 149.636 620.475C148.381 623.087 145.658 624.707 141.965 625.013L141.281 625.065C139.412 625.309 137.406 625.464 135.216 625.483ZM107.5 565.815C99.7625 567.982 88.2101 572.235 87.4168 575.436C86.1831 580.466 90.3885 591.79 117.485 617.105C125.397 624.519 134.789 623.662 141.035 623.105L141.719 623.054C144.637 622.8 146.771 621.595 147.712 619.625C148.654 617.7 148.314 615.33 146.834 613.062C143.134 607.436 135.221 610.38 135.13 610.381C135.039 610.427 134.947 610.428 134.856 610.429C134.583 610.477 134.309 610.479 134.035 610.482C118.158 610.666 109.067 572.828 107.5 565.815Z" fill="black"/>
<path d="M74.1424 466.09C117.438 449.787 143.73 456.128 167.173 465.46C190.616 474.791 219.608 461.215 219.608 461.215C226.192 457.507 231.082 448.019 231.082 448.019L267.782 460.155C266.883 477.411 256.703 503.006 249.026 522.601C241.304 542.198 264.303 552.902 269.247 559.977C274.191 567.052 261.912 582.216 270.246 590.767C278.579 599.318 276.478 614.759 265.524 609.196C254.571 603.68 253.624 578.866 254.309 573.613C254.993 568.36 225.548 551.05 221.441 550.995C217.289 550.94 213.46 608.875 223.071 606.966C235.824 604.391 243.88 622.937 230.743 623.417C217.606 623.896 209.713 623.965 205.114 614.606C200.516 605.247 192.896 558.271 190.233 551.176C187.571 544.081 177.156 542.804 160.613 539.845C144.07 536.933 136.599 548.77 126.553 558.303C116.507 567.835 91.7525 575.535 93.9285 584.368C95.7248 591.515 105.712 601.375 109.438 604.856C110.22 605.579 111.318 605.843 112.366 605.652C120.336 603.94 133.299 615.005 125.729 620.684C117.66 626.731 100.388 623.962 97.6818 622.297C94.9748 620.587 52.8032 572.27 71.3864 563.256C89.9695 554.242 86.364 543.688 86.364 543.688C85.6346 538.538 61.34 525.746 60.6212 506.132C59.9008 486.336 52.9186 486.215 52.9186 486.215C13.9867 479.71 -29.9149 395.271 47.0054 362.934C73.5546 351.751 73.8433 358.684 73.8433 358.684C76.5895 370.113 43.161 372.047 28.6693 389.786C14.1776 407.525 18.3398 429.573 36.911 450.536C56.1277 472.27 74.1424 466.09 74.1424 466.09Z" fill="white"/>
<path d="M137.971 496.833C120.617 495.114 72.1336 497.317 84.7418 462.438C121.828 450.89 145.698 456.887 167.173 465.46C180.909 470.952 196.584 468.534 207.19 465.612C213.635 472.172 218.209 478.657 218.255 483.995C218.416 502.427 203.988 516.926 188.78 520.618C173.572 524.264 155.827 498.594 137.971 496.833Z" fill="black"/>
<path d="M238.67 533.141C232.765 525.846 239.065 520.955 237.652 515.948C236.286 510.941 226.568 505.87 233.968 496.406C240.331 488.274 256.053 491.239 260.35 492.206C256.837 502.685 252.092 513.13 248.981 522.648C246.092 531.479 248.001 535.797 249.582 539.205C246.021 539.008 239.73 534.455 238.67 533.141Z" fill="black"/>
<path d="M56.9623 489.465C63.7801 486.439 76.3715 480.991 82.8578 492.25C89.8079 504.372 74.0086 513.453 89.5361 515.051C117.075 517.913 100.967 543.925 83.8228 540.06C83.4086 539.653 82.9484 539.2 82.4425 538.748C78.3873 534.175 70.304 528.132 65.4473 520.6C62.7636 516.334 60.8508 511.514 60.6224 506.269C60.3142 497.101 58.6283 492.142 56.9623 489.465Z" fill="black"/>
<path d="M224.457 624.658C215.15 624.739 208.294 623.476 204.16 615.116C201.327 609.392 197.605 590.763 194.268 574.32C192.121 563.616 190.261 554.37 189.233 551.596C186.944 545.547 178.216 544.026 163.73 541.506L160.394 540.942C147.233 538.593 139.953 546.14 132.265 554.055C130.637 555.758 128.964 557.46 127.199 559.118C123.262 562.849 117.223 566.278 111.366 569.569C102.694 574.481 93.7035 579.533 94.8852 584.222C96.6346 591.234 106.989 601.318 110.117 604.211C110.623 604.709 111.4 604.884 112.129 604.741C118.095 603.457 126.033 608.498 128.313 613.543C129.709 616.633 129.004 619.56 126.329 621.545C117.988 627.778 100.216 625.104 97.1417 623.169C94.664 621.594 64.7107 587.817 65.6555 570.607C65.8498 566.727 67.6505 563.927 70.9219 562.348C88.5057 553.844 85.4092 544.107 85.3628 544.016C85.3624 543.97 85.316 543.879 85.3156 543.834C85.1215 542.512 82.1776 539.8 79.0044 536.953C71.4618 530.129 60.0557 519.78 59.572 506.187C58.9103 487.896 52.9275 487.264 52.8359 487.219C52.7902 487.22 52.7446 487.22 52.699 487.22C30.1258 483.448 7.38263 454.992 4.02954 426.321C2.10555 409.775 5.03471 379.452 46.5862 361.979C60.7244 356.015 69.743 354.202 73.3676 356.498C74.5146 357.218 74.7507 358.128 74.7995 358.493C76.3629 365.095 68.0435 368.59 57.4964 373.017C48.086 376.978 36.3115 381.917 29.4046 390.418C15.681 407.284 18.6029 428.384 37.6347 449.846C55.975 470.492 73.1761 465.186 73.7224 465.044C118.928 448.041 145.825 455.791 167.483 464.408C190.239 473.471 218.824 460.309 219.142 460.169C225.317 456.693 230.074 447.526 230.164 447.434C230.388 446.976 230.889 446.789 231.392 446.922L268.091 459.058C268.503 459.191 268.826 459.599 268.785 460.055C267.885 477.265 258.11 502.081 250.253 521.998L249.941 522.822C244.405 536.832 255.483 546.18 263.527 552.954C266.331 555.303 268.721 557.335 270.061 559.24C272.511 562.777 271.276 567.761 269.908 573.021C268.365 579.194 266.732 585.55 270.968 589.894C276.861 595.956 277.622 604.71 274.646 608.752C272.571 611.553 269.108 611.994 265.074 609.93C253.571 604.099 252.532 579.15 253.347 573.302C253.346 573.165 253.386 572.526 252.05 570.986C246.011 564.012 225.285 552.285 221.631 551.815C219.101 554.757 215.512 593.07 220.671 603.885C221.693 606.02 222.559 605.83 222.878 605.782C227.797 604.781 232.649 606.609 235.879 610.687C238.37 613.814 239.179 617.639 237.88 620.389C236.76 622.771 234.263 624.162 230.796 624.283C228.562 624.531 226.465 624.64 224.457 624.658ZM155.354 538.477C157.042 538.462 158.868 538.629 160.787 538.931L164.123 539.495C179.295 542.146 188.48 543.754 191.143 550.849C192.263 553.759 194.124 563.097 196.272 573.892C199.373 589.424 203.283 608.736 205.977 614.188C210.205 622.775 217.005 622.944 230.688 622.413C233.425 622.298 235.242 621.37 236.049 619.674C236.989 617.613 236.279 614.653 234.294 612.116C231.572 608.672 227.452 607.111 223.307 607.968C222.351 608.159 220.981 608.034 219.735 606.402C213.689 598.516 216.212 558.341 219.666 551.467C219.845 551.1 220.428 549.954 221.524 549.99C225.357 550.048 247.553 562.858 253.637 569.878C254.974 571.463 255.532 572.69 255.404 573.74C254.806 578.354 255.66 603.031 266.064 608.279C268.264 609.401 271.282 610.196 273.085 607.716C275.611 604.317 274.631 596.615 269.567 591.457C264.549 586.3 266.402 579.074 267.989 572.672C269.224 567.871 270.371 563.343 268.43 560.531C267.275 558.853 264.931 556.912 262.264 554.654C254.22 547.834 242.039 537.583 248.11 522.199L248.422 521.375C256.1 501.87 265.653 477.649 266.783 460.803L231.639 449.155C230.291 451.54 225.928 458.741 220.162 461.986C218.89 462.59 190.44 475.66 166.86 466.284C145.569 457.8 119.084 450.184 74.5604 466.953C74.5604 466.953 74.5604 466.953 74.5147 466.953C73.7415 467.234 55.678 473.05 36.2319 451.181C16.7395 429.222 13.7127 406.571 27.9335 389.154C35.2017 380.238 47.2036 375.206 56.8414 371.152C66.4791 367.098 74.1165 363.883 72.9325 358.92C72.9321 358.874 72.9313 358.783 72.8853 358.738C72.8853 358.738 72.8373 358.464 72.241 358.105C70.7738 357.296 65.4266 356.293 47.4694 363.842C7.19102 380.802 4.29871 410.121 6.1719 426.074C9.42657 453.925 31.3409 481.521 53.0921 485.209C54.2335 485.291 60.9515 486.509 61.6699 506.078C62.1465 518.849 73.1388 528.837 80.4513 535.435C84.4065 539.005 87.0282 541.4 87.3651 543.405C87.7405 544.588 90.3422 555.151 71.8499 564.119C69.2601 565.373 67.9097 567.484 67.7082 570.543C66.7039 586.157 95.8807 619.849 98.2211 621.38C100.469 622.775 117.24 625.731 125.128 619.822C127.032 618.391 127.518 616.516 126.494 614.243C124.54 609.971 117.611 605.515 112.556 606.608C111.144 606.894 109.727 606.542 108.715 605.592C104.574 601.704 94.7244 591.935 92.9265 584.604C91.3667 578.413 100.629 573.221 110.391 567.706C116.158 564.462 122.06 561.125 125.816 557.534C127.536 555.922 129.209 554.173 130.837 552.516C137.802 545.429 144.495 538.572 155.354 538.477Z" fill="black"/>
<path d="M259.043 415.562C254.75 415.189 244.478 414.549 237.56 416.48C236.558 416.762 235.461 416.498 234.725 415.774C232.195 413.424 226.442 407.816 221.725 400.557C215.48 390.847 212.214 398.267 211.078 403.981C210.072 409.009 210.521 418.587 213.426 427.367C214.176 429.597 214.698 431.919 214.992 434.244C216.168 443.541 218.208 468.117 251.012 467.831C251.012 467.831 281.547 468.933 281.198 429.011C281.198 429.011 284.226 399.509 278.512 393.125C275.425 389.685 265.137 408.071 261.995 413.985C261.365 415.04 260.23 415.643 259.043 415.562Z" fill="white"/>
<path d="M251.431 468.831C251.158 468.833 251.021 468.834 250.975 468.835C218.262 469.12 215.363 445.328 214.087 435.164L213.989 434.343C213.695 432.065 213.174 429.788 212.47 427.649C209.378 418.368 209.066 408.743 210.072 403.761C210.684 400.699 212.19 395.53 215.515 394.907C217.747 394.477 220.043 396.145 222.541 400.002C227.259 407.307 233.057 412.96 235.357 415.039C235.863 415.536 236.595 415.712 237.278 415.524C244.378 413.545 254.924 414.229 259.125 414.557C259.947 414.641 260.673 414.224 261.032 413.537C266.241 403.864 273.257 392.213 277.222 391.722C277.997 391.624 278.684 391.892 279.191 392.481C285.089 399.045 282.323 427.222 282.157 429.094C282.279 443.01 278.72 453.535 271.572 460.487C263.564 468.268 253.713 468.811 251.431 468.831ZM216.171 396.818C216.08 396.819 215.988 396.82 215.898 396.866C214.394 397.153 212.868 399.995 212.037 404.155C211.076 409.091 211.524 418.486 214.382 427.039C215.131 429.314 215.7 431.728 215.995 434.143L216.093 434.964C217.272 444.581 220.024 467.097 251.003 466.827C251.14 466.826 261.911 467.096 270.236 458.993C276.931 452.456 280.311 442.388 280.195 429.02C280.194 428.974 280.194 428.929 280.194 428.929C281.036 420.845 282.212 398.796 277.743 393.816C277.651 393.726 277.651 393.726 277.514 393.727C275.28 394.02 269.376 402.331 262.866 414.479C262.102 415.9 260.558 416.735 259.006 416.566C254.896 416.191 244.669 415.55 237.887 417.435C236.567 417.811 235.104 417.459 234.092 416.51C231.747 414.386 225.81 408.551 220.953 401.065C219.104 398.298 217.448 396.807 216.171 396.818Z" fill="black"/>
</svg>
