<svg width="309" height="150" viewBox="0 0 309 150" fill="none" xmlns="http://www.w3.org/2000/svg">
<path d="M96.4015 114.215H71.7917V123.689H96.4015V114.215Z" stroke="black" stroke-width="0.965139" stroke-miterlimit="10" stroke-linecap="round" stroke-linejoin="round"/>
<path d="M95.3719 124.976H71.0195C70.4017 124.976 69.8868 124.461 69.8868 123.843C69.8868 123.225 70.4017 122.71 71.0195 122.71H95.3719C95.7323 122.71 96.0412 122.401 96.0412 122.041V115.708C96.0412 115.348 95.7323 115.039 95.3719 115.039H71.0195C70.4017 115.039 69.8868 114.524 69.8868 113.906C69.8868 113.289 70.4017 112.774 71.0195 112.774H95.3719C97.0194 112.774 98.3065 114.112 98.3065 115.708V122.041C98.3065 123.689 96.9679 124.976 95.3719 124.976Z" fill="#1F1F1F"/>
<path d="M95.3719 124.976H71.0195C70.4017 124.976 69.8868 124.461 69.8868 123.843C69.8868 123.225 70.4017 122.71 71.0195 122.71H95.3719C95.7323 122.71 96.0412 122.401 96.0412 122.041V115.708C96.0412 115.348 95.7323 115.039 95.3719 115.039H71.0195C70.4017 115.039 69.8868 114.524 69.8868 113.906C69.8868 113.289 70.4017 112.774 71.0195 112.774H95.3719C97.0194 112.774 98.3065 114.112 98.3065 115.708V122.041C98.3065 123.689 96.9679 124.976 95.3719 124.976Z" stroke="black" stroke-width="0.965139" stroke-miterlimit="10" stroke-linecap="round" stroke-linejoin="round"/>
<path d="M96.9165 117.099H83.1185" stroke="black" stroke-width="0.965139" stroke-miterlimit="10" stroke-linecap="round" stroke-linejoin="round"/>
<path d="M96.9164 119.982H81.3679" stroke="black" stroke-width="0.965139" stroke-miterlimit="10" stroke-linecap="round" stroke-linejoin="round"/>
<path d="M96.9164 127.395H45.0197V144.488H96.9164V127.395Z" fill="white"/>
<path d="M96.9164 127.395H45.0197V144.488H96.9164V127.395Z" stroke="black" stroke-width="0.965139" stroke-miterlimit="10" stroke-linecap="round" stroke-linejoin="round"/>
<path d="M45.0197 133.265H67.57" stroke="black" stroke-width="0.965139" stroke-miterlimit="10" stroke-linecap="round" stroke-linejoin="round"/>
<path d="M45.0197 138.619H73.7997" stroke="black" stroke-width="0.965139" stroke-miterlimit="10" stroke-linecap="round" stroke-linejoin="round"/>
<path d="M98.5639 146.187H47.1819C45.071 146.187 43.3206 144.437 43.3206 142.326V129.197C43.3206 127.087 45.071 125.336 47.1819 125.336H98.5639C99.4906 125.336 100.263 126.108 100.263 127.035C100.263 127.962 99.4906 128.734 98.5639 128.734H47.1819C46.9245 128.734 46.7186 128.94 46.7186 129.197V142.326C46.7186 142.583 46.9245 142.789 47.1819 142.789H98.5639C99.4906 142.789 100.263 143.562 100.263 144.488C100.263 145.415 99.4906 146.187 98.5639 146.187Z" fill="#85E25A"/>
<path d="M98.5639 146.187H47.1819C45.071 146.187 43.3206 144.437 43.3206 142.326V129.197C43.3206 127.087 45.071 125.336 47.1819 125.336H98.5639C99.4906 125.336 100.263 126.108 100.263 127.035C100.263 127.962 99.4906 128.734 98.5639 128.734H47.1819C46.9245 128.734 46.7186 128.94 46.7186 129.197V142.326C46.7186 142.583 46.9245 142.789 47.1819 142.789H98.5639C99.4906 142.789 100.263 143.562 100.263 144.488C100.263 145.415 99.4906 146.187 98.5639 146.187Z" stroke="black" stroke-width="0.965139" stroke-miterlimit="10" stroke-linecap="round" stroke-linejoin="round"/>
<path d="M308.21 146.496H229.284H217.185H207.146H205.138H34.4137" stroke="black" stroke-width="0.965139" stroke-miterlimit="10" stroke-linecap="round" stroke-linejoin="round"/>
<path d="M116.944 88.4214V90.3263C116.944 91.3045 116.584 92.1798 116.017 92.8491H95.4749V88.4214H116.944Z" fill="white"/>
<path d="M116.944 88.4214V90.3263C116.944 91.3045 116.584 92.1798 116.017 92.8491H95.4749V88.4214H116.944Z" stroke="black" stroke-width="0.965139" stroke-miterlimit="10" stroke-linecap="round" stroke-linejoin="round"/>
<path d="M227.225 146.496L172.805 145.055L118.334 146.496C109.685 131.772 116.996 111.126 133.419 94.3421C141.708 85.847 152.108 82.2946 160.346 80.853C165.958 79.8748 170.54 79.8748 172.805 79.9778C174.865 79.8748 178.932 79.8748 183.977 80.6471C192.369 81.9342 203.439 85.4352 212.191 94.3421C228.563 111.126 235.926 131.823 227.225 146.496Z" fill="#85E25A"/>
<path d="M227.225 146.496L172.805 145.055L118.334 146.496C109.685 131.772 116.996 111.126 133.419 94.3421C141.708 85.847 152.108 82.2946 160.346 80.853C165.958 79.8748 170.54 79.8748 172.805 79.9778C174.865 79.8748 178.932 79.8748 183.977 80.6471C192.369 81.9342 203.439 85.4352 212.191 94.3421C228.563 111.126 235.926 131.823 227.225 146.496Z" stroke="black" stroke-width="0.965139" stroke-miterlimit="10" stroke-linecap="round" stroke-linejoin="round"/>
<path d="M116.738 120.342C116.738 120.342 122.144 114.782 128.991 116.841C135.633 118.849 140.009 127.241 139.34 131.875C138.98 134.294 135.427 135.633 131.669 132.75C127.859 129.867 116.738 120.342 116.738 120.342Z" fill="#1F1F1F"/>
<path d="M116.738 120.342C116.738 120.342 122.144 114.782 128.991 116.841C135.633 118.849 140.009 127.241 139.34 131.875C138.98 134.294 135.427 135.633 131.669 132.75C127.859 129.867 116.738 120.342 116.738 120.342Z" stroke="black" stroke-width="0.965139" stroke-miterlimit="10" stroke-linecap="round" stroke-linejoin="round"/>
<path d="M228.821 120.342C228.821 120.342 223.415 114.782 216.567 116.841C209.926 118.849 205.549 127.241 206.219 131.875C206.579 134.294 210.132 135.633 213.89 132.75C217.7 129.867 228.821 120.342 228.821 120.342Z" fill="#1F1F1F"/>
<path d="M228.821 120.342C228.821 120.342 223.415 114.782 216.567 116.841C209.926 118.849 205.549 127.241 206.219 131.875C206.579 134.294 210.132 135.633 213.89 132.75C217.7 129.867 228.821 120.342 228.821 120.342Z" stroke="black" stroke-width="0.965139" stroke-miterlimit="10" stroke-linecap="round" stroke-linejoin="round"/>
<path d="M174.298 89.554C173.783 89.6055 173.217 89.6054 172.651 89.6054C172.187 89.6054 171.775 89.6055 171.312 89.554C159.831 88.9876 160.346 80.853 160.346 80.853C165.958 79.8748 170.54 79.8748 172.805 79.9778C174.865 79.8748 178.932 79.8748 183.977 80.6471C183.977 80.6471 185.367 88.7817 174.298 89.554Z" fill="#1F1F1F"/>
<path d="M179.292 74.9323V83.4787C179.292 83.4787 177.284 86.2589 172.187 86.2589C167.09 86.2589 165.082 83.4787 165.082 83.4787V74.9323H179.292Z" fill="white"/>
<path d="M179.292 74.9323V83.4787C179.292 83.4787 177.284 86.2589 172.187 86.2589C167.09 86.2589 165.082 83.4787 165.082 83.4787V74.9323H179.292V74.9323Z" stroke="black" stroke-width="0.965139" stroke-miterlimit="10" stroke-linecap="round" stroke-linejoin="round"/>
<path d="M186.14 61.5977C186.14 71.7403 179.756 79.4115 171.827 79.4115C163.898 79.4115 157.514 71.7403 157.514 61.5977C157.514 51.4552 163.898 41.6731 171.827 41.6731C179.756 41.7246 186.14 51.5067 186.14 61.5977Z" fill="white"/>
<path d="M186.14 61.5977C186.14 71.7403 179.756 79.4115 171.827 79.4115C163.898 79.4115 157.514 71.7403 157.514 61.5977C157.514 51.4552 163.898 41.6731 171.827 41.6731C179.756 41.7246 186.14 51.5067 186.14 61.5977Z" stroke="black" stroke-width="0.965139" stroke-miterlimit="10" stroke-linecap="round" stroke-linejoin="round"/>
<path d="M188.971 57.6848C188.868 57.9423 188.765 58.1997 188.714 58.4056C188.405 59.0749 188.148 59.5898 187.89 59.9502C187.633 60.3621 187.427 60.568 187.427 60.568C187.324 60.6195 187.221 60.671 187.066 60.7225C186.912 60.8254 186.706 60.8769 186.552 60.9799C186.397 61.0314 186.294 61.0829 186.191 61.1343C186.088 61.1858 185.985 61.2373 185.831 61.2888C172.445 66.2828 162.92 50.2195 162.92 50.2195C162.868 57.4789 159.368 61.7007 158.08 63.0393C157.874 63.2452 157.72 63.3997 157.669 63.4512C157.617 63.5026 157.617 63.5026 157.617 63.5026C157.36 63.1937 157.102 62.8848 156.896 62.5759C156.845 62.5244 156.793 62.4215 156.742 62.37C156.484 62.0096 156.175 61.5977 155.97 61.2373C155.558 60.6195 155.197 60.0017 154.888 59.3839C154.579 58.8175 154.373 58.3027 154.116 57.7363C153.395 55.9858 153.035 54.2868 152.932 52.6393C152.263 42.7542 161.067 34.4652 169.304 33.6929C180.425 32.6117 182.587 38.2236 182.587 38.2236C184.029 37.8117 190.104 39.3562 190.258 48.5205C190.258 52.8968 189.641 55.8314 188.971 57.6848Z" fill="#85E25A"/>
<path d="M156.278 64.6868L154.425 64.2234L154.991 61.9066C154.785 60.2591 153.601 49.5502 159.265 42.9087C162.148 39.5622 166.266 37.8632 171.518 37.8632C177.439 37.8632 181.918 39.7166 184.904 43.4235C190.722 50.6829 188.353 62.3185 188.045 63.6571L186.191 63.2452C186.449 62.0096 188.662 51.1978 183.411 44.6592C180.837 41.4671 176.821 39.8196 171.518 39.8196C166.833 39.8196 163.229 41.2612 160.758 44.1443C155.3 50.477 156.948 61.6492 156.948 61.8036L156.999 62.0096L156.278 64.6868Z" fill="white"/>
<path d="M156.278 64.6868L154.425 64.2234L154.991 61.9066C154.785 60.2591 153.601 49.5502 159.265 42.9087C162.148 39.5622 166.266 37.8632 171.518 37.8632C177.439 37.8632 181.918 39.7166 184.904 43.4235C190.722 50.6829 188.353 62.3185 188.045 63.6571L186.191 63.2452C186.449 62.0096 188.662 51.1978 183.411 44.6592C180.837 41.4671 176.821 39.8196 171.518 39.8196C166.833 39.8196 163.229 41.2612 160.758 44.1443C155.3 50.477 156.948 61.6492 156.948 61.8036L156.999 62.0096L156.278 64.6868Z" stroke="black" stroke-width="0.965139" stroke-miterlimit="10" stroke-linecap="round" stroke-linejoin="round"/>
<path d="M175.637 59.0749C175.379 59.4868 178.468 60.7739 178.88 60.3106C179.344 59.8472 175.997 58.4571 175.637 59.0749Z" fill="black"/>
<path d="M176.512 64.9957C176.203 64.9957 175.946 64.7382 175.946 64.4293V63.0392C175.946 62.7303 176.203 62.4729 176.512 62.4729C176.821 62.4729 177.078 62.7303 177.078 63.0392V64.4293C177.078 64.7382 176.821 64.9957 176.512 64.9957Z" fill="black"/>
<path d="M167.863 64.9957C167.554 64.9957 167.296 64.7382 167.296 64.4293V63.0392C167.296 62.7303 167.554 62.4729 167.863 62.4729C168.172 62.4729 168.429 62.7303 168.429 63.0392V64.4293C168.429 64.7382 168.172 64.9957 167.863 64.9957Z" fill="black"/>
<path d="M175.74 64.9957C175.74 64.9957 176.409 64.4808 177.284 64.9957" stroke="black" stroke-width="0.965139" stroke-miterlimit="10" stroke-linecap="round" stroke-linejoin="round"/>
<path d="M170.694 72.8729C170.694 72.8729 174.916 72.5125 177.078 69.3719" stroke="black" stroke-width="0.965139" stroke-miterlimit="10" stroke-linecap="round" stroke-linejoin="round"/>
<path d="M168.738 59.0749C168.995 59.4868 165.906 60.7739 165.494 60.3106C165.031 59.8472 168.377 58.4571 168.738 59.0749Z" fill="black"/>
<path d="M168.635 64.9957C168.635 64.9957 167.966 64.4808 167.09 64.9957" stroke="black" stroke-width="0.965139" stroke-miterlimit="10" stroke-linecap="round" stroke-linejoin="round"/>
<path d="M170.849 65.665C170.849 65.665 170.54 67.364 172.136 67.1581C173.783 67.0036 173.783 65.2531 172.651 65.2017" stroke="black" stroke-width="0.965139" stroke-miterlimit="10" stroke-linecap="round" stroke-linejoin="round"/>
<path d="M127.807 116.892C137.847 120.136 136.766 141.966 130.896 146.548H109.324C109.324 146.548 108.398 133.728 112.259 126.366C116.12 119.003 122.865 115.296 127.807 116.892Z" fill="white"/>
<path d="M127.807 116.892C137.847 120.136 136.766 141.966 130.896 146.548H109.324C109.324 146.548 108.398 133.728 112.259 126.366C116.12 119.003 122.865 115.296 127.807 116.892Z" stroke="black" stroke-width="0.965139" stroke-miterlimit="10" stroke-linecap="round" stroke-linejoin="round"/>
<path d="M116.275 146.496H128.425C129.352 148.916 133.934 149.019 138.465 146.496L138.516 146.445C139.906 145.673 140.73 144.179 140.73 142.583V142.069C140.73 140.473 139.906 138.98 138.516 138.207C138.516 138.207 138.516 138.207 138.465 138.207C137.435 137.641 134.346 138.413 132.647 137.95C130.999 137.538 128.168 135.53 127.344 134.655C127.344 134.655 127.344 134.655 127.292 134.603C126.52 133.78 123.843 131.411 120.085 133.471C117.613 134.912 116.635 141.914 116.275 146.496Z" fill="white"/>
<path d="M116.275 146.496H128.425C129.352 148.916 133.934 149.019 138.465 146.496L138.516 146.445C139.906 145.673 140.73 144.179 140.73 142.583V142.069C140.73 140.473 139.906 138.98 138.516 138.207C138.516 138.207 138.516 138.207 138.465 138.207C137.435 137.641 134.346 138.413 132.647 137.95C130.999 137.538 128.168 135.53 127.344 134.655C127.344 134.655 127.344 134.655 127.292 134.603C126.52 133.78 123.843 131.411 120.085 133.471C117.613 134.912 116.635 141.914 116.275 146.496Z" stroke="black" stroke-width="0.965139" stroke-miterlimit="10" stroke-linecap="round" stroke-linejoin="round"/>
<path d="M138.671 146.393C138.619 146.445 138.516 146.496 138.465 146.496C133.934 149.019 129.352 148.916 128.425 146.496C128.219 145.93 128.168 145.209 128.425 144.385C129.918 139.443 135.015 139.7 135.015 139.7" stroke="black" stroke-width="0.965139" stroke-miterlimit="10" stroke-linecap="round" stroke-linejoin="round"/>
<path d="M217.803 116.892C207.763 120.136 208.845 141.966 214.714 146.548H236.286C236.286 146.548 237.213 133.728 233.351 126.366C229.49 119.003 222.745 115.296 217.803 116.892Z" fill="white"/>
<path d="M217.803 116.892C207.763 120.136 208.845 141.966 214.714 146.548H236.286C236.286 146.548 237.213 133.728 233.351 126.366C229.49 119.003 222.745 115.296 217.803 116.892Z" stroke="black" stroke-width="0.965139" stroke-miterlimit="10" stroke-linecap="round" stroke-linejoin="round"/>
<path d="M229.284 146.496H217.185C216.258 148.916 211.676 149.019 207.146 146.496L207.094 146.445C205.704 145.673 204.88 144.179 204.88 142.583V142.069C204.88 140.473 205.704 138.98 207.094 138.207C207.094 138.207 207.094 138.207 207.146 138.207C208.175 137.641 211.264 138.413 212.963 137.95C214.611 137.538 217.443 135.53 218.266 134.655C218.266 134.655 218.266 134.655 218.318 134.603C219.09 133.78 221.767 131.411 225.526 133.471C227.945 134.912 228.924 141.914 229.284 146.496Z" fill="white"/>
<path d="M229.284 146.496H217.185C216.258 148.916 211.676 149.019 207.146 146.496L207.094 146.445C205.704 145.673 204.88 144.179 204.88 142.583V142.069C204.88 140.473 205.704 138.98 207.094 138.207C207.094 138.207 207.094 138.207 207.146 138.207C208.175 137.641 211.264 138.413 212.963 137.95C214.611 137.538 217.443 135.53 218.266 134.655C218.266 134.655 218.266 134.655 218.318 134.603C219.09 133.78 221.767 131.411 225.526 133.471C227.945 134.912 228.924 141.914 229.284 146.496Z" stroke="black" stroke-width="0.965139" stroke-miterlimit="10" stroke-linecap="round" stroke-linejoin="round"/>
<path d="M210.595 139.7C210.595 139.7 215.692 139.443 217.185 144.385C217.442 145.209 217.391 145.93 217.185 146.496C216.258 148.916 211.676 149.019 207.146 146.496C207.094 146.445 206.991 146.393 206.94 146.393" stroke="black" stroke-width="0.965139" stroke-miterlimit="10" stroke-linecap="round" stroke-linejoin="round"/>
<path d="M233.815 147.011C233.815 147.011 236.389 148.453 237.367 145.055C238.551 141.142 236.595 133.471 234.484 133.059C232.373 132.647 231.24 135.633 231.24 135.633L233.815 147.011Z" fill="white"/>
<path d="M233.815 147.011C233.815 147.011 236.389 148.453 237.367 145.055C238.551 141.142 236.595 133.471 234.484 133.059C232.373 132.647 231.24 135.633 231.24 135.633L233.815 147.011Z" stroke="black" stroke-width="0.965139" stroke-miterlimit="10" stroke-linecap="round" stroke-linejoin="round"/>
<path d="M224.599 135.015C224.599 135.015 225.989 132.184 229.696 132.441C233.403 132.698 234.844 145.827 234.33 147.475C233.866 149.122 228.666 150.152 227.997 147.063C227.328 143.974 224.599 135.015 224.599 135.015Z" fill="white"/>
<path d="M224.599 135.015C224.599 135.015 225.989 132.184 229.696 132.441C233.403 132.698 234.844 145.827 234.33 147.475C233.866 149.122 228.666 150.152 227.997 147.063C227.328 143.974 224.599 135.015 224.599 135.015Z" stroke="black" stroke-width="0.965139" stroke-miterlimit="10" stroke-linecap="round" stroke-linejoin="round"/>
<path d="M228.615 146.496C228.563 147.011 228.46 147.423 228.306 147.732C226.967 150.255 221.561 150.152 220.274 146.496C220.274 146.445 220.223 146.393 220.223 146.29C219.45 143.613 218.627 137.898 218.266 134.655C218.266 134.655 218.266 134.655 218.318 134.603C219.09 133.78 221.767 131.411 225.526 133.471C226.71 135.015 228.975 142.892 228.615 146.496Z" fill="white"/>
<path d="M218.215 134.706C218.266 134.706 218.266 134.706 218.215 134.706C219.039 133.831 221.664 131.514 225.474 133.574C226.71 135.067 228.975 142.892 228.615 146.548C228.563 147.063 228.46 147.475 228.306 147.783C226.967 150.306 221.561 150.203 220.274 146.548C220.274 146.496 220.223 146.445 220.223 146.342C219.708 144.54 219.193 141.451 218.781 138.619" stroke="black" stroke-width="0.965139" stroke-miterlimit="10" stroke-linecap="round" stroke-linejoin="round"/>
<path d="M111.744 147.011C111.744 147.011 109.17 148.453 108.192 145.055C107.007 141.142 108.964 133.471 111.075 133.059C113.186 132.647 114.318 135.633 114.318 135.633L111.744 147.011Z" fill="white"/>
<path d="M111.744 147.011C111.744 147.011 109.17 148.453 108.192 145.055C107.007 141.142 108.964 133.471 111.075 133.059C113.186 132.647 114.318 135.633 114.318 135.633L111.744 147.011Z" stroke="black" stroke-width="0.965139" stroke-miterlimit="10" stroke-linecap="round" stroke-linejoin="round"/>
<path d="M120.96 135.015C120.96 135.015 119.57 132.184 115.863 132.441C112.156 132.698 110.714 145.827 111.229 147.475C111.693 149.122 116.893 150.152 117.562 147.063C118.283 143.974 120.96 135.015 120.96 135.015Z" fill="white"/>
<path d="M120.96 135.015C120.96 135.015 119.57 132.184 115.863 132.441C112.156 132.698 110.714 145.827 111.229 147.475C111.693 149.122 116.893 150.152 117.562 147.063C118.283 143.974 120.96 135.015 120.96 135.015Z" stroke="black" stroke-width="0.965139" stroke-miterlimit="10" stroke-linecap="round" stroke-linejoin="round"/>
<path d="M116.995 146.496C117.047 147.011 117.15 147.423 117.304 147.732C118.643 150.255 124.049 150.152 125.336 146.496C125.336 146.445 125.388 146.393 125.388 146.29C126.16 143.613 126.984 137.898 127.344 134.655C127.344 134.655 127.344 134.655 127.292 134.603C126.52 133.78 123.843 131.411 120.085 133.471C118.849 135.015 116.635 142.892 116.995 146.496Z" fill="white"/>
<path d="M127.344 134.706C126.52 133.831 123.894 131.514 120.085 133.574C118.849 135.067 116.584 142.892 116.944 146.548C116.995 147.063 117.098 147.475 117.253 147.783C118.592 150.306 123.997 150.203 125.285 146.548C125.285 146.496 125.336 146.445 125.336 146.342C125.799 144.694 126.314 141.863 126.726 139.237" stroke="black" stroke-width="0.965139" stroke-miterlimit="10" stroke-linecap="round" stroke-linejoin="round"/>
<path d="M182.484 38.2236C174.968 32.3543 156.69 32.4573 152.829 52.6908C152.16 42.8057 160.964 34.5166 169.201 33.7444C180.27 32.6117 182.484 38.2236 182.484 38.2236Z" fill="white"/>
<path d="M188.971 57.6848C188.868 57.9423 188.765 58.1997 188.714 58.4056C188.405 59.0749 188.148 59.5898 187.89 59.9502C187.633 60.3621 187.427 60.568 187.427 60.568C187.324 60.6195 187.221 60.671 187.066 60.7225C186.912 60.8254 186.706 60.8769 186.552 60.9799C186.397 61.0314 186.294 61.0829 186.191 61.1343C186.088 61.1858 185.985 61.2373 185.831 61.2888C172.445 66.2828 162.92 50.2195 162.92 50.2195C162.869 57.4789 159.368 61.7007 158.08 63.0393C157.874 63.2452 157.72 63.3997 157.669 63.4512C157.617 63.5026 157.617 63.5026 157.617 63.5026C157.36 63.1937 157.102 62.8848 156.896 62.5759C156.845 62.5244 156.793 62.4215 156.742 62.37C156.484 62.0096 156.175 61.5977 155.97 61.2373C155.558 60.6195 155.197 60.0017 154.888 59.3839C154.579 58.8175 154.373 58.3027 154.116 57.7363C153.395 55.9858 153.035 54.2868 152.932 52.6393C152.263 42.7542 161.067 34.4652 169.304 33.6929C180.425 32.6117 182.587 38.2236 182.587 38.2236C184.029 37.8117 190.104 39.3562 190.258 48.5205C190.258 52.8968 189.641 55.8314 188.971 57.6848Z" stroke="black" stroke-width="0.965139" stroke-miterlimit="10" stroke-linecap="round" stroke-linejoin="round"/>
<path d="M187.272 68.8056L186.346 68.7026L187.324 57.5304L190.207 57.7878C191.494 57.8908 192.421 59.0235 192.318 60.2591L191.906 64.8927C191.7 67.261 189.641 69.0115 187.272 68.8056Z" fill="white"/>
<path d="M187.272 68.8056L186.552 68.7541C185.934 68.7026 185.522 68.1878 185.522 67.6215V63.7086C185.522 61.5462 186.191 59.3839 187.324 57.5819L188.251 57.6849C188.251 57.6334 187.272 62.4215 187.272 68.8056Z" fill="black"/>
<path d="M156.278 68.8056L157.205 68.7026L156.175 57.5304L153.292 57.7878C152.005 57.8908 151.078 59.0235 151.233 60.3106L151.645 64.9442C151.851 67.261 153.962 69.0115 156.278 68.8056Z" fill="white"/>
<path d="M187.272 68.8056L186.346 68.7026L187.324 57.5304L190.207 57.7878C191.494 57.8908 192.421 59.0235 192.318 60.2591L191.906 64.8927C191.7 67.261 189.641 69.0115 187.272 68.8056Z" stroke="black" stroke-width="0.965139" stroke-miterlimit="10" stroke-linecap="round" stroke-linejoin="round"/>
<path d="M156.278 68.8056L157.205 68.7026L156.175 57.5304L153.292 57.7878C152.005 57.8908 151.078 59.0235 151.233 60.3106L151.645 64.9442C151.851 67.261 153.962 69.0115 156.278 68.8056Z" stroke="black" stroke-width="0.965139" stroke-miterlimit="10" stroke-linecap="round" stroke-linejoin="round"/>
<path d="M156.278 68.8056L156.999 68.7541C157.617 68.7026 158.029 68.1878 158.029 67.6215L157.977 63.7086C157.977 61.5462 157.308 59.3839 156.124 57.5819L155.197 57.6849C155.3 57.6334 156.33 62.4215 156.278 68.8056Z" fill="black"/>
<path d="M187.272 68.8056L186.552 68.7541C185.934 68.7026 185.522 68.1878 185.522 67.6215V63.7086C185.522 61.5462 186.191 59.3839 187.324 57.5819L188.251 57.6849C188.251 57.6334 187.272 62.4215 187.272 68.8056Z" stroke="black" stroke-width="0.965139" stroke-miterlimit="10" stroke-linecap="round" stroke-linejoin="round"/>
<path d="M156.278 68.8056L156.999 68.7541C157.617 68.7026 158.029 68.1878 158.029 67.6215L157.977 63.7086C157.977 61.5462 157.308 59.3839 156.124 57.5819L155.197 57.6849C155.3 57.6334 156.33 62.4215 156.278 68.8056Z" stroke="black" stroke-width="0.965139" stroke-miterlimit="10" stroke-linecap="round" stroke-linejoin="round"/>
<path d="M203.387 143.768H141.863L136.869 106.287C136.714 105.308 137.486 104.485 138.465 104.485H206.734C207.712 104.485 208.484 105.36 208.33 106.287L203.387 143.768Z" fill="#1F1F1F"/>
<path d="M203.387 143.768H141.863L136.869 106.287C136.714 105.308 137.486 104.485 138.465 104.485H206.734C207.712 104.485 208.484 105.36 208.33 106.287L203.387 143.768Z" stroke="black" stroke-width="0.965139" stroke-miterlimit="10" stroke-linecap="round" stroke-linejoin="round"/>
<path d="M203.387 142.532H141.863V146.496H203.387V142.532Z" fill="white"/>
<path d="M203.387 142.532H141.863V146.496H203.387V142.532Z" stroke="black" stroke-width="0.965139" stroke-miterlimit="10" stroke-linecap="round" stroke-linejoin="round"/>
<path d="M171.312 131.205C174.98 131.205 177.954 128.232 177.954 124.564C177.954 120.896 174.98 117.922 171.312 117.922C167.644 117.922 164.671 120.896 164.671 124.564C164.671 128.232 167.644 131.205 171.312 131.205Z" fill="white"/>
<path d="M166.421 1.51489H137.281C136.148 1.51489 135.17 2.44161 135.17 3.62576V18.8653C135.17 19.998 136.096 20.9762 137.281 20.9762H159.625L165.443 27.7722C165.752 28.1326 166.37 27.9266 166.37 27.4118V20.9762C167.502 20.9762 168.48 20.0494 168.48 18.8653V3.62576C168.532 2.49309 167.554 1.51489 166.421 1.51489ZM151.851 16.6C149.019 16.6 144.231 8.2594 147.063 6.45743C149.74 4.75843 151.851 7.95051 151.851 7.95051C151.851 7.95051 153.962 4.75843 156.639 6.45743C159.471 8.2594 154.682 16.6 151.851 16.6Z" fill="#85E25A"/>
<path d="M163.641 3.62573H134.5C133.368 3.62573 132.39 4.55246 132.39 5.73662V20.9762C132.39 22.1088 133.316 23.087 134.5 23.087H156.845L162.663 29.883C162.972 30.2434 163.589 30.0375 163.589 29.5226V23.0355C164.722 23.0355 165.7 22.1088 165.7 20.9247V5.68513C165.7 4.55246 164.774 3.62573 163.641 3.62573ZM149.071 18.7108C146.239 18.7108 141.451 10.3703 144.283 8.56829C146.96 6.86928 149.071 10.0613 149.071 10.0613C149.071 10.0613 151.182 6.86928 153.859 8.56829C156.69 10.3188 151.902 18.7108 149.071 18.7108Z" stroke="black" stroke-width="0.965139" stroke-miterlimit="10" stroke-linecap="round" stroke-linejoin="round"/>
<path d="M116.944 4.91284V90.3263C116.944 91.3045 116.584 92.1797 116.017 92.849C115.296 93.7243 114.215 94.2391 113.031 94.2391H27.6177C25.4553 94.2391 23.7048 92.4887 23.7048 90.3263V4.91284C23.7048 2.75047 25.4553 1 27.6177 1H113.031C115.194 1 116.944 2.75047 116.944 4.91284Z" stroke="black" stroke-width="0.965139" stroke-miterlimit="10" stroke-linecap="round" stroke-linejoin="round"/>
<path d="M116.944 4.91284V12.1207H23.7048V4.91284C23.7048 2.75047 25.4553 1 27.6177 1H113.031C115.194 1 116.944 2.75047 116.944 4.91284Z" fill="#1F1F1F"/>
<path d="M91.0985 6.71477C91.0985 7.74447 90.2748 8.56823 89.2451 8.56823C88.2154 8.56823 87.3916 7.74447 87.3916 6.71477C87.3916 5.68507 88.2154 4.86133 89.2451 4.86133C90.3262 4.91281 91.0985 5.73656 91.0985 6.71477Z" fill="white"/>
<path d="M102.631 6.71477C102.631 7.74447 101.807 8.56823 100.778 8.56823C99.7481 8.56823 98.9243 7.74447 98.9243 6.71477C98.9243 5.68507 99.7481 4.86133 100.778 4.86133C101.807 4.91281 102.631 5.73656 102.631 6.71477Z" fill="white"/>
<path d="M114.112 6.71477C114.112 7.74447 113.289 8.56823 112.259 8.56823C111.229 8.56823 110.405 7.74447 110.405 6.71477C110.405 5.68507 111.229 4.86133 112.259 4.86133C113.289 4.91281 114.112 5.73656 114.112 6.71477Z" fill="white"/>
<path d="M114.112 6.71477C114.112 7.74447 113.289 8.56823 112.259 8.56823C111.229 8.56823 110.405 7.74447 110.405 6.71477C110.405 5.68507 111.229 4.86133 112.259 4.86133C113.289 4.91281 114.112 5.73656 114.112 6.71477Z" fill="#85E25A"/>
<path d="M116.944 4.91284V12.1207H23.7048V4.91284C23.7048 2.75047 25.4553 1 27.6177 1H113.031C115.194 1 116.944 2.75047 116.944 4.91284Z" stroke="black" stroke-width="0.965139" stroke-miterlimit="10" stroke-linecap="round" stroke-linejoin="round"/>
<path d="M116.172 46.3067H114.112V34.8771H114.679C115.502 34.8771 116.12 35.5464 116.12 36.3186V46.3067H116.172Z" fill="white"/>
<path d="M103.712 36.4731L95.5778 46.4612H100.263C100.211 45.4315 100.52 44.4533 101.035 43.6295L103.661 39.5108V36.4731H103.712Z" fill="white"/>
<path d="M116.172 46.3067H114.112V34.8771H114.679C115.502 34.8771 116.12 35.5464 116.12 36.3186V46.3067H116.172Z" stroke="black" stroke-width="0.965139" stroke-miterlimit="10" stroke-linecap="round" stroke-linejoin="round"/>
<path d="M103.712 36.4731L95.5778 46.4612H100.263C100.211 45.4315 100.52 44.4533 101.035 43.6295L103.661 39.5108V36.4731H103.712Z" stroke="black" stroke-width="0.965139" stroke-miterlimit="10" stroke-linecap="round" stroke-linejoin="round"/>
<path d="M111.487 32.0455H106.235V46.3069H111.487V32.0455Z" fill="#1F1F1F"/>
<path d="M111.487 32.0455H106.235V46.3069H111.487V32.0455Z" stroke="black" stroke-width="0.965139" stroke-miterlimit="10" stroke-linecap="round" stroke-linejoin="round"/>
<path d="M106.853 30.3979H102.786V46.2553H106.853V30.3979Z" fill="#85E25A"/>
<path d="M106.853 30.3979H102.786V46.2553H106.853V30.3979Z" stroke="black" stroke-width="0.965139" stroke-miterlimit="10" stroke-linecap="round" stroke-linejoin="round"/>
<path d="M114.885 30.3979H110.817V46.2553H114.885V30.3979Z" fill="#85E25A"/>
<path d="M114.885 30.3979H110.817V46.2553H114.885V30.3979Z" stroke="black" stroke-width="0.965139" stroke-miterlimit="10" stroke-linecap="round" stroke-linejoin="round"/>
<path d="M116.944 45.8434H85.5382V47.5939H116.944V45.8434Z" fill="white"/>
<path d="M116.944 45.8434H85.5382V47.5939H116.944V45.8434Z" stroke="black" stroke-width="0.965139" stroke-miterlimit="10" stroke-linecap="round" stroke-linejoin="round"/>
<path d="M43.0632 88.4214V120.033H30.5009" stroke="black" stroke-width="0.965139" stroke-miterlimit="10" stroke-linecap="round" stroke-linejoin="round"/>
<path d="M43.0632 105.566H30.5009" stroke="black" stroke-width="0.965139" stroke-miterlimit="10" stroke-linecap="round" stroke-linejoin="round"/>
<path d="M19.0712 107.522H1" stroke="black" stroke-width="0.965139" stroke-miterlimit="10" stroke-linecap="round" stroke-linejoin="round"/>
<path d="M20.6157 102.992H14.0771" stroke="black" stroke-width="0.965139" stroke-miterlimit="10" stroke-linecap="round" stroke-linejoin="round"/>
<path d="M19.0712 122.041H1" stroke="black" stroke-width="0.965139" stroke-miterlimit="10" stroke-linecap="round" stroke-linejoin="round"/>
<path d="M20.6157 117.51H14.0771" stroke="black" stroke-width="0.965139" stroke-miterlimit="10" stroke-linecap="round" stroke-linejoin="round"/>
<path d="M31.9939 101.344H23.7048V109.633H31.9939V101.344Z" fill="#85E25A"/>
<path d="M31.9939 115.914H23.7048V124.203H31.9939V115.914Z" fill="#85E25A"/>
<path d="M30.7583 99.7996H22.4692V108.089H30.7583V99.7996Z" stroke="black" stroke-width="0.965139" stroke-miterlimit="10" stroke-linecap="round" stroke-linejoin="round"/>
<path d="M30.7583 114.318H22.4692V122.607H30.7583V114.318Z" stroke="black" stroke-width="0.965139" stroke-miterlimit="10" stroke-linecap="round" stroke-linejoin="round"/>
<path d="M73.7481 64.9442V92.849H28.8018V66.1799C28.8018 64.7898 29.3166 63.5027 30.1404 62.473C31.1701 61.2373 32.7661 60.4136 34.5166 60.4136H68.1877C70.8649 60.4136 73.1303 62.267 73.7481 64.7383C73.7481 64.7898 73.7481 64.8928 73.7481 64.9442Z" fill="#85E25A"/>
<path d="M73.7481 64.9443V92.8491H28.6473V64.9443C28.6473 63.5542 29.1622 62.2671 29.9859 61.2374C31.0156 60.0017 32.6117 59.178 34.3622 59.178H68.0333C71.1224 59.178 73.6451 61.6492 73.7481 64.7383C73.7481 64.7898 73.7481 64.8928 73.7481 64.9443Z" stroke="black" stroke-width="0.965139" stroke-miterlimit="10" stroke-linecap="round" stroke-linejoin="round"/>
<path d="M50.0136 92.8491H28.6473V80.6987C33.1265 68.6512 42.5998 67.1067 42.5998 67.1067C42.5998 67.1067 44.0928 70.7106 46.7185 73.9542C49.3443 77.1977 48.0057 80.8017 49.3443 87.7006C49.8076 89.9145 50.0136 91.562 50.0136 92.8491Z" fill="black"/>
<path d="M51.1977 60.4136V66.3858C47.6967 64.9442 46.1007 62.5759 45.3799 60.4136H51.1977Z" fill="black"/>
<path d="M45.0196 76.5284V92.8491H39.8196C38.1206 92.8491 36.5246 91.9224 35.7523 90.3779C35.4434 89.7086 35.186 88.8848 35.1345 87.9066C35.1345 87.8551 35.1345 87.7521 35.1345 87.7007C35.1345 84.0967 35.1345 76.5799 35.1345 76.5799H45.0196V76.5284Z" fill="white"/>
<path d="M45.0196 92.8491H39.8196C38.1206 92.8491 36.5246 91.9224 35.7523 90.3779C35.4434 89.7086 35.186 88.8848 35.1345 87.9066C35.1345 87.8551 35.1345 87.7521 35.1345 87.7006C35.1345 85.7957 35.1345 82.8611 35.1345 80.4413" stroke="black" stroke-width="0.965139" stroke-miterlimit="10" stroke-linecap="round" stroke-linejoin="round"/>
<path d="M45.5859 92.7462H39.7681C38.2235 92.7462 36.7819 91.9739 35.9582 90.6868C35.9582 90.6868 35.9582 90.6353 35.9067 90.6353C35.4433 89.9145 35.1859 89.0907 35.1859 88.2155V77.4037L42.6512 77.4552H45.2255L45.5859 92.7462Z" fill="white"/>
<path d="M107.883 86.7224C107.883 86.7224 109.942 85.9501 111.178 86.5679C112.413 87.1343 114.421 89.863 114.421 90.4808C114.421 91.0986 112.98 91.7164 111.796 90.6867C110.611 89.6055 107.883 86.7224 107.883 86.7224Z" fill="white"/>
<path d="M107.883 86.7224C107.883 86.7224 109.942 85.9501 111.178 86.5679C112.413 87.1343 114.421 89.863 114.421 90.4808C114.421 91.0986 112.98 91.7164 111.796 90.6867C110.611 89.6055 107.883 86.7224 107.883 86.7224Z" stroke="black" stroke-width="0.965139" stroke-miterlimit="10" stroke-linecap="round" stroke-linejoin="round"/>
<path d="M104.227 86.7739C104.227 86.7739 105.206 85.0749 106.802 85.3323C108.449 85.5898 111.95 88.9878 112.362 89.6056C113.083 90.6868 111.538 92.2313 109.942 92.0254C108.346 91.8194 104.588 88.4214 104.588 88.4214L104.227 86.7739Z" fill="white"/>
<path d="M104.227 86.7739C104.227 86.7739 105.206 85.0749 106.802 85.3323C108.449 85.5898 111.95 88.9878 112.362 89.6056C113.083 90.6868 111.538 92.2313 109.942 92.0254C108.346 91.8194 104.588 88.4214 104.588 88.4214L104.227 86.7739Z" stroke="black" stroke-width="0.965139" stroke-miterlimit="10" stroke-linecap="round" stroke-linejoin="round"/>
<path d="M84.9719 92.8491H45.2255L44.9681 86.4135C40.6948 80.6987 33.8988 80.2354 33.8988 80.2354C33.7959 78.5364 35.9067 71.0196 42.0334 66.3344C45.2255 63.9147 50.374 63.0394 54.5958 62.7305C58.5086 62.4731 61.5977 62.7305 61.5977 62.7305C64.2234 63.0394 66.5918 63.5028 68.7026 64.1721C89.0906 70.6077 84.9719 92.8491 84.9719 92.8491Z" fill="#85E25A"/>
<path d="M84.9719 92.8492H45.2255L44.9681 86.4135C40.6948 80.6987 33.8988 80.2354 33.8988 80.2354C33.7959 78.5364 35.9067 71.0196 42.0334 66.3344C45.2255 63.9147 50.374 63.0394 54.5958 62.7305C58.5086 62.4731 61.5977 62.7305 61.5977 62.7305C64.2234 63.0394 66.5917 63.5028 68.7026 64.1721C89.0907 70.6077 84.9719 92.8492 84.9719 92.8492Z" stroke="black" stroke-width="0.965139" stroke-miterlimit="10" stroke-linecap="round" stroke-linejoin="round"/>
<path d="M73.7481 87.6492C73.7481 87.6492 72.9758 91.9224 72.9758 92.8492H95.6807L102.631 89.3997C102.631 89.3997 106.132 91.768 107.419 92.0769C107.419 92.0769 109.993 92.4888 109.427 89.8116C109.427 89.8116 103.197 84.9205 101.962 84.4057C100.726 83.8908 96.6074 85.1779 93.9817 86.774L84.7659 83.9938L73.7481 87.6492Z" fill="white"/>
<path d="M73.7481 87.6492C73.7481 87.6492 72.9758 91.9224 72.9758 92.8492H95.6807L102.631 89.3997C102.631 89.3997 106.132 91.768 107.419 92.0769C107.419 92.0769 109.993 92.4888 109.427 89.8116C109.427 89.8116 103.197 84.9205 101.962 84.4057C100.726 83.8908 96.6074 85.1779 93.9817 86.774L84.7659 83.9938L73.7481 87.6492Z" stroke="black" stroke-width="0.965139" stroke-miterlimit="10" stroke-linecap="round" stroke-linejoin="round"/>
<path d="M72.9758 80.4413L73.7481 87.6492" stroke="black" stroke-width="0.965139" stroke-miterlimit="10" stroke-linecap="round" stroke-linejoin="round"/>
<path d="M68.6511 64.1721V67.0552C68.6511 68.3424 68.1363 69.578 67.261 70.5047C66.1798 71.6374 64.3264 72.8215 61.5977 72.8215C58.6116 72.8215 56.8611 71.7404 55.8829 70.6592C55.0591 69.7839 54.6472 68.5483 54.6472 67.3641V62.7305C58.5601 62.4731 61.6492 62.7305 61.6492 62.7305C64.1719 62.9879 66.5402 63.5028 68.6511 64.1721Z" fill="black"/>
<path d="M91.459 90.7898C91.459 90.7898 94.2392 93.2096 96.6075 93.7244C98.9758 94.2393 101.447 92.5403 101.293 91.3561C101.138 90.172 94.651 88.8334 94.651 88.8334L91.459 90.7898Z" fill="white"/>
<path d="M92.4886 91.6135C93.5183 92.3858 95.1144 93.4155 96.6074 93.7244C98.9758 94.2392 101.447 92.5402 101.293 91.3561C101.19 90.6353 98.8728 89.863 96.9678 89.3997" stroke="black" stroke-width="0.965139" stroke-miterlimit="10" stroke-linecap="round" stroke-linejoin="round"/>
<path d="M66.0769 59.2295V66.4889C66.0769 67.2611 65.7165 67.9819 65.0987 68.4453C63.7086 69.372 61.0829 70.5562 57.7879 68.3938C57.1185 67.9304 56.7067 67.2097 56.7067 66.3859V59.2295H66.0769Z" fill="white"/>
<path d="M66.0769 59.2295V66.4889C66.0769 67.2611 65.7165 67.9819 65.0987 68.4453C63.7086 69.372 61.0829 70.5562 57.7879 68.3938C57.1185 67.9304 56.7067 67.2097 56.7067 66.3859V59.2295H66.0769V59.2295Z" stroke="black" stroke-width="0.723908" stroke-miterlimit="10" stroke-linecap="round" stroke-linejoin="round"/>
<path d="M69.3204 51.9702C69.3204 57.8394 65.6135 62.2671 61.0314 62.2671C56.4492 62.2671 52.7423 57.8394 52.7423 51.9702C52.7423 46.1009 56.4492 40.489 61.0314 40.489C65.6135 40.489 69.3204 46.1524 69.3204 51.9702Z" fill="white"/>
<path d="M69.3204 51.9702C69.3204 57.8394 65.6135 62.2671 61.0314 62.2671C56.4492 62.2671 52.7423 57.8394 52.7423 51.9702C52.7423 46.1009 56.4492 40.489 61.0314 40.489C65.6135 40.489 69.3204 46.1524 69.3204 51.9702Z" stroke="black" stroke-width="0.965139" stroke-miterlimit="10" stroke-linecap="round" stroke-linejoin="round"/>
<path d="M63.4511 50.3226C63.863 50.6315 65.9739 48.984 65.6135 48.5206C65.2531 48.0058 62.9363 49.8077 63.4511 50.3226Z" fill="black"/>
<path d="M64.3779 53.0513H63.4512V51.6612C63.4512 51.4038 63.6571 51.1979 63.9145 51.1979C64.172 51.1979 64.3779 51.4038 64.3779 51.6612V53.0513Z" fill="black"/>
<path d="M57.9424 53.0513H57.0156V51.6612C57.0156 51.4038 57.2216 51.1979 57.479 51.1979C57.7364 51.1979 57.9424 51.4038 57.9424 51.6612V53.0513Z" fill="black"/>
<path d="M63.3483 53.0513C63.3483 53.0513 63.8631 52.6395 64.5324 53.0513" stroke="black" stroke-width="0.723908" stroke-miterlimit="10" stroke-linecap="round" stroke-linejoin="round"/>
<path d="M58.0453 50.2197C57.6849 50.5801 55.4195 49.087 55.7284 48.5722C56.0888 48.0573 58.5601 49.7048 58.0453 50.2197Z" fill="black"/>
<path d="M58.0967 53.0513C58.0967 53.0513 57.5819 52.6395 56.9126 53.0513" stroke="black" stroke-width="0.723908" stroke-miterlimit="10" stroke-linecap="round" stroke-linejoin="round"/>
<path d="M60.3621 54.3385C60.3621 54.3385 60.1561 55.3167 61.1343 55.2137C62.0611 55.1108 62.1126 54.0811 61.4433 54.0811" stroke="black" stroke-width="0.723908" stroke-miterlimit="10" stroke-linecap="round" stroke-linejoin="round"/>
<path d="M71.3283 49.9108C73.0273 50.786 72.564 55.1622 69.063 54.8533" stroke="black" stroke-width="0.965139" stroke-miterlimit="10" stroke-linecap="round" stroke-linejoin="round"/>
<path d="M69.4235 52.6394C69.4235 52.6394 70.2987 51.7642 71.1225 52.8453" stroke="black" stroke-width="0.965139" stroke-miterlimit="10" stroke-linecap="round" stroke-linejoin="round"/>
<path d="M57.8393 55.9344C57.8393 55.9344 59.0749 57.7364 61.3403 57.6849C61.3403 57.6849 59.6928 59.5899 58.0967 58.5087C57.067 57.8394 57.8393 55.9344 57.8393 55.9344Z" fill="black"/>
<path d="M57.8393 55.9344C57.8393 55.9344 59.0749 57.7364 61.3403 57.6849C61.3403 57.6849 59.6928 59.5899 58.0967 58.5087C57.067 57.8394 57.8393 55.9344 57.8393 55.9344Z" stroke="black" stroke-width="0.965139" stroke-miterlimit="10" stroke-linecap="round" stroke-linejoin="round"/>
<path d="M68.1832 53.9112C69.6911 52.4032 69.6911 49.9584 68.1832 48.4504C66.6752 46.9425 64.2304 46.9425 62.7224 48.4504C61.2145 49.9584 61.2145 52.4032 62.7224 53.9112C64.2304 55.4191 66.6752 55.4191 68.1832 53.9112Z" stroke="black" stroke-width="0.965139" stroke-miterlimit="10" stroke-linecap="round" stroke-linejoin="round"/>
<path d="M60.4855 51.8297C60.8271 49.7246 59.3976 47.7412 57.2925 47.3995C55.1874 47.0579 53.204 48.4874 52.8624 50.5925C52.5207 52.6976 53.9503 54.681 56.0553 55.0226C58.1604 55.3643 60.1438 53.9347 60.4855 51.8297Z" stroke="black" stroke-width="0.965139" stroke-miterlimit="10" stroke-linecap="round" stroke-linejoin="round"/>
<path d="M58.0968 65.2532C57.6849 68.5997 55.1621 77.1977 51.7127 84.766C48.2632 92.2828 45.586 92.7976 45.586 92.7976H39.7167C38.1721 92.7976 36.7306 92.0253 35.9068 90.7382C35.9068 90.7382 35.9068 90.6867 35.8553 90.6867C35.3919 89.966 35.1345 89.1422 35.1345 88.267V87.4432C37.3484 84.4056 40.0771 80.8016 42.5998 77.5066C46.4097 72.5126 49.6533 68.3423 49.6533 68.3423C49.6533 68.3423 49.9107 64.378 49.6533 63.7087C49.3958 63.0393 47.079 59.5384 46.6157 58.5087C46.1523 57.479 45.7404 52.0731 46.3067 50.9404C46.8731 49.8077 47.7998 50.3226 47.7998 50.3226L49.4988 53.3602C49.4988 53.3602 51.3008 51.1463 52.0731 50.1166C52.8453 49.0869 54.3899 49.1899 54.6988 50.9919C55.0592 52.7938 53.6176 53.978 53.6691 54.5443C53.7206 55.1107 53.8235 56.3978 55.7285 58.5087C57.7364 60.6196 58.5087 61.9067 58.0968 65.2532Z" fill="white"/>
<path d="M37.2453 84.7145C38.9958 82.3462 40.9008 79.8749 42.6513 77.5581C46.4611 72.5641 49.7047 68.3938 49.7047 68.3938C49.7047 68.3938 49.9621 64.4295 49.7047 63.7602C49.4473 63.0909 47.1304 59.5899 46.6671 58.5602C46.2037 57.5305 45.7918 52.1246 46.3582 50.9919C46.9245 49.8592 47.8512 50.3741 47.8512 50.3741L49.5502 53.4117C49.5502 53.4117 51.3522 51.1979 52.1245 50.1682C52.8968 49.1385 54.4413 49.2414 54.7502 51.0434C55.1106 52.8454 53.669 54.0295 53.7205 54.5958C53.772 55.1622 53.875 56.4493 55.7799 58.5602C57.6848 60.6711 58.4056 61.9582 57.9938 65.3047C57.5819 68.6512 55.0591 77.2492 51.6096 84.8175C48.1601 92.3343 45.4829 92.8491 45.4829 92.8491H39.6136C38.0691 92.8491 36.6275 92.0768 35.8038 90.7897C35.8038 90.7897 35.8038 90.7382 35.7523 90.7382C35.2889 90.0175 35.0315 89.1937 35.0315 88.3184V87.4947" stroke="black" stroke-width="0.965139" stroke-miterlimit="10" stroke-linecap="round" stroke-linejoin="round"/>
<path d="M69.8868 52.0731L69.4234 50.4256C65.871 48.3147 65.2017 45.9464 65.2017 45.9464C65.2017 45.9464 63.4512 49.2929 61.1858 49.2929C58.9205 49.2929 58.7146 47.5939 58.7146 47.5939C54.1839 50.8375 49.2413 50.3741 48.1087 47.5424C47.9027 47.0276 47.7998 46.4613 47.8513 45.792C48.2116 41.4672 52.3819 41.0038 52.3819 41.0038C52.3819 41.0038 50.9403 39.3563 50.7859 37.7088C50.7344 36.6791 51.1463 35.5979 52.8453 34.9801C57.17 33.2811 61.4433 36.2157 61.5462 36.3187C61.4948 36.2157 60.9799 34.3108 62.6274 33.9504C64.3264 33.59 66.0254 37.7603 66.0254 37.7603C66.0254 37.7603 67.467 35.7009 68.2908 35.9583C69.1145 36.2158 67.5185 38.0692 67.5185 38.0692C70.5561 37.6059 71.9977 38.687 72.564 44.3504C73.1818 50.0137 69.8868 52.0731 69.8868 52.0731Z" fill="black"/>
<path d="M61.6492 36.3187C54.1324 34.1049 50.8374 37.7603 50.8374 37.7603C50.7859 36.7306 51.1978 35.6494 52.8968 35.0316C57.273 33.3326 61.5463 36.2158 61.6492 36.3187Z" fill="white"/>
<path d="M48.1602 47.5425C47.9543 47.0276 47.8513 46.4613 47.9028 45.792C48.2632 41.4673 52.4334 41.0039 52.4334 41.0039L52.7938 41.2098C47.7998 42.5999 48.1602 47.5425 48.1602 47.5425Z" fill="white"/>
<path d="M69.8868 52.0731C69.8868 52.0731 73.2333 50.0137 72.667 44.3504C72.1007 38.687 70.6591 37.6573 67.6215 38.0692C67.6215 38.0692 69.166 36.1643 68.3937 35.9583C67.57 35.7009 66.1284 37.7603 66.1284 37.7603C66.1284 37.7603 64.4294 33.59 62.7304 33.9504C61.0314 34.3108 61.6492 36.3187 61.6492 36.3187C61.6492 36.3187 57.3245 33.2811 52.9483 34.9801C48.5721 36.6791 52.4334 41.0038 52.4334 41.0038C52.4334 41.0038 48.3146 41.4672 47.9028 45.792C47.5424 50.1167 53.4116 51.4553 58.7661 47.5939C58.7661 47.5939 58.972 49.2929 61.2374 49.2929C63.5027 49.2929 65.2532 45.9464 65.2532 45.9464C65.2532 45.9464 65.871 48.2632 69.4749 50.4256L69.8868 52.0731Z" stroke="black" stroke-width="0.965139" stroke-miterlimit="10" stroke-linecap="round" stroke-linejoin="round"/>
<path d="M49.2414 57.8394C49.2414 57.8394 47.9028 55.9345 47.7483 54.5959C47.5939 53.2573 47.6968 49.2929 48.0572 48.5207C48.3662 47.7999 49.6018 47.1821 50.477 48.0058C50.7345 48.2632 50.8374 48.5722 50.8374 48.8811C50.7859 50.2197 50.683 54.39 50.8374 55.0593C51.0434 55.8315 51.8671 56.4493 51.8671 56.4493L49.2414 57.8394Z" fill="white"/>
<path d="M49.2414 57.8394C49.2414 57.8394 47.9028 55.9345 47.7483 54.5959C47.5939 53.2573 47.6968 49.2929 48.0572 48.5207C48.3662 47.7999 49.6018 47.1821 50.477 48.0058C50.7345 48.2632 50.8374 48.5722 50.8374 48.8811C50.7859 50.2197 50.683 54.39 50.8374 55.0593C51.0434 55.8315 51.8671 56.4493 51.8671 56.4493" stroke="black" stroke-width="0.965139" stroke-miterlimit="10" stroke-linecap="round" stroke-linejoin="round"/>
<path d="M45.5859 92.7462H39.7681C38.2235 92.7462 36.7819 91.9739 35.9582 90.6868C35.9582 90.6868 35.9582 90.6353 35.9067 90.6353C35.4433 89.9145 35.1859 89.0907 35.1859 88.2155V80.3898" stroke="black" stroke-width="0.965139" stroke-miterlimit="10" stroke-linecap="round" stroke-linejoin="round"/>
</svg>
