<svg width="287" height="62" viewBox="0 0 287 62" fill="none" xmlns="http://www.w3.org/2000/svg">
<path d="M13.4902 59H0.957092V1.75H23.0835C30.0463 1.75 35.4103 3.37466 39.1754 6.62399C42.992 9.82174 44.9004 14.3863 44.9004 20.3176C44.9004 24.0311 44.1009 27.203 42.502 29.8335C40.9547 32.4639 38.5822 34.6043 35.3845 36.2547L45.4419 59H31.7483L23.1608 38.9625H13.4902V59ZM13.4902 12.8905V27.9767H23.0061C25.7396 27.9767 27.8543 27.3062 29.35 25.9652C30.8973 24.6242 31.671 22.7417 31.671 20.3176C31.671 17.8935 30.9231 16.0625 29.4274 14.8247C27.9832 13.5353 25.8686 12.8905 23.0835 12.8905H13.4902Z" fill="#85E25A"/>
<path d="M67.9799 60.0058C64.1116 60.0058 60.656 59.129 57.613 57.3754C54.6215 55.6218 52.249 53.2234 50.4954 50.1804C48.7934 47.0858 47.9424 43.5528 47.9424 39.5814C47.9424 35.5585 48.7676 32.0255 50.418 28.9824C52.1201 25.8878 54.4668 23.4637 57.4583 21.7101C60.4497 19.9565 63.8795 19.0797 67.7478 19.0797C71.8223 19.0797 75.3295 19.9307 78.2694 21.6328C81.2093 23.2832 83.4786 25.6558 85.0775 28.7503C86.6764 31.7934 87.4758 35.4295 87.4758 39.6588V42.676L54.2089 42.8308L54.3637 35.4811H75.639C75.639 33.418 74.9427 31.7934 73.5501 30.6071C72.1576 29.3693 70.2492 28.7503 67.8251 28.7503C65.8137 28.7503 64.1632 29.1372 62.8738 29.9108C61.636 30.6845 60.7076 31.8965 60.0887 33.547C59.4697 35.1458 59.1603 37.2089 59.1603 39.7362C59.1603 43.3465 59.8824 46.0285 61.3265 47.7821C62.8222 49.4841 65.1174 50.3352 68.212 50.3352C70.4813 50.3352 72.3639 49.9483 73.8596 49.1747C75.3553 48.401 76.3095 47.3179 76.7221 45.9254H87.6306C86.9601 50.2062 84.8454 53.6361 81.2866 56.2149C77.7279 58.7421 73.2923 60.0058 67.9799 60.0058Z" fill="#85E25A"/>
<path d="M106.445 59H94.5312V20.3176H105.672L106.987 26.971L105.749 25.5784C106.523 24.0311 107.915 22.5612 109.927 21.1686C111.938 19.776 114.543 19.0797 117.741 19.0797C121.145 19.0797 123.878 19.9307 125.941 21.6328C128.004 23.3348 129.526 25.5526 130.506 28.2862H128.649C129.268 25.5526 130.764 23.3348 133.136 21.6328C135.509 19.9307 138.345 19.0797 141.646 19.0797C146.649 19.0797 150.389 20.4207 152.864 23.1027C155.34 25.7331 156.578 29.2661 156.578 33.7017V59H144.664V37.0284C144.664 34.6043 144.07 32.7991 142.884 31.6129C141.75 30.4266 140.228 29.8335 138.32 29.8335C137.185 29.8335 136.102 30.0913 135.07 30.6071C134.039 31.0713 133.188 31.9223 132.517 33.1601C131.847 34.3464 131.512 36.0484 131.512 38.2662V59H119.597V37.0284C119.597 34.6043 119.03 32.8249 117.895 31.6902C116.761 30.504 115.239 29.9108 113.331 29.9108C112.196 29.9108 111.087 30.1687 110.004 30.6845C108.973 31.1487 108.122 31.9997 107.451 33.2375C106.781 34.4238 106.445 36.1 106.445 38.2662V59Z" fill="#85E25A"/>
<path d="M163.008 39.5814C163.008 35.5069 163.91 31.9481 165.715 28.9051C167.572 25.8105 170.099 23.4122 173.297 21.7101C176.546 20.0081 180.234 19.1571 184.36 19.1571C188.486 19.1571 192.148 20.0081 195.346 21.7101C198.544 23.4122 201.045 25.8105 202.85 28.9051C204.707 31.9481 205.636 35.5069 205.636 39.5814C205.636 43.656 204.707 47.2148 202.85 50.2578C201.045 53.3008 198.544 55.6733 195.346 57.3754C192.148 59.0774 188.486 59.9284 184.36 59.9284C180.234 59.9284 176.546 59.0774 173.297 57.3754C170.099 55.6733 167.572 53.3008 165.715 50.2578C163.91 47.2148 163.008 43.656 163.008 39.5814ZM174.999 39.5041C174.999 41.464 175.386 43.1918 176.16 44.6875C176.985 46.1317 178.094 47.2663 179.486 48.0916C180.879 48.8652 182.504 49.252 184.36 49.252C186.217 49.252 187.842 48.8652 189.234 48.0916C190.627 47.2663 191.71 46.1317 192.484 44.6875C193.257 43.1918 193.644 41.464 193.644 39.5041C193.644 37.5442 193.257 35.8421 192.484 34.398C191.71 32.9538 190.627 31.8449 189.234 31.0713C187.842 30.2461 186.217 29.8335 184.36 29.8335C182.504 29.8335 180.879 30.2461 179.486 31.0713C178.094 31.8449 176.985 32.9538 176.16 34.398C175.386 35.8421 174.999 37.5442 174.999 39.5041Z" fill="#85E25A"/>
<path d="M208.529 20.3176H235.142V30.2203H208.529V20.3176ZM227.793 59H215.879V8.32601H227.793V59Z" fill="#85E25A"/>
<path d="M238.03 39.5814C238.03 35.5069 238.933 31.9481 240.738 28.9051C242.595 25.8105 245.122 23.4122 248.32 21.7101C251.569 20.0081 255.257 19.1571 259.383 19.1571C263.509 19.1571 267.171 20.0081 270.369 21.7101C273.567 23.4122 276.068 25.8105 277.873 28.9051C279.73 31.9481 280.658 35.5069 280.658 39.5814C280.658 43.656 279.73 47.2148 277.873 50.2578C276.068 53.3008 273.567 55.6733 270.369 57.3754C267.171 59.0774 263.509 59.9284 259.383 59.9284C255.257 59.9284 251.569 59.0774 248.32 57.3754C245.122 55.6733 242.595 53.3008 240.738 50.2578C238.933 47.2148 238.03 43.656 238.03 39.5814ZM250.022 39.5041C250.022 41.464 250.409 43.1918 251.182 44.6875C252.008 46.1317 253.116 47.2663 254.509 48.0916C255.902 48.8652 257.526 49.252 259.383 49.252C261.24 49.252 262.864 48.8652 264.257 48.0916C265.65 47.2663 266.733 46.1317 267.506 44.6875C268.28 43.1918 268.667 41.464 268.667 39.5041C268.667 37.5442 268.28 35.8421 267.506 34.398C266.733 32.9538 265.65 31.8449 264.257 31.0713C262.864 30.2461 261.24 29.8335 259.383 29.8335C257.526 29.8335 255.902 30.2461 254.509 31.0713C253.116 31.8449 252.008 32.9538 251.182 34.398C250.409 35.8421 250.022 37.5442 250.022 39.5041Z" fill="#85E25A"/>
<path fill-rule="evenodd" clip-rule="evenodd" d="M19.4902 59C19.4902 59.5523 19.0425 60 18.4902 60H5.95709C5.40481 60 4.95709 59.5523 4.95709 59V1.75C4.95709 1.19771 5.40481 0.75 5.95709 0.75H28.0835C35.1875 0.75 40.8157 2.40664 44.8231 5.86212C48.9067 9.28641 50.9004 14.1557 50.9004 20.3176C50.9004 24.1735 50.0698 27.5315 48.3603 30.3467C46.8417 32.9256 44.5972 35.0367 41.6724 36.6947L51.3565 58.5956C51.4932 58.9049 51.4644 59.2624 51.2799 59.5457C51.0953 59.8291 50.7801 60 50.4419 60H36.7483C36.3483 60 35.9868 59.7616 35.8292 59.3939L27.5014 39.9625H19.4902V59ZM28.1608 38.9625L36.7483 59H50.4419L40.3845 36.2547C43.5822 34.6043 45.9548 32.4639 47.502 29.8335C49.1009 27.2031 49.9004 24.0311 49.9004 20.3176C49.9004 14.3863 47.992 9.82174 44.1754 6.62399C40.4103 3.37466 35.0463 1.75 28.0835 1.75H5.95709V59H18.4902V38.9625H28.1608ZM33.6825 25.2206L33.6951 25.2095C34.9824 24.0938 35.671 22.5104 35.671 20.3176C35.671 18.1107 35.0003 16.5968 33.7898 15.5951C33.7847 15.5908 33.7796 15.5865 33.7746 15.5822C33.7701 15.5784 33.7657 15.5745 33.7614 15.5706C32.5668 14.504 30.7294 13.8905 28.0835 13.8905H19.4902V26.9767H28.0061C30.583 26.9767 32.4275 26.3458 33.6825 25.2206ZM18.4902 27.9767V12.8905H28.0835C30.8686 12.8905 32.9832 13.5353 34.4274 14.8247C35.9231 16.0625 36.671 17.8935 36.671 20.3176C36.671 22.7417 35.8973 24.6242 34.35 25.9652C32.8543 27.3062 30.7396 27.9767 28.0061 27.9767H18.4902ZM62.1137 58.2418L62.1072 58.2381C58.9641 56.3955 56.4681 53.8711 54.629 50.6797L54.6192 50.6623C52.8263 47.4025 51.9424 43.7 51.9424 39.5814C51.9424 35.4191 52.7972 31.7172 54.539 28.5057L54.5418 28.5005C56.3291 25.251 58.8025 22.694 61.9525 20.8474C65.1145 18.9939 68.7228 18.0797 72.7478 18.0797C76.9605 18.0797 80.6459 18.96 83.7646 20.764C86.8771 22.5127 89.2799 25.0295 90.9643 28.2882C92.6529 31.5034 93.4758 35.3056 93.4758 39.6588V42.676C93.4758 43.2265 93.0309 43.6735 92.4805 43.676L65.5686 43.8012C65.8962 45.2085 66.4128 46.3091 67.0882 47.1339C68.3324 48.5417 70.3032 49.3352 73.212 49.3352C75.3745 49.3352 77.0871 48.9656 78.4002 48.2865C79.6961 47.6161 80.4405 46.7308 80.7633 45.6413C80.8891 45.2166 81.2792 44.9254 81.7221 44.9254H92.6306C92.9228 44.9254 93.2004 45.0532 93.3904 45.2753C93.5804 45.4973 93.6637 45.7914 93.6185 46.0801C92.9062 50.6282 90.6443 54.2921 86.8734 57.0246L86.8657 57.0303C83.1038 59.7017 78.4539 61.0058 72.9799 61.0058C68.9546 61.0058 65.3236 60.0916 62.1137 58.2418ZM66.3265 47.7821C65.4909 46.7675 64.8971 45.4421 64.545 43.806C64.4759 43.4849 64.4161 43.1518 64.3656 42.8068L92.4758 42.676V39.6588C92.4758 35.4295 91.6764 31.7934 90.0775 28.7503C88.4786 25.6558 86.2093 23.2832 83.2694 21.6328C80.3295 19.9307 76.8223 19.0797 72.7478 19.0797C68.8795 19.0797 65.4497 19.9565 62.4583 21.7101C59.4668 23.4637 57.1201 25.8878 55.418 28.9824C53.7676 32.0255 52.9424 35.5585 52.9424 39.5814C52.9424 43.5528 53.7934 47.0858 55.4954 50.1804C57.249 53.2234 59.6215 55.6218 62.613 57.3754C65.656 59.129 69.1116 60.0058 72.9799 60.0058C78.2923 60.0058 82.7279 58.7421 86.2866 56.2149C89.5639 53.8401 91.6164 50.7436 92.4443 46.9254C92.5154 46.5974 92.5775 46.264 92.6306 45.9254H81.7221C81.3095 47.3179 80.3553 48.401 78.8596 49.1747C77.3639 49.9483 75.4813 50.3352 73.212 50.3352C70.1174 50.3352 67.8222 49.4841 66.3265 47.7821ZM64.7772 34.4811C64.6865 34.7994 64.6058 35.1328 64.5351 35.4811H80.639C80.639 35.1355 80.6195 34.8021 80.5804 34.4811C80.3861 32.886 79.7094 31.5946 78.5501 30.6071C77.1576 29.3693 75.2492 28.7503 72.8251 28.7503C70.8137 28.7503 69.1632 29.1372 67.8738 29.9108C66.636 30.6845 65.7076 31.8965 65.0887 33.547C64.9743 33.8425 64.8704 34.1539 64.7772 34.4811ZM68.3962 30.7636C67.3845 31.3984 66.5818 32.4132 66.025 33.8981L66.0213 33.908C65.9504 34.0912 65.8835 34.2822 65.821 34.4811H79.5721C79.387 33.1671 78.8203 32.1509 77.9017 31.3684L77.8858 31.3545C76.7258 30.3234 75.0798 29.7503 72.8251 29.7503C70.9402 29.7503 69.4854 30.1126 68.3962 30.7636ZM112.445 59C112.445 59.5523 111.998 60 111.445 60H99.5312C98.9789 60 98.5312 59.5523 98.5312 59V20.3176C98.5312 19.7653 98.9789 19.3176 99.5312 19.3176H110.672C111.149 19.3176 111.56 19.6552 111.653 20.1237L112.064 22.2066C112.729 21.5624 113.496 20.9429 114.358 20.3464C116.581 18.8072 119.401 18.0797 122.741 18.0797C126.312 18.0797 129.291 18.9751 131.578 20.8614C132.674 21.7663 133.626 22.8054 134.432 23.9748C135.244 22.7821 136.286 21.7295 137.553 20.8202C140.118 18.9807 143.165 18.0797 146.646 18.0797C151.819 18.0797 155.868 19.4687 158.595 22.4201C161.281 25.2759 162.578 29.074 162.578 33.7017V59C162.578 59.5523 162.13 60 161.578 60H149.664C149.111 60 148.664 59.5523 148.664 59V37.0284C148.664 34.7512 148.106 33.2489 147.177 32.32L147.162 32.3041C146.247 31.3474 145.003 30.8335 143.32 30.8335C142.343 30.8335 141.413 31.054 140.518 31.5015C140.505 31.5076 140.493 31.5135 140.481 31.519C139.694 31.8732 138.989 32.5433 138.397 33.6364L138.388 33.6522C137.84 34.6221 137.512 36.1241 137.512 38.2662V59C137.512 59.5523 137.064 60 136.512 60H124.597C124.045 60 123.597 59.5523 123.597 59V37.0284C123.597 34.7361 123.058 33.2675 122.188 32.3973L122.173 32.3814C121.258 31.4248 120.015 30.9108 118.331 30.9108C117.353 30.9108 116.391 31.1318 115.434 31.5873L115.414 31.5964C114.627 31.9506 113.923 32.6206 113.33 33.7138L113.322 33.7296C112.772 34.7021 112.445 36.1806 112.445 38.2662V59ZM135.024 24.8991C134.817 25.2319 134.628 25.5758 134.459 25.9309C134.27 25.5811 134.069 25.2421 133.857 24.9138C133.049 23.6637 132.077 22.5701 130.941 21.6328C128.878 19.9307 126.145 19.0797 122.741 19.0797C119.543 19.0797 116.938 19.776 114.927 21.1686C113.885 21.8899 113.009 22.6319 112.299 23.3947C111.994 23.7224 111.72 24.0539 111.477 24.3892L110.672 20.3176H99.5312V59H111.445V38.2662C111.445 36.1 111.781 34.4238 112.451 33.2375C113.122 31.9997 113.973 31.1487 115.004 30.6845C116.087 30.1687 117.196 29.9108 118.331 29.9108C120.239 29.9108 121.761 30.504 122.895 31.6902C124.03 32.8249 124.597 34.6043 124.597 37.0284V59H136.512V38.2662C136.512 36.0484 136.847 34.3464 137.517 33.1601C138.188 31.9223 139.039 31.0713 140.07 30.6071C141.102 30.0913 142.185 29.8335 143.32 29.8335C145.228 29.8335 146.75 30.4266 147.884 31.6129C149.07 32.7991 149.664 34.6043 149.664 37.0284V59H161.578V33.7017C161.578 29.2661 160.34 25.7331 157.864 23.1027C155.389 20.4207 151.649 19.0797 146.646 19.0797C143.345 19.0797 140.509 19.9307 138.136 21.6328C136.835 22.5664 135.797 23.6551 135.024 24.8991ZM169.855 28.3949L169.858 28.3906C171.808 25.1397 174.47 22.6144 177.827 20.8274L177.833 20.8243C181.243 19.0383 185.093 18.1571 189.36 18.1571C193.627 18.1571 197.454 19.0382 200.816 20.8274C204.173 22.614 206.81 25.1397 208.709 28.3923C210.671 31.6118 211.636 35.3535 211.636 39.5814C211.636 43.8108 210.671 47.5535 208.707 50.7737C206.806 53.9755 204.169 56.4732 200.816 58.2581C197.454 60.0473 193.627 60.9284 189.36 60.9284C185.093 60.9284 181.243 60.0472 177.833 58.2612L177.827 58.2581C174.474 56.4734 171.813 53.9771 169.862 50.7787L169.855 50.768C167.945 47.5484 167.008 43.8079 167.008 39.5814C167.008 35.355 167.945 31.6145 169.855 28.3949ZM207.85 28.9051C206.045 25.8105 203.544 23.4122 200.346 21.7101C197.148 20.0081 193.486 19.1571 189.36 19.1571C185.234 19.1571 181.546 20.0081 178.297 21.7101C175.099 23.4122 172.572 25.8105 170.715 28.9051C168.91 31.9481 168.008 35.5069 168.008 39.5814C168.008 43.656 168.91 47.2148 170.715 50.2578C172.572 53.3008 175.099 55.6733 178.297 57.3754C181.546 59.0774 185.234 59.9284 189.36 59.9284C193.486 59.9284 197.148 59.0774 200.346 57.3754C203.544 55.6733 206.045 53.3008 207.85 50.2578C209.707 47.2148 210.636 43.656 210.636 39.5814C210.636 35.5069 209.707 31.9481 207.85 28.9051ZM193.749 31.9455C193.74 31.9409 193.732 31.9363 193.724 31.9316C192.508 31.2106 191.064 30.8335 189.36 30.8335C187.656 30.8335 186.213 31.2106 184.996 31.9316C184.988 31.9363 184.98 31.9409 184.972 31.9455C183.75 32.6243 182.773 33.5954 182.035 34.8824C181.357 36.1529 180.999 37.6826 180.999 39.5041C180.999 41.3219 181.355 42.8815 182.038 44.2096C182.776 45.4947 183.756 46.4937 184.984 47.2241C186.203 47.8981 187.651 48.252 189.36 48.252C191.07 48.252 192.518 47.8982 193.736 47.2242C194.962 46.495 195.913 45.4996 196.599 44.2213C197.286 42.8906 197.644 41.3272 197.644 39.5041C197.644 37.6767 197.284 36.1432 196.602 34.8702C195.916 33.5902 194.968 32.6231 193.749 31.9455ZM194.234 48.0916C192.842 48.8652 191.217 49.252 189.36 49.252C187.504 49.252 185.879 48.8652 184.486 48.0916C183.094 47.2663 181.985 46.1317 181.16 44.6875C180.386 43.1918 179.999 41.464 179.999 39.5041C179.999 37.5442 180.386 35.8421 181.16 34.398C181.985 32.9538 183.094 31.8449 184.486 31.0713C185.879 30.2461 187.504 29.8335 189.36 29.8335C191.217 29.8335 192.842 30.2461 194.234 31.0713C195.627 31.8449 196.71 32.9538 197.484 34.398C198.257 35.8421 198.644 37.5442 198.644 39.5041C198.644 41.464 198.257 43.1918 197.484 44.6875C196.71 46.1317 195.627 47.2663 194.234 48.0916ZM212.529 20.3176C212.529 19.7653 212.977 19.3176 213.529 19.3176H219.879V8.32601C219.879 7.77373 220.326 7.32601 220.879 7.32601H232.793C233.345 7.32601 233.793 7.77373 233.793 8.32601V19.3176H240.142C240.695 19.3176 241.142 19.7653 241.142 20.3176V30.2203C241.142 30.7726 240.695 31.2203 240.142 31.2203H233.793V59C233.793 59.5523 233.345 60 232.793 60H220.879C220.326 60 219.879 59.5523 219.879 59V31.2203H213.529C212.977 31.2203 212.529 30.7726 212.529 30.2203V20.3176ZM220.879 30.2203V59H232.793V30.2203H240.142V20.3176H232.793V8.32601H220.879V20.3176H213.529V30.2203H220.879ZM252.85 20.8274L252.856 20.8243C256.265 19.0383 260.116 18.1571 264.383 18.1571C268.65 18.1571 272.477 19.0382 275.839 20.8274C279.196 22.6143 281.833 25.1403 283.733 28.3935C285.694 31.6128 286.658 35.354 286.658 39.5814C286.658 43.8099 285.694 47.5521 283.731 50.7718C281.83 53.9745 279.193 56.4729 275.839 58.2581C272.477 60.0473 268.65 60.9284 264.383 60.9284C260.116 60.9284 256.265 60.0472 252.856 58.2612L252.85 58.2581C249.497 56.4734 246.836 53.9771 244.884 50.7787L244.878 50.768C242.968 47.5484 242.03 43.8079 242.03 39.5814C242.03 35.355 242.968 31.6145 244.878 28.3949L244.881 28.3906C246.831 25.1397 249.493 22.6144 252.85 20.8274ZM282.873 50.2578C284.73 47.2148 285.658 43.656 285.658 39.5814C285.658 35.5069 284.73 31.9481 282.873 28.9051C281.068 25.8105 278.567 23.4122 275.369 21.7101C272.171 20.0081 268.509 19.1571 264.383 19.1571C260.257 19.1571 256.569 20.0081 253.32 21.7101C250.122 23.4122 247.595 25.8105 245.738 28.9051C243.933 31.9481 243.03 35.5069 243.03 39.5814C243.03 43.656 243.933 47.2148 245.738 50.2578C247.595 53.3008 250.122 55.6733 253.32 57.3754C256.569 59.0774 260.257 59.9284 264.383 59.9284C268.509 59.9284 272.171 59.0774 275.369 57.3754C278.567 55.6733 281.068 53.3008 282.873 50.2578ZM268.771 31.9455C268.763 31.9409 268.755 31.9363 268.747 31.9316C267.531 31.2106 266.087 30.8335 264.383 30.8335C262.679 30.8335 261.236 31.2106 260.019 31.9316C260.011 31.9363 260.003 31.9409 259.995 31.9455C258.773 32.6243 257.796 33.5951 257.058 34.8819C256.38 36.1525 256.022 37.6824 256.022 39.5041C256.022 41.3217 256.378 42.8812 257.061 44.2093C257.799 45.4944 258.779 46.4935 260.006 47.2239C261.225 47.898 262.673 48.252 264.383 48.252C266.093 48.252 267.541 47.8981 268.759 47.224C269.985 46.4949 270.935 45.4998 271.621 44.222C272.308 42.8912 272.667 41.3276 272.667 39.5041C272.667 37.6767 272.307 36.1432 271.625 34.8702C270.939 33.5902 269.991 32.6231 268.771 31.9455ZM272.506 44.6875C271.733 46.1317 270.65 47.2663 269.257 48.0916C267.864 48.8652 266.24 49.252 264.383 49.252C262.526 49.252 260.902 48.8652 259.509 48.0916C258.117 47.2663 257.008 46.1317 256.182 44.6875C255.409 43.1918 255.022 41.464 255.022 39.5041C255.022 37.5442 255.409 35.8421 256.182 34.398C257.008 32.9538 258.117 31.8449 259.509 31.0713C260.902 30.2461 262.526 29.8335 264.383 29.8335C266.24 29.8335 267.864 30.2461 269.257 31.0713C270.65 31.8449 271.733 32.9538 272.506 34.398C273.28 35.8421 273.667 37.5442 273.667 39.5041C273.667 41.464 273.28 43.1918 272.506 44.6875Z" fill="black"/>
</svg>
