<svg width="465" height="388" viewBox="0 0 465 388" fill="none" xmlns="http://www.w3.org/2000/svg">
<path d="M256.122 373.652C244.184 373.652 233.82 372.428 225.703 370.98C207.521 367.708 196.257 362.563 196.132 362.513C195.858 362.388 195.733 362.039 195.858 361.764C195.982 361.489 196.332 361.364 196.607 361.489C196.707 361.539 207.871 366.634 225.928 369.881C242.586 372.878 268.685 374.826 298.43 367.258C298.73 367.184 299.03 367.358 299.105 367.658C299.179 367.958 299.005 368.257 298.705 368.332C283.27 372.278 268.81 373.652 256.122 373.652Z" fill="black"/>
<path d="M245.458 382.519C241.112 382.519 235.843 382.319 229.949 381.669C215.138 380.021 193.36 375.126 173.83 361.19C173.58 361.015 173.53 360.665 173.705 360.416C173.879 360.166 174.229 360.116 174.479 360.291C211.492 386.714 257.121 380.87 257.571 380.795C257.871 380.745 258.17 380.97 258.195 381.27C258.245 381.57 258.021 381.869 257.721 381.894C257.646 381.894 252.976 382.519 245.458 382.519Z" fill="black"/>
<path d="M19.5085 217.483C19.3836 217.483 19.2587 217.458 19.1588 217.358C18.909 217.158 18.8591 216.809 19.0589 216.584L21.7063 213.137C21.9061 212.888 22.2557 212.838 22.4805 213.038C22.7302 213.237 22.7802 213.587 22.5804 213.812L19.933 217.258C19.8331 217.408 19.6833 217.483 19.5085 217.483Z" fill="black"/>
<path d="M13.3645 225.5C13.2397 225.5 13.1148 225.475 13.0149 225.375C12.7651 225.176 12.7152 224.826 12.915 224.601L15.5623 221.155C15.7621 220.905 16.1118 220.855 16.3366 221.055C16.5863 221.254 16.6363 221.604 16.4365 221.829L13.7891 225.275C13.6892 225.425 13.5394 225.5 13.3645 225.5Z" fill="black"/>
<path d="M15.4626 218.007C15.3378 218.007 15.2129 217.958 15.113 217.883L11.6664 215.235C11.4167 215.035 11.3667 214.686 11.5665 214.461C11.7663 214.211 12.116 214.161 12.3408 214.361L15.7873 217.008C16.0371 217.208 16.087 217.558 15.8872 217.783C15.7873 217.933 15.6375 218.007 15.4626 218.007Z" fill="black"/>
<path d="M23.5044 224.152C23.3796 224.152 23.2547 224.127 23.1548 224.027L19.7082 221.379C19.4585 221.18 19.4085 220.83 19.6083 220.605C19.8081 220.355 20.1578 220.305 20.3826 220.505L23.8291 223.153C24.0789 223.352 24.1288 223.702 23.929 223.927C23.8291 224.077 23.6543 224.152 23.5044 224.152Z" fill="black"/>
<path d="M438.565 0.574219H436.842L405.324 339.236H409.045C416.987 339.236 423.98 332.793 424.654 324.876L451.652 14.9349C452.377 6.99282 446.507 0.574219 438.565 0.574219Z" fill="white"/>
<path d="M409.045 339.786H405.323C405.174 339.786 405.024 339.711 404.899 339.611C404.799 339.486 404.749 339.336 404.749 339.186L436.268 0.524282C436.293 0.224581 436.542 0.0247803 436.817 0.0247803H438.54C442.536 0.0247803 446.133 1.57324 448.73 4.39542C451.328 7.21761 452.576 10.9888 452.227 15.0098L425.229 324.951C424.529 333.118 417.262 339.786 409.045 339.786ZM405.948 338.662H409.045C416.687 338.662 423.43 332.443 424.105 324.801L451.103 14.86C451.427 11.1637 450.279 7.71711 447.906 5.1197C445.533 2.54727 442.212 1.12369 438.54 1.12369H437.317L405.948 338.662Z" fill="black"/>
<path d="M431.547 0.574219H76.8012C68.8592 0.574219 61.8661 7.01779 61.1918 14.9349L34.1937 324.876C33.4944 332.818 39.3636 339.236 47.3057 339.236H402.052C409.994 339.236 416.987 332.793 417.661 324.876L444.659 14.9349C445.359 6.99282 439.489 0.574219 431.547 0.574219Z" fill="white"/>
<path d="M402.052 339.786H47.3056C43.3096 339.786 39.7131 338.237 37.1157 335.415C34.5183 332.593 33.2696 328.822 33.6192 324.801L60.6423 14.885C61.3665 6.6932 68.6093 -0.00012207 76.8261 -0.00012207H431.572C435.568 -0.00012207 439.165 1.54833 441.762 4.37052C444.359 7.1927 445.608 10.9639 445.259 14.9849L418.261 324.926C417.511 333.118 410.244 339.786 402.052 339.786ZM76.8011 1.12376C69.1588 1.12376 62.4155 7.34255 61.7412 14.9849L34.7431 324.926C34.4184 328.622 35.5673 332.069 37.9399 334.666C40.3125 337.238 43.6342 338.662 47.3056 338.662H402.052C409.694 338.662 416.437 332.443 417.112 324.801L444.11 14.8601C444.434 11.1637 443.286 7.71718 440.913 5.11977C438.54 2.54734 435.219 1.12376 431.547 1.12376H76.8011Z" fill="black"/>
<path d="M421.707 58.6161H76.6513C76.3516 58.6161 76.1018 58.3664 76.1018 58.0667C76.1018 57.767 76.3516 57.5172 76.6513 57.5172H421.707C422.007 57.5172 422.257 57.767 422.257 58.0667C422.257 58.3664 422.007 58.6161 421.707 58.6161Z" fill="black"/>
<path d="M186.517 319.881C186.492 319.881 186.492 319.881 186.467 319.881C186.167 319.856 185.942 319.581 185.967 319.281L211.692 24.0756C211.717 23.7759 211.991 23.5261 212.291 23.5761C212.591 23.6011 212.816 23.8758 212.791 24.1755L187.066 319.381C187.041 319.656 186.792 319.881 186.517 319.881Z" fill="black"/>
<path d="M261.367 317.533C261.342 317.533 261.342 317.533 261.317 317.533C261.017 317.508 260.793 317.233 260.818 316.933L286.542 21.7278C286.567 21.4281 286.842 21.1784 287.141 21.2283C287.441 21.2533 287.666 21.528 287.641 21.8277L261.916 317.033C261.892 317.308 261.642 317.533 261.367 317.533Z" fill="black"/>
<path d="M115.762 319.881C115.737 319.881 115.737 319.881 115.712 319.881C115.413 319.856 115.188 319.581 115.213 319.281L140.937 24.0756C140.962 23.7759 141.237 23.5261 141.537 23.5761C141.836 23.6011 142.061 23.8758 142.036 24.1755L116.312 319.381C116.287 319.656 116.037 319.881 115.762 319.881Z" fill="black"/>
<path d="M338.89 318.107C338.865 318.107 338.865 318.107 338.84 318.107C338.54 318.082 338.315 317.807 338.34 317.508L364.065 22.3023C364.09 22.0026 364.364 21.7528 364.664 21.8028C364.964 21.8278 365.188 22.1025 365.163 22.4022L339.439 317.608C339.414 317.882 339.164 318.107 338.89 318.107Z" fill="black"/>
<path d="M200.378 49.8753H150.578C150.428 49.8753 150.278 49.8003 150.178 49.7004C150.078 49.5756 150.028 49.4257 150.028 49.2759L151.577 26.124C151.602 25.8243 151.851 25.5995 152.126 25.5995H201.951C202.101 25.5995 202.251 25.6744 202.351 25.7743C202.451 25.8992 202.501 26.049 202.501 26.1989L200.952 49.3508C200.927 49.6505 200.678 49.8753 200.378 49.8753ZM151.177 48.7764H199.878L201.352 26.7483H152.651L151.177 48.7764Z" fill="black"/>
<path d="M271.732 49.8753H221.906C221.757 49.8753 221.607 49.8003 221.507 49.7004C221.407 49.5756 221.357 49.4257 221.357 49.2759L222.905 26.124C222.93 25.8243 223.18 25.5995 223.455 25.5995H273.28C273.43 25.5995 273.58 25.6744 273.68 25.7743C273.78 25.8992 273.83 26.049 273.83 26.1989L272.281 49.3508C272.281 49.6505 272.031 49.8753 271.732 49.8753ZM222.506 48.7764H271.207L272.681 26.7483H223.979L222.506 48.7764Z" fill="black"/>
<path d="M131.372 49.8753H81.5714C81.4216 49.8753 81.2717 49.8003 81.1718 49.7004C81.0719 49.5756 81.022 49.4257 81.022 49.2759L82.5704 26.124C82.5954 25.8243 82.8452 25.5995 83.1199 25.5995H132.945C133.095 25.5995 133.245 25.6744 133.345 25.7743C133.445 25.8992 133.495 26.049 133.495 26.1989L131.946 49.3508C131.921 49.6505 131.671 49.8753 131.372 49.8753ZM82.1708 48.7764H130.872L132.346 26.7483H83.6444L82.1708 48.7764Z" fill="black"/>
<path d="M423.905 49.8753H374.08C373.93 49.8753 373.78 49.8003 373.68 49.7004C373.58 49.5756 373.53 49.4257 373.53 49.2759L375.079 26.124C375.104 25.8243 375.353 25.5995 375.628 25.5995H425.453C425.603 25.5995 425.753 25.6744 425.853 25.7743C425.953 25.8992 426.003 26.049 426.003 26.1989L424.454 49.3508C424.454 49.6505 424.205 49.8753 423.905 49.8753ZM374.704 48.7764H423.405L424.879 26.7483H376.178L374.704 48.7764Z" fill="black"/>
<path d="M349.13 49.5007H299.304C299.154 49.5007 299.005 49.4258 298.905 49.3259C298.805 49.2011 298.755 49.0512 298.755 48.9014L300.303 25.7494C300.328 25.4497 300.578 25.225 300.853 25.225H350.678C350.828 25.225 350.978 25.2999 351.078 25.3998C351.178 25.5247 351.227 25.6745 351.227 25.8244L349.679 48.9763C349.679 49.276 349.429 49.5007 349.13 49.5007ZM299.904 48.3769H348.605L350.079 26.3489H301.377L299.904 48.3769Z" fill="black"/>
<path d="M332.321 317.283H267.361L274.904 230.919H339.839L332.321 317.283Z" fill="white"/>
<path d="M262.241 250H198.355C198.205 250 198.055 249.925 197.93 249.826C197.831 249.701 197.781 249.551 197.781 249.401L205.173 163.037C205.198 162.737 205.448 162.538 205.723 162.538H269.634C269.784 162.538 269.934 162.613 270.058 162.712C270.158 162.837 270.208 162.987 270.208 163.137L262.816 249.501C262.791 249.776 262.541 250 262.241 250ZM198.954 248.876H261.742L269.059 163.637H206.272L198.954 248.876Z" fill="black"/>
<path d="M124.054 122.977H65.3876L69.7832 68.7811H128.45L124.054 122.977Z" fill="white"/>
<path d="M362.916 124.401C362.891 124.401 362.891 124.401 362.866 124.401C362.566 124.376 362.316 124.101 362.341 123.801L366.737 69.6053C366.762 69.3056 367.012 69.0808 367.286 69.0808H425.928C426.078 69.0808 426.228 69.1557 426.327 69.2556C426.427 69.3805 426.477 69.5304 426.477 69.6802L424.13 98.5264C424.105 98.8261 423.83 99.0759 423.53 99.0509C423.231 99.0259 422.981 98.7512 423.006 98.4515L425.303 70.2297H367.786L363.44 123.926C363.44 124.176 363.19 124.401 362.916 124.401Z" fill="black"/>
<path d="M408.72 271.279H350.079C349.929 271.279 349.779 271.204 349.679 271.104C349.579 270.98 349.529 270.83 349.529 270.68L353.925 216.484C353.95 216.184 354.2 215.959 354.474 215.959H413.116C413.266 215.959 413.416 216.034 413.515 216.134C413.615 216.259 413.665 216.409 413.665 216.559L409.27 270.755C409.27 271.055 409.02 271.279 408.72 271.279ZM350.678 270.155H408.196L412.491 217.083H354.999L350.678 270.155Z" fill="black"/>
<path d="M285.718 123.602C285.693 123.602 285.693 123.602 285.668 123.602C285.368 123.577 285.143 123.302 285.168 123.002L289.689 68.8062C289.714 68.5065 289.964 68.2817 290.238 68.2817H350.503C350.653 68.2817 350.803 68.3567 350.928 68.4566C351.028 68.5814 351.078 68.7313 351.078 68.8811L350.678 73.7263C350.653 74.026 350.378 74.2758 350.079 74.2258C349.779 74.2008 349.554 73.9261 349.579 73.6264L349.929 69.3806H290.763L286.292 123.077C286.242 123.377 285.993 123.602 285.718 123.602Z" fill="black"/>
<path d="M271.132 123.077H210.293L214.863 68.8562H275.678L271.132 123.077Z" fill="white"/>
<path d="M114.738 241.01H53.9241C53.7742 241.01 53.6244 240.935 53.4995 240.835C53.3996 240.71 53.3497 240.56 53.3497 240.41L57.9201 186.214C57.9451 185.914 58.1948 185.69 58.4696 185.69H85.4427C85.7424 185.69 85.9921 185.939 85.9921 186.239C85.9921 186.539 85.7424 186.789 85.4427 186.789H58.994L54.5235 239.861H114.214L117.96 195.43C117.985 195.13 118.26 194.881 118.56 194.93C118.859 194.955 119.084 195.23 119.059 195.53L115.288 240.485C115.288 240.785 115.038 241.01 114.738 241.01Z" fill="black"/>
<path d="M193.859 176.249H133.045L137.591 122.053H198.43L193.859 176.249Z" fill="white"/>
<path d="M332.321 317.833H316.562C316.262 317.833 316.013 317.583 316.013 317.283C316.013 316.983 316.262 316.734 316.562 316.734H331.797L339.214 231.494H275.378L274.429 242.308C274.404 242.608 274.129 242.857 273.83 242.807C273.53 242.782 273.305 242.508 273.33 242.208L274.329 230.894C274.354 230.595 274.604 230.395 274.879 230.395H339.839C339.989 230.395 340.139 230.47 340.263 230.57C340.363 230.694 340.413 230.844 340.413 230.994L332.896 317.358C332.846 317.608 332.621 317.833 332.321 317.833Z" fill="black"/>
<path d="M125.128 110.165C125.103 110.165 125.103 110.165 125.078 110.165C124.778 110.14 124.529 109.865 124.554 109.566L127.825 69.3307H100.003C99.7033 69.3307 99.4536 69.081 99.4536 68.7813C99.4536 68.4816 99.7033 68.2318 100.003 68.2318H128.425C128.575 68.2318 128.724 68.3067 128.824 68.4066C128.924 68.5315 128.974 68.6814 128.974 68.8312L125.652 109.665C125.652 109.94 125.428 110.165 125.128 110.165Z" fill="black"/>
<path d="M93.2598 123.527H65.3876C65.2377 123.527 65.0879 123.452 64.988 123.352C64.8881 123.227 64.8381 123.077 64.8381 122.927L69.2337 68.7313C69.2587 68.4316 69.5085 68.2068 69.7832 68.2068H81.1219C81.4216 68.2068 81.6713 68.4565 81.6713 68.7562C81.6713 69.0559 81.4216 69.3057 81.1219 69.3057H70.3077L66.012 122.378H93.2598C93.5595 122.378 93.8092 122.627 93.8092 122.927C93.8092 123.227 93.5595 123.527 93.2598 123.527Z" fill="black"/>
<path d="M225.253 123.626H210.293C210.143 123.626 209.993 123.552 209.869 123.452C209.769 123.327 209.719 123.177 209.719 123.027L214.289 68.8311C214.314 68.5314 214.564 68.3066 214.839 68.3066H252.701C253.001 68.3066 253.25 68.5564 253.25 68.8561C253.25 69.1558 253.001 69.4055 252.701 69.4055H215.363L210.893 122.478H225.253C225.553 122.478 225.803 122.727 225.803 123.027C225.828 123.377 225.578 123.626 225.253 123.626Z" fill="black"/>
<path d="M135.717 144.955C135.692 144.955 135.692 144.955 135.667 144.955C135.368 144.93 135.143 144.656 135.168 144.356L137.041 122.003C137.066 121.704 137.316 121.479 137.59 121.479H153.874C154.174 121.479 154.424 121.729 154.424 122.028C154.424 122.328 154.174 122.578 153.874 122.578H138.09L136.242 144.406C136.267 144.731 136.017 144.955 135.717 144.955Z" fill="black"/>
<path d="M178.15 176.824H133.045C132.895 176.824 132.745 176.749 132.62 176.649C132.521 176.524 132.471 176.374 132.471 176.224L133.819 160.34C133.844 160.04 134.119 159.791 134.419 159.841C134.718 159.865 134.943 160.14 134.918 160.44L133.644 175.725H178.15C178.45 175.725 178.699 175.974 178.699 176.274C178.724 176.574 178.475 176.824 178.15 176.824Z" fill="black"/>
<path d="M196.707 142.957C196.682 142.957 196.682 142.957 196.657 142.957C196.357 142.932 196.132 142.658 196.157 142.358L197.805 122.628H182.471C182.171 122.628 181.921 122.378 181.921 122.078C181.921 121.779 182.171 121.529 182.471 121.529H198.405C198.555 121.529 198.705 121.604 198.829 121.704C198.929 121.828 198.979 121.978 198.979 122.128L197.256 142.483C197.256 142.733 197.006 142.957 196.707 142.957Z" fill="black"/>
<path d="M14.863 344.131C-8.36381 322.728 3.67418 308.916 3.67418 308.916C3.67418 308.916 14.0388 292.108 50.4525 314.086C86.8412 336.064 122.081 327.898 130.048 324.601C138.015 321.304 165.862 300.6 181.547 299.451C190.288 298.802 200.728 305.37 191.562 323.102C172.606 359.791 121.132 363.987 121.132 363.987C121.132 363.987 96.1819 368.682 70.5325 364.136C70.5325 364.136 38.0898 365.535 14.863 344.131Z" fill="white"/>
<path d="M94.4836 366.659C87.091 366.659 78.8243 366.159 70.4826 364.686C68.8342 364.736 37.1159 365.41 14.4884 344.556C2.35055 333.367 -0.0970138 324.201 0.0028865 318.507C0.102787 312.513 2.87502 309.016 3.22467 308.617C3.52437 308.142 6.29661 304.171 13.2896 302.747C22.905 300.799 35.5175 304.446 50.7273 313.637C66.2368 323.002 83.12 327.922 100.902 328.272C115.038 328.547 125.727 325.775 129.823 324.101C132.196 323.127 136.517 320.48 141.537 317.408C153.725 309.94 170.408 299.726 181.497 298.901C185.543 298.602 190.912 299.825 193.785 304.171C195.882 307.343 197.281 313.237 192.036 323.377C182.171 342.483 163.415 352.673 149.404 357.843C134.619 363.312 121.881 364.486 121.182 364.561C120.533 364.661 109.319 366.659 94.4836 366.659ZM70.5325 363.562C70.5575 363.562 70.6075 363.562 70.6324 363.562C95.8573 368.032 120.782 363.462 121.032 363.412C121.057 363.412 121.082 363.412 121.082 363.412C121.207 363.412 134.069 362.313 149.079 356.744C162.89 351.649 181.372 341.609 191.087 322.827C196.057 313.187 194.809 307.668 192.885 304.77C190.288 300.824 185.368 299.726 181.622 300C170.807 300.799 154.249 310.939 142.161 318.332C136.891 321.554 132.745 324.101 130.298 325.1C126.127 326.823 115.263 329.646 100.927 329.371C82.9202 328.996 65.8622 324.026 50.1778 314.561C31.5964 303.347 20.0579 302.523 13.6393 303.796C6.77114 305.17 4.17372 309.191 4.14875 309.216C4.12377 309.241 4.12377 309.266 4.0988 309.291C4.07382 309.316 1.20169 312.713 1.12677 318.582C1.05184 324.051 3.44945 332.842 15.2627 343.707C38.015 364.711 70.1829 363.587 70.5325 363.562C70.5076 363.562 70.5076 363.562 70.5325 363.562Z" fill="black"/>
<path d="M75.1281 348.527L83.3449 353.123L79.249 361.639L72.4308 357.293L75.1281 348.527Z" fill="white"/>
<path d="M79.249 362.214C79.1491 362.214 79.0492 362.189 78.9493 362.114L72.1311 357.768C71.9313 357.643 71.8314 357.368 71.9063 357.144L74.6036 348.377C74.6535 348.228 74.7784 348.078 74.9283 348.028C75.0781 347.978 75.2529 347.978 75.4028 348.053L83.6196 352.648C83.8694 352.798 83.9693 353.123 83.8444 353.372L79.7485 361.914C79.6735 362.064 79.5487 362.164 79.3988 362.214C79.3489 362.189 79.2989 362.214 79.249 362.214ZM73.1051 357.044L79.0242 360.84L82.6206 353.347L75.4528 349.351L73.1051 357.044Z" fill="black"/>
<path d="M80.1231 352.024C81.0722 350.8 82.9453 350.8 83.8444 352.074L87.8404 357.493L82.4458 364.436L75.3029 361.165C75.8024 358.068 78.2999 354.371 80.1231 352.024Z" fill="black"/>
<path d="M79.2991 357.793L81.4719 355.595C82.2461 354.796 83.4949 354.646 84.4439 355.22L85.9924 356.17L86.3171 355.445C86.6667 354.671 87.5658 354.271 88.39 354.546C93.36 356.219 109.869 361.889 115.413 365.985C121.957 370.83 117.311 381.594 105.898 380.495C96.8566 379.621 84.5189 369.556 79.7736 365.41C78.8495 364.586 79.0743 363.088 80.1982 362.588L78.9994 360.865C78.35 359.916 78.4749 358.617 79.2991 357.793Z" fill="white"/>
<path d="M107.546 381.145C106.996 381.145 106.447 381.12 105.847 381.07C96.6815 380.196 84.3188 370.131 79.4237 365.835C78.8493 365.335 78.5746 364.561 78.6745 363.812C78.7494 363.262 79.0241 362.788 79.4487 362.438L78.5746 361.189C77.7504 360.016 77.9003 358.417 78.8993 357.393L81.0721 355.195C82.0461 354.221 83.5446 354.022 84.7185 354.746L85.7424 355.37L85.8174 355.22C86.2919 354.171 87.4907 353.672 88.5646 354.022C93.5347 355.67 110.143 361.414 115.738 365.56C118.685 367.758 119.709 371.229 118.41 374.626C117.186 377.748 113.665 381.145 107.546 381.145ZM79.6985 358.192C79.0741 358.817 78.9742 359.816 79.4987 360.54L80.6975 362.263C80.7974 362.388 80.8223 362.563 80.7724 362.738C80.7224 362.888 80.6225 363.038 80.4727 363.088C80.0981 363.262 79.8483 363.562 79.7984 363.962C79.7484 364.361 79.8733 364.711 80.173 364.986C84.9932 369.206 97.1311 379.097 105.972 379.946C112.516 380.57 116.212 377.248 117.386 374.201C118.51 371.279 117.636 368.307 115.088 366.434C109.619 362.388 93.16 356.719 88.2399 355.071C87.6905 354.896 87.0911 355.146 86.8663 355.67L86.5416 356.394C86.4667 356.544 86.3418 356.644 86.192 356.694C86.0421 356.744 85.8673 356.719 85.7424 356.644L84.194 355.695C83.4697 355.245 82.5206 355.37 81.9212 355.97L79.6985 358.192Z" fill="black"/>
<path d="M93.4598 370.131C93.3848 370.131 93.2849 370.106 93.21 370.081C92.9353 369.956 92.8104 369.606 92.9353 369.331L96.6316 361.564C96.7565 361.289 97.1061 361.164 97.3809 361.289C97.6556 361.414 97.7805 361.764 97.6556 362.039L93.9593 369.806C93.8843 370.006 93.6845 370.131 93.4598 370.131Z" fill="black"/>
<path d="M110.568 348.402C110.418 348.402 110.268 348.327 110.143 348.202L108.944 346.829C108.844 346.704 108.794 346.554 108.794 346.404C108.819 346.254 108.894 346.104 109.019 346.005L147.406 316.384C147.656 316.184 148.005 316.234 148.18 316.484C148.38 316.734 148.33 317.083 148.08 317.258L110.193 346.554L110.992 347.478C111.192 347.703 111.167 348.052 110.942 348.277C110.842 348.352 110.717 348.402 110.568 348.402Z" fill="black"/>
<path d="M111.891 350.225L95.183 356.219L97.8303 365.31L118.01 359.816L111.891 350.225Z" fill="white"/>
<path d="M97.8303 365.885C97.5806 365.885 97.3558 365.735 97.2809 365.485L94.6335 356.394C94.5586 356.119 94.7085 355.82 94.9832 355.72L111.692 349.726C111.941 349.626 112.216 349.726 112.341 349.951L118.46 359.541C118.56 359.691 118.585 359.866 118.51 360.041C118.435 360.215 118.31 360.34 118.135 360.39L97.9552 365.885C97.9302 365.86 97.8803 365.885 97.8303 365.885ZM95.8823 356.569L98.23 364.636L117.136 359.491L111.667 350.925L95.8823 356.569Z" fill="black"/>
<path d="M98.5545 355.695C97.8303 354.321 95.9821 354.047 94.8582 355.121L90.038 359.816L94.2089 367.558L101.801 365.485C101.826 362.338 99.9531 358.292 98.5545 355.695Z" fill="black"/>
<path d="M98.4298 361.514L96.6316 358.992C95.9822 358.068 94.8084 357.718 93.7594 358.143L92.0861 358.817L91.8863 358.043C91.6615 357.219 90.8373 356.694 89.9882 356.819C84.8184 357.643 67.5855 360.54 61.4666 363.662C54.2239 367.358 57.0211 378.747 68.4597 379.546C77.5007 380.171 91.3368 372.279 96.7065 368.957C97.7554 368.308 97.7804 366.784 96.7315 366.11L98.205 364.586C98.9792 363.737 99.0791 362.463 98.4298 361.514Z" fill="white"/>
<path d="M69.4837 380.12C69.109 380.12 68.7594 380.12 68.4097 380.096C61.2169 379.596 57.8203 375.25 57.096 371.654C56.3717 368.082 57.9452 364.811 61.2169 363.162C67.4107 359.991 84.7434 357.093 89.9133 356.269C91.0371 356.094 92.1361 356.794 92.4358 357.893L92.4857 358.067L93.5846 357.618C94.8583 357.093 96.3069 357.543 97.1061 358.667L98.9043 361.189C99.7285 362.363 99.6036 363.962 98.6046 364.986L97.5307 366.084C97.8803 366.484 98.0552 367.009 98.0552 367.558C98.0552 368.332 97.6556 369.032 96.9812 369.431C91.6615 372.703 78.6245 380.12 69.4837 380.12ZM90.238 357.343C90.188 357.343 90.1131 357.343 90.0631 357.368C84.9432 358.167 67.7354 361.064 61.6914 364.161C58.8942 365.585 57.5456 368.382 58.1699 371.454C58.8193 374.651 61.9162 378.547 68.4597 378.997C68.7844 379.022 69.134 379.022 69.4837 379.022C78.3248 379.022 91.1371 371.729 96.3569 368.482C96.6815 368.282 96.8813 367.933 96.8813 367.533C96.8813 367.133 96.7065 366.784 96.3569 366.584C96.207 366.484 96.1071 366.334 96.1071 366.184C96.0821 366.01 96.1321 365.86 96.2569 365.735L97.7305 364.211C98.3549 363.562 98.4298 362.588 97.9303 361.864L96.1321 359.341C95.6326 358.642 94.7335 358.367 93.9343 358.692L92.2609 359.366C92.1111 359.416 91.9363 359.416 91.8114 359.341C91.6615 359.266 91.5616 359.141 91.5117 358.992L91.3119 358.217C91.187 357.668 90.7375 357.343 90.238 357.343Z" fill="black"/>
<path d="M82.4957 371.354C82.2459 371.354 82.0212 371.204 81.9462 370.955L79.5736 362.688C79.4987 362.388 79.6485 362.089 79.9482 361.989C80.2479 361.914 80.5476 362.089 80.6475 362.363L83.0202 370.63C83.0951 370.93 82.9452 371.229 82.6455 371.329C82.5956 371.329 82.5456 371.354 82.4957 371.354Z" fill="black"/>
<path d="M69.084 377.698C68.9841 377.698 68.8842 377.673 68.7843 377.623C59.5934 371.854 63.2398 364.411 63.2897 364.336C63.4396 364.062 63.7643 363.962 64.039 364.086C64.3137 364.236 64.4136 364.561 64.2887 364.836C64.1639 365.11 61.0919 371.479 69.3837 376.674C69.6334 376.849 69.7333 377.173 69.5585 377.448C69.4586 377.623 69.2838 377.698 69.084 377.698Z" fill="black"/>
<path d="M75.6525 347.029C75.6275 347.029 75.5775 347.029 75.5526 347.029C75.2528 346.979 75.053 346.679 75.103 346.379L75.6025 343.857C73.9791 342.558 64.9631 335.415 50.6274 324.876C34.8182 313.237 31.3466 310.865 31.3217 310.84C31.0719 310.665 30.997 310.315 31.1718 310.065C31.3466 309.816 31.6963 309.741 31.946 309.916C31.971 309.941 35.4426 312.313 51.2768 323.977C67.111 335.64 76.4766 343.132 76.5765 343.207C76.7514 343.332 76.8263 343.557 76.7763 343.757L76.2019 346.604C76.127 346.854 75.9022 347.029 75.6525 347.029Z" fill="black"/>
<path d="M157.796 291.259C156.597 285.915 148.979 266.209 143.235 251.699C138.64 240.11 127.551 231.769 114.364 230.095C104.549 228.847 93.8843 228.597 83.6445 229.396C66.5615 230.745 51.9012 241.184 46.2568 256.169C41.1619 269.656 35.6174 286.239 35.4925 294.631C35.3677 303.572 40.7623 312.114 46.6564 318.757C54.099 327.124 64.7134 332.343 76.152 333.417C92.5107 334.941 118.06 336.464 129.674 332.668C147.481 326.824 160.693 304.197 157.796 291.259Z" fill="black"/>
<path d="M134.769 265.111H57.4207C53.8992 265.111 51.077 267.958 51.077 271.454V322.578C51.077 326.1 53.9242 328.922 57.4207 328.922H134.769C138.29 328.922 141.112 326.075 141.112 322.578V271.454C141.137 267.958 138.29 265.111 134.769 265.111Z" fill="white"/>
<path d="M134.769 329.521H57.4207C53.5995 329.521 50.5026 326.424 50.5026 322.603V271.479C50.5026 267.658 53.5995 264.561 57.4207 264.561H134.769C138.59 264.561 141.687 267.658 141.687 271.479V322.603C141.687 326.424 138.59 329.521 134.769 329.521ZM57.4207 265.685C54.2239 265.685 51.6265 268.282 51.6265 271.479V322.603C51.6265 325.8 54.2239 328.397 57.4207 328.397H134.769C137.965 328.397 140.563 325.8 140.563 322.603V271.479C140.563 268.282 137.965 265.685 134.769 265.685H57.4207Z" fill="black"/>
<path d="M139.888 329.272H50.9771C48.7793 329.272 46.9811 331.07 46.9811 333.268C46.9811 335.465 48.7793 337.264 50.9771 337.264H139.888C142.086 337.264 143.884 335.465 143.884 333.268C143.884 331.07 142.111 329.272 139.888 329.272Z" fill="white"/>
<path d="M139.888 337.838H50.9771C48.4546 337.838 46.4066 335.79 46.4066 333.268C46.4066 330.745 48.4546 328.697 50.9771 328.697H139.888C142.411 328.697 144.459 330.745 144.459 333.268C144.459 335.79 142.411 337.838 139.888 337.838ZM51.002 329.846C49.1039 329.846 47.5555 331.394 47.5555 333.293C47.5555 335.191 49.1039 336.739 51.002 336.739H139.913C141.811 336.739 143.36 335.191 143.36 333.293C143.36 331.394 141.811 329.846 139.913 329.846H51.002Z" fill="black"/>
<path d="M102.95 229.771L103.774 217.957C104.349 217.907 104.723 217.882 104.848 217.882C108.145 217.832 109.219 216.784 109.494 214.061C109.668 212.363 109.743 209.865 108.919 206.719C108.819 206.394 108.844 206.019 108.994 205.72L109.569 204.396C109.693 203.971 109.544 203.497 109.194 203.222L108.894 202.972C107.82 202.098 106.921 200.999 106.222 199.8C105.573 198.702 104.449 196.629 103.674 196.254C101.502 195.23 92.7354 190.635 87.8153 198.652C83.9941 204.92 90.2379 213.512 92.5106 216.334C93.0601 217.008 88.7893 230.395 88.7893 230.395L83.2948 231.719C83.2948 231.719 87.5406 239.261 100.453 236.139C109.644 233.916 108.195 230.495 108.195 230.495L102.95 229.771Z" fill="white"/>
<path d="M94.4587 237.513C85.9672 237.513 82.9202 232.293 82.7703 232.043C82.6954 231.893 82.6705 231.693 82.7454 231.544C82.8203 231.394 82.9452 231.269 83.12 231.219L88.3148 229.97C90.163 224.101 91.9862 217.682 91.9612 216.633C89.2139 213.187 83.4197 204.72 87.2908 198.377C90.6125 192.932 96.107 192.033 103.625 195.654L103.849 195.754C104.599 196.104 105.398 197.403 106.347 199.026L106.647 199.525C107.371 200.724 108.22 201.748 109.194 202.547L109.494 202.797C110.018 203.222 110.243 203.921 110.068 204.57C110.068 204.595 110.043 204.62 110.043 204.645L109.469 205.969C109.394 206.169 109.369 206.394 109.419 206.618C110.093 209.166 110.293 211.638 110.018 214.161C109.693 217.258 108.295 218.432 104.823 218.482C104.748 218.482 104.549 218.482 104.274 218.507L103.5 229.296L108.195 229.995C108.395 230.02 108.545 230.145 108.62 230.32C108.67 230.42 108.994 231.244 108.42 232.393C107.496 234.216 104.848 235.689 100.503 236.738C98.2549 237.288 96.2319 237.513 94.4587 237.513ZM84.1689 232.118C85.4926 233.816 90.0381 238.112 100.278 235.639C105.198 234.441 106.871 232.967 107.421 231.943C107.621 231.568 107.671 231.244 107.646 231.044L102.85 230.345C102.551 230.295 102.351 230.045 102.376 229.745L103.2 217.932C103.225 217.657 103.45 217.433 103.724 217.408C104.299 217.358 104.698 217.333 104.823 217.333C108.045 217.308 108.694 216.284 108.919 214.036C109.169 211.638 108.994 209.316 108.345 206.893C108.22 206.444 108.245 205.944 108.445 205.52L108.994 204.246C109.044 204.046 108.969 203.821 108.794 203.671L108.495 203.422C107.421 202.522 106.472 201.424 105.697 200.1L105.398 199.6C104.873 198.701 103.899 197.028 103.4 196.778L103.175 196.653C100.603 195.405 92.7604 191.633 88.2898 198.951C84.7434 204.72 90.3628 212.812 92.9352 216.009C93.16 216.284 93.6845 216.933 89.3138 230.594C89.2639 230.769 89.114 230.919 88.9142 230.969L84.1689 232.118Z" fill="black"/>
<path d="M90.4877 188.487C92.8603 187.962 95.6076 188.337 96.7564 187.912C98.6295 187.238 98.6795 184.99 101.252 184.366C104.374 183.617 105.673 184.94 106.896 186.789C107.096 187.088 107.271 187.438 107.421 187.837C109.394 193.107 106.896 195.655 105.797 196.504C105.797 196.504 98.7794 200.125 97.5806 201.174C96.4567 202.148 95.158 204.446 95.9822 207.743C96.0821 208.167 95.9073 208.617 95.5326 208.817C95.108 209.066 94.5586 208.941 94.2839 208.542C93.3598 207.218 91.3868 204.671 89.9632 205.27C88.19 206.019 88.7394 211.364 92.6605 211.988C93.8593 212.188 94.8583 213.412 94.7334 214.686C94.6585 215.51 93.8843 216.509 92.7104 216.784C92.0111 216.933 91.3118 216.659 90.6875 216.259C88.115 214.611 80.8972 207.668 79.9981 201.449C78.8992 193.906 87.3158 189.161 90.4877 188.487Z" fill="black"/>
<path d="M104.648 218.407C104.499 218.407 101.676 218.282 99.6284 216.534C99.4036 216.334 99.3537 215.984 99.5535 215.734C99.7533 215.51 100.103 215.46 100.353 215.659C102.101 217.133 104.648 217.258 104.673 217.258C104.973 217.258 105.223 217.533 105.223 217.832C105.198 218.182 104.948 218.407 104.648 218.407Z" fill="black"/>
<path d="M380.648 108.791C381.073 106.119 380.373 105.42 380.998 103.072C381.547 100.974 382.646 98.4765 384.719 96.3786C385.094 95.979 388.016 93.0819 392.311 92.3826C402.551 90.7092 412.167 97.0529 415.289 100.599C418.061 103.771 418.635 109.79 420.733 111.763C427.152 117.782 431.847 116.134 437.142 121.329C440.963 125.075 442.287 129.595 442.911 131.743C443.435 133.542 444.634 138.312 443.011 146.229C440.688 157.692 436.193 157.543 434.469 166.234C432.272 177.198 438.765 180.894 435.743 189.361C433.371 196.004 426.652 201.324 419.285 201.724C404.899 202.498 395.733 184.141 395.358 182.942C393.835 177.972 390.963 175.6 396.457 162.313C399.879 153.996 397.107 142.583 394.21 139.71C391.862 137.388 380.024 145.954 375.054 133.492C374.105 131.119 372.881 129.346 372.681 127.423C372.381 124.725 373.78 123.701 378.051 115.41C379.799 111.988 380.348 110.689 380.648 108.791Z" fill="black"/>
<path d="M430.648 332.868C430.648 332.868 437.541 342.009 437.042 348.003L437.192 350.326L451.553 337.239L449.555 336.414C446.383 334.242 443.011 332.943 441.163 329.571L430.648 332.868Z" fill="white"/>
<path d="M437.192 350.9C437.117 350.9 437.042 350.875 436.992 350.85C436.792 350.775 436.667 350.575 436.642 350.375L436.492 348.053C436.492 348.028 436.492 348.003 436.492 347.978C436.967 342.259 430.274 333.317 430.224 333.218C430.124 333.068 430.074 332.893 430.149 332.718C430.199 332.543 430.349 332.418 430.523 332.343L441.038 329.072C441.288 328.997 441.562 329.097 441.687 329.346C443.011 331.769 445.184 333.093 447.506 334.491C448.281 334.966 449.08 335.44 449.854 335.965L451.802 336.764C451.977 336.839 452.102 336.989 452.152 337.189C452.177 337.388 452.127 337.563 451.977 337.713L437.616 350.8C437.442 350.85 437.317 350.9 437.192 350.9ZM437.591 348.003L437.666 349.127L450.504 337.438L449.33 336.964C449.305 336.939 449.255 336.939 449.23 336.914C448.456 336.389 447.656 335.89 446.882 335.44C444.559 334.042 442.362 332.693 440.888 330.271L431.547 333.168C433.121 335.365 438.016 342.733 437.591 348.003Z" fill="black"/>
<path d="M434.57 345.006L434.794 347.828C435.244 353.447 434.295 359.067 432.097 364.236L430.399 368.207C430.224 368.582 430.274 369.032 430.499 369.356L430.623 369.531C431.872 371.504 437.392 373.177 444.385 368.457C448.705 365.535 457.472 357.393 463.441 343.182C463.815 342.283 463.566 341.234 462.816 340.61C460.094 338.337 453.376 333.117 448.156 332.543C447.582 332.468 447.057 332.918 447.057 333.492L447.007 339.136C446.982 341.659 444.909 343.707 442.387 343.657L435.918 343.582C435.119 343.607 434.52 344.256 434.57 345.006Z" fill="white"/>
<path d="M435.643 372.079C434.819 372.079 434.145 371.979 433.62 371.879C431.997 371.554 430.698 370.805 430.099 369.831L429.974 369.656C429.649 369.157 429.599 368.532 429.849 367.983L431.548 364.012C433.72 358.942 434.644 353.372 434.22 347.878L433.995 345.056C433.945 344.531 434.145 344.007 434.495 343.632C434.844 343.258 435.369 343.058 435.868 343.033L442.337 343.108C443.386 343.108 444.435 342.708 445.184 341.959C445.958 341.21 446.383 340.211 446.383 339.137L446.433 333.492C446.433 333.068 446.632 332.643 446.957 332.368C447.282 332.069 447.731 331.944 448.181 331.994C453.576 332.593 460.444 337.938 463.141 340.186C464.09 340.96 464.39 342.259 463.915 343.382C456.922 359.966 446.633 367.533 444.635 368.882C440.913 371.479 437.816 372.079 435.643 372.079ZM435.119 344.956L435.344 347.778C435.793 353.447 434.844 359.217 432.596 364.436L430.898 368.407C430.798 368.607 430.823 368.857 430.948 369.057L431.073 369.232C431.423 369.756 432.322 370.455 433.87 370.78C435.594 371.13 439.215 371.255 444.035 367.983C445.983 366.659 456.023 359.267 462.891 342.958C463.166 342.283 462.991 341.509 462.442 341.035C459.819 338.837 453.176 333.667 448.081 333.093C447.956 333.068 447.831 333.118 447.731 333.193C447.632 333.267 447.607 333.367 447.607 333.492L447.557 339.137C447.557 340.51 447.007 341.784 446.008 342.758C445.034 343.707 443.735 344.232 442.362 344.207L435.893 344.132C435.668 344.132 435.494 344.207 435.344 344.356C435.194 344.506 435.119 344.756 435.119 344.956Z" fill="black"/>
<path d="M431.098 367.334C430.873 367.334 430.673 367.209 430.573 366.984C430.448 366.709 430.573 366.36 430.873 366.26L431.772 365.885C436.318 363.912 439.914 360.116 441.637 355.445L442.237 353.822C442.461 353.198 443.011 352.798 443.66 352.773C444.31 352.723 444.909 353.073 445.209 353.647L445.983 355.171C446.083 355.371 446.258 355.495 446.482 355.545C446.707 355.57 446.907 355.495 447.082 355.346C451.278 351.075 454.475 346.08 456.597 340.485L457.821 337.264C457.921 336.964 458.246 336.839 458.545 336.939C458.845 337.039 458.97 337.363 458.87 337.663L457.646 340.885C455.474 346.629 452.177 351.749 447.881 356.12C447.481 356.544 446.907 356.719 446.333 356.644C445.758 356.544 445.259 356.195 445.009 355.67L444.235 354.147C444.085 353.872 443.835 353.872 443.76 353.872C443.685 353.872 443.411 353.922 443.311 354.197L442.711 355.82C440.888 360.765 437.092 364.811 432.247 366.909L431.348 367.284C431.248 367.334 431.173 367.334 431.098 367.334Z" fill="black"/>
<path d="M378.301 358.517C378.301 358.517 379.1 367.508 375.354 371.779L374.18 373.602L391.663 372.678L390.813 370.755C389.315 367.358 388.166 361.864 388.441 358.292L378.301 358.517Z" fill="white"/>
<path d="M374.18 374.152C373.98 374.152 373.805 374.052 373.705 373.877C373.605 373.702 373.605 373.477 373.705 373.303L374.879 371.479C374.904 371.454 374.904 371.429 374.929 371.404C378.451 367.358 377.726 358.642 377.726 358.567C377.701 358.417 377.776 358.268 377.876 358.143C377.976 358.018 378.126 357.968 378.276 357.968L388.441 357.768C388.59 357.768 388.74 357.818 388.865 357.943C388.965 358.068 389.04 358.218 389.015 358.367C388.74 361.639 389.764 367.009 391.338 370.555L392.187 372.478C392.262 372.653 392.237 372.853 392.162 373.003C392.062 373.153 391.887 373.253 391.712 373.278L374.23 374.202C374.205 374.152 374.205 374.152 374.18 374.152ZM375.803 372.104L375.254 372.978L390.838 372.154L390.314 370.98C388.965 367.908 387.716 362.663 387.866 358.867L378.875 359.042C379 361.19 379.1 368.308 375.803 372.104Z" fill="black"/>
<path d="M375.903 365.96L374.155 367.758C370.683 371.329 366.388 374.027 361.642 375.575L357.996 376.774C357.646 376.899 357.372 377.174 357.272 377.523L357.222 377.698C356.647 379.671 358.745 384.341 365.988 386.215C370.334 387.338 380.449 388.387 392.911 384.466C394.385 383.992 395.359 382.593 395.284 381.045C395.134 377.473 394.485 371.08 392.087 367.683C391.787 367.258 391.213 367.208 390.838 367.533C389.989 368.282 388.441 369.606 387.042 370.805C385.344 372.278 382.771 372.079 381.323 370.38L377.602 366.035C377.152 365.485 376.353 365.46 375.903 365.96Z" fill="white"/>
<path d="M375.479 387.788C370.309 387.788 366.887 387.014 365.838 386.739C360.469 385.34 358.246 382.618 357.372 381.095C356.622 379.796 356.373 378.497 356.647 377.498L356.697 377.323C356.847 376.799 357.247 376.374 357.771 376.2L361.418 375.001C366.063 373.477 370.309 370.83 373.705 367.333L375.454 365.535C375.778 365.186 376.253 364.986 376.727 365.011C377.202 365.036 377.651 365.236 377.976 365.61L381.697 369.956C382.297 370.655 383.146 371.105 384.095 371.155C385.019 371.23 385.918 370.93 386.642 370.305L390.439 367.034C390.738 366.759 391.138 366.634 391.538 366.684C391.937 366.734 392.287 366.934 392.512 367.259C395.009 370.78 395.658 377.323 395.808 380.92C395.883 382.718 394.759 384.366 393.036 384.916C386.168 387.164 380.124 387.788 375.479 387.788ZM376.303 366.359L374.555 368.158C371.033 371.779 366.612 374.526 361.817 376.1L358.171 377.299C357.996 377.348 357.871 377.498 357.821 377.673L357.771 377.848C357.621 378.372 357.696 379.371 358.371 380.57C359.145 381.919 361.168 384.391 366.138 385.665C368.061 386.165 378.426 388.437 392.761 383.917C393.985 383.542 394.809 382.343 394.734 381.045C394.585 377.573 393.96 371.28 391.637 367.983C391.588 367.908 391.488 367.883 391.438 367.858C391.363 367.858 391.263 367.883 391.188 367.933L387.392 371.205C386.468 372.004 385.269 372.403 384.045 372.304C382.821 372.204 381.697 371.654 380.898 370.705L377.177 366.359C377.077 366.235 376.902 366.16 376.752 366.16C376.577 366.16 376.403 366.235 376.303 366.359Z" fill="black"/>
<path d="M378.476 381.42C377.751 381.42 377.002 381.395 376.278 381.37C375.728 381.345 375.254 381.07 374.979 380.595C374.679 380.146 374.629 379.596 374.829 379.097L375.379 377.698C375.454 377.498 375.354 377.349 375.304 377.274C375.254 377.199 375.104 377.099 374.904 377.174L373.481 377.723C369.11 379.422 364.165 379.247 359.919 377.249L359.145 376.874C358.87 376.749 358.745 376.4 358.87 376.125C358.995 375.85 359.345 375.725 359.619 375.85L360.394 376.225C364.365 378.098 368.985 378.248 373.056 376.674L374.48 376.125C375.054 375.9 375.653 376.025 376.103 376.475C376.528 376.899 376.652 377.523 376.428 378.098L375.878 379.496C375.803 379.671 375.828 379.846 375.928 379.996C376.028 380.146 376.178 380.246 376.353 380.246C381.647 380.545 386.842 379.746 391.787 377.898L394.634 376.824C394.934 376.724 395.259 376.874 395.359 377.149C395.459 377.449 395.309 377.773 395.034 377.873L392.187 378.947C387.766 380.595 383.171 381.42 378.476 381.42Z" fill="black"/>
<path d="M409.694 211.389C409.694 211.389 416.737 234.741 404.724 251.299C388.516 273.627 397.781 325.126 389.664 359.766C389.515 360.44 388.915 360.89 388.216 360.89L378.401 360.79C377.751 360.79 377.177 360.34 377.002 359.716C374.679 351.075 359.17 292.633 359.669 280.97C359.794 278.322 360.119 275.2 360.593 271.954C362.866 256.169 367.636 240.835 374.554 226.474L385.369 204.046L409.694 211.389Z" fill="black"/>
<path d="M417.312 208.742C417.312 208.742 426.178 225.225 422.257 242.583C418.336 259.941 424.23 274.326 428.401 281.094C432.522 287.788 440.064 304.671 442.712 329.771C442.786 330.37 442.562 330.995 442.112 331.419C440.739 332.743 437.292 335.44 432.122 335.665C431.523 335.69 430.948 335.44 430.549 334.991C426.453 330.345 402.951 303.097 394.61 281.444C385.444 257.668 383.72 218.182 383.72 218.182C383.72 218.182 406.498 220.58 417.312 208.742Z" fill="black"/>
<path d="M395.708 288.462C395.683 288.462 395.683 288.462 395.658 288.462C395.359 288.437 395.109 288.163 395.134 287.863C396.158 273.827 397.956 259.641 404.25 250.975C408.72 244.806 411.068 236.989 411.168 227.748C411.168 227.448 411.418 227.198 411.717 227.198C412.017 227.198 412.267 227.448 412.267 227.773C412.142 237.263 409.744 245.28 405.124 251.649C398.98 260.091 397.207 274.102 396.208 287.963C396.233 288.238 395.983 288.462 395.708 288.462Z" fill="white"/>
<path d="M322.257 126.424C322.257 126.424 320.084 123.552 320.234 120.954C320.383 118.557 320.558 112.962 317.736 109.915C314.065 105.944 308.146 104.67 307.546 105.894C306.997 106.993 314.314 112.687 313.915 117.183C313.84 118.132 312.991 118.856 312.042 118.831C310.893 118.806 309.095 118.407 306.872 116.808C306.297 116.409 305.498 116.733 305.423 117.433C305.323 118.382 305.498 119.805 306.647 121.678C308.121 124.051 310.568 125.799 312.241 126.399C314.065 127.048 316.337 130.645 316.337 130.645L322.257 126.424Z" fill="white"/>
<path d="M316.362 131.144C316.337 131.144 316.287 131.144 316.262 131.144C316.113 131.119 315.988 131.019 315.888 130.894C315.288 129.945 313.415 127.348 312.092 126.873C310.368 126.249 307.796 124.451 306.222 121.928C304.949 119.88 304.799 118.282 304.899 117.333C304.949 116.808 305.273 116.384 305.748 116.159C306.247 115.934 306.797 116.009 307.221 116.309C309.344 117.832 311.043 118.207 312.067 118.232C312.716 118.257 313.315 117.757 313.365 117.108C313.59 114.536 310.818 111.239 308.995 109.066C307.471 107.268 306.697 106.369 307.072 105.62C307.196 105.345 307.521 105.02 308.27 104.895C310.293 104.596 314.989 106.069 318.161 109.516C321.282 112.887 320.933 118.981 320.808 120.979C320.683 123.327 322.706 126.049 322.731 126.074C322.831 126.199 322.856 126.349 322.831 126.499C322.806 126.649 322.731 126.773 322.606 126.873L316.687 131.044C316.587 131.119 316.462 131.144 316.362 131.144ZM306.347 117.133C306.272 117.133 306.222 117.158 306.197 117.158C306.123 117.183 306.023 117.258 305.998 117.433C305.898 118.207 306.048 119.531 307.147 121.329C308.57 123.627 310.893 125.25 312.441 125.799C314.015 126.374 315.763 128.722 316.487 129.795L321.482 126.274C320.858 125.325 319.559 123.077 319.684 120.904C319.984 115.859 319.185 112.263 317.336 110.265C314.639 107.343 310.668 105.969 308.845 105.969C308.47 105.969 308.245 106.019 308.146 106.069C308.32 106.494 309.17 107.493 309.869 108.317C311.942 110.764 314.789 114.136 314.514 117.183C314.414 118.432 313.315 119.356 312.067 119.331C310.868 119.306 308.945 118.906 306.597 117.183C306.497 117.158 306.422 117.133 306.347 117.133Z" fill="black"/>
<path d="M421.208 185.59C420.983 168.407 417.212 157.069 411.093 149.676C406.423 144.032 399.704 140.46 392.462 139.411C388.64 138.837 383.371 138.212 378.7 138.137C378.101 137.663 377.402 137.263 376.652 136.964C375.703 137.463 374.779 137.913 373.855 138.337C372.032 138.537 370.483 138.912 369.41 139.511C368.91 139.786 368.56 140.061 368.286 140.31C357.247 143.282 347.706 140.111 339.539 136.239C333.97 133.592 330.274 131.394 325.004 125.95C324.155 125.075 322.831 124.926 321.807 125.6L315.563 129.746C314.464 130.47 314.115 131.919 314.764 133.043C319.06 140.785 336.293 167.658 367.986 165.485C369.035 167.608 370.359 169.581 371.932 171.379C375.953 175.95 374.629 187.363 368.186 211.614C368.186 211.614 396.183 226.075 424.33 217.184C424.355 217.159 421.458 203.522 421.208 185.59Z" fill="white"/>
<path d="M404.999 220.58C384.694 220.58 368.161 212.213 367.961 212.089C367.736 211.964 367.611 211.689 367.686 211.439C374.255 186.739 375.304 175.975 371.557 171.729C370.034 169.981 368.735 168.082 367.686 166.059C366.562 166.134 365.463 166.159 364.389 166.159C334.894 166.159 318.685 141.209 314.314 133.292C313.54 131.894 313.99 130.12 315.313 129.246L321.557 125.1C322.781 124.276 324.429 124.451 325.453 125.525C330.573 130.82 334.145 133.017 339.814 135.715C347.556 139.386 356.947 142.733 368.061 139.786C368.361 139.536 368.735 139.261 369.185 139.011C370.234 138.412 371.757 137.987 373.755 137.763C374.654 137.363 375.553 136.914 376.428 136.439C376.577 136.364 376.752 136.364 376.902 136.414C377.626 136.689 378.326 137.088 378.95 137.563C383.695 137.638 388.99 138.312 392.611 138.837C400.179 139.961 406.897 143.682 411.592 149.301C418.261 157.343 421.607 169.206 421.832 185.565C422.082 203.222 424.929 216.884 424.954 217.009C425.004 217.283 424.854 217.583 424.579 217.658C417.911 219.781 411.268 220.58 404.999 220.58ZM368.86 211.314C372.357 212.988 398.081 224.651 423.705 216.784C423.181 214.161 420.858 201.474 420.658 185.615C420.434 169.531 417.187 157.893 410.668 150.05C406.173 144.631 399.679 141.059 392.387 139.961C388.74 139.411 383.421 138.762 378.7 138.687C378.575 138.687 378.45 138.637 378.351 138.562C377.826 138.162 377.277 137.813 376.677 137.563C375.828 138.012 374.954 138.437 374.08 138.812C374.03 138.837 373.98 138.862 373.905 138.862C372.032 139.061 370.608 139.436 369.684 139.985C369.26 140.235 368.91 140.46 368.66 140.71C368.585 140.785 368.51 140.81 368.41 140.835C356.897 143.932 347.232 140.51 339.265 136.739C333.47 133.991 329.799 131.744 324.579 126.324C323.93 125.65 322.881 125.525 322.107 126.049L315.863 130.195C315.014 130.77 314.739 131.869 315.239 132.768C319.709 140.86 336.742 167.058 367.911 164.936C368.136 164.911 368.361 165.035 368.46 165.235C369.484 167.308 370.783 169.231 372.332 171.005C376.427 175.625 375.528 186.189 368.86 211.314Z" fill="black"/>
<path d="M397.981 116.534C397.531 116.634 397.107 116.334 397.082 115.884C396.882 113.761 395.458 110.14 393.111 108.766C390.089 107.018 386.018 106.868 384.444 109.091C383.071 111.039 383.346 112.538 380.124 114.611C379.824 114.81 379.874 115.31 380.099 115.585L381.223 117.308C381.472 117.633 381.497 118.532 381.397 118.931C381.148 120.18 380.598 122.752 380.823 123.277C381.497 124.775 385.943 125.949 385.943 125.949L385.493 137.488C385.344 139.036 384.669 139.311 384.669 139.311L382.047 141.684C382.047 141.684 381.947 144.506 392.162 146.129C399.829 147.353 399.355 146.004 399.355 146.004C399.355 146.004 392.836 139.161 395.608 124.301C395.658 123.976 395.908 123.701 396.208 123.602C397.407 123.177 400.703 121.828 400.928 119.531C401.128 117.058 399.479 116.184 397.981 116.534Z" fill="white"/>
<path d="M397.182 147.228C396.058 147.228 394.434 147.078 392.062 146.704C381.872 145.08 381.447 142.233 381.472 141.684C381.472 141.534 381.547 141.384 381.647 141.284L384.27 138.911C384.319 138.861 384.369 138.836 384.444 138.811C384.444 138.811 384.819 138.537 384.919 137.438L385.343 126.374C384.045 125.999 380.948 124.95 380.298 123.502C380.049 122.952 380.273 121.579 380.773 119.081L380.823 118.806C380.898 118.432 380.823 117.782 380.723 117.633L379.599 115.884C379.374 115.585 379.275 115.16 379.349 114.81C379.399 114.511 379.574 114.286 379.799 114.136C381.897 112.787 382.396 111.763 382.971 110.565C383.246 109.99 383.52 109.416 383.97 108.766C385.818 106.169 390.289 106.494 393.385 108.292C395.983 109.79 397.431 113.611 397.656 115.834C397.656 115.909 397.706 115.934 397.731 115.959C397.756 115.984 397.806 116.009 397.881 115.984C398.855 115.759 399.804 115.959 400.478 116.559C401.003 117.033 401.627 117.932 401.477 119.581C401.253 122.053 398.206 123.502 396.407 124.126C396.283 124.176 396.183 124.276 396.158 124.401C393.46 138.836 399.704 145.555 399.754 145.63C399.804 145.68 399.854 145.754 399.879 145.829C399.954 146.029 399.929 146.329 399.704 146.604C399.454 146.903 398.88 147.228 397.182 147.228ZM382.621 141.908C382.896 142.483 384.394 144.381 392.212 145.605C396.432 146.279 398.006 146.129 398.555 145.979C397.182 144.256 392.586 137.313 395.034 124.201C395.134 123.676 395.508 123.252 396.008 123.077C397.257 122.628 400.179 121.404 400.353 119.481C400.428 118.532 400.229 117.832 399.754 117.408C399.354 117.058 398.755 116.933 398.131 117.083C397.756 117.183 397.381 117.083 397.082 116.883C396.782 116.658 396.582 116.334 396.557 115.959C396.382 113.961 394.984 110.515 392.861 109.266C390.189 107.717 386.367 107.418 384.919 109.441C384.519 110.015 384.27 110.515 384.02 111.064C383.42 112.288 382.821 113.587 380.498 115.085C380.498 115.135 380.523 115.235 380.573 115.31L381.697 117.058C382.072 117.558 382.047 118.632 381.972 119.106L381.922 119.381C381.747 120.28 381.248 122.677 381.372 123.127C381.747 123.976 384.369 125 386.118 125.475C386.367 125.55 386.542 125.774 386.542 126.049L386.093 137.588C385.943 139.161 385.318 139.686 385.019 139.86L382.621 141.908Z" fill="black"/>
<path d="M339.09 145.954L234.519 145.655C232.096 145.655 230.023 143.956 230.173 142.133L235.918 77.5976C236.042 76.199 237.491 75.175 239.364 75.175L343.935 75.4747C346.357 75.4747 348.43 77.1731 348.28 78.9962L342.536 143.532C342.411 144.955 340.963 145.954 339.09 145.954Z" fill="white"/>
<path d="M339.09 146.529L234.519 146.229C232.97 146.229 231.472 145.605 230.523 144.556C229.849 143.832 229.524 142.958 229.599 142.108L235.343 77.5727C235.493 75.8744 237.166 74.6506 239.314 74.6506C239.314 74.6506 239.314 74.6506 239.339 74.6506L343.91 74.9503C345.458 74.9503 346.957 75.5747 347.906 76.6237C348.58 77.348 348.905 78.2221 348.83 79.0712L343.086 143.607C342.936 145.28 341.262 146.529 339.09 146.529ZM339.09 145.405C340.663 145.405 341.862 144.606 341.962 143.507L347.706 78.9713C347.756 78.272 347.406 77.7226 347.082 77.3729C346.357 76.5737 345.134 76.0742 343.91 76.0742L239.339 75.7745C237.766 75.7495 236.567 76.5737 236.467 77.6726L230.723 142.208C230.673 142.908 231.022 143.457 231.347 143.807C232.071 144.606 233.295 145.105 234.519 145.105L339.09 145.405Z" fill="black"/>
<path d="M335.693 102.747H243.835C243.685 102.747 243.535 102.672 243.41 102.573C243.31 102.448 243.26 102.298 243.26 102.148L243.884 94.7054C243.909 94.4057 244.159 94.1809 244.434 94.1809H336.292C336.442 94.1809 336.592 94.2558 336.717 94.3557C336.817 94.4806 336.867 94.6305 336.867 94.7803L336.242 102.223C336.217 102.523 335.993 102.747 335.693 102.747ZM244.434 101.623H335.168L335.693 95.3048H244.958L244.434 101.623Z" fill="black"/>
<path d="M321.457 92.3079H260.068C259.918 92.3079 259.769 92.233 259.644 92.1331C259.544 92.0082 259.494 91.8583 259.494 91.7085L260.118 84.2659C260.143 83.9662 260.393 83.7415 260.668 83.7415H322.056C322.206 83.7415 322.356 83.8164 322.481 83.9163C322.581 84.0412 322.631 84.191 322.631 84.3408L322.007 91.7834C321.982 92.0831 321.732 92.3079 321.457 92.3079ZM260.668 91.209H320.933L321.457 84.8903H261.192L260.668 91.209Z" fill="black"/>
<path d="M334.744 113.886H242.886C242.736 113.886 242.586 113.811 242.461 113.711C242.361 113.587 242.311 113.437 242.311 113.287L242.936 105.844C242.961 105.545 243.21 105.32 243.485 105.32H335.343C335.493 105.32 335.643 105.395 335.768 105.495C335.893 105.595 335.918 105.769 335.918 105.919L335.293 113.362C335.293 113.662 335.044 113.886 334.744 113.886ZM243.485 112.762H334.219L334.744 106.444H244.009L243.485 112.762Z" fill="black"/>
<path d="M333.82 125.025H241.961C241.812 125.025 241.662 124.951 241.537 124.851C241.437 124.726 241.387 124.576 241.387 124.426L242.011 116.983C242.036 116.684 242.286 116.459 242.561 116.459H334.419C334.569 116.459 334.719 116.534 334.844 116.634C334.944 116.759 334.994 116.909 334.994 117.058L334.369 124.501C334.344 124.801 334.095 125.025 333.82 125.025ZM242.561 123.927H333.295L333.82 117.608H243.085L242.561 123.927Z" fill="black"/>
<path d="M332.871 136.189H241.012C240.863 136.189 240.713 136.114 240.588 136.014C240.488 135.889 240.438 135.739 240.438 135.59L241.062 128.147C241.087 127.847 241.337 127.623 241.612 127.623H333.47C333.62 127.623 333.77 127.697 333.895 127.797C333.995 127.922 334.045 128.072 334.045 128.222L333.42 135.665C333.42 135.964 333.17 136.189 332.871 136.189ZM241.612 135.065H332.346L332.871 128.746H242.136L241.612 135.065Z" fill="black"/>
<path d="M319.784 143.706L318.36 138.986C317.936 136.888 322.206 132.343 319.409 131.094C317.386 130.17 317.586 133.367 314.689 133.891C313.19 134.166 311.517 131.244 311.267 129.87C310.368 125.15 308.32 123.402 306.522 124.026C304.724 124.675 302.351 132.018 305.573 137.188C308.795 142.358 315.288 146.703 315.288 146.703L319.784 143.706Z" fill="white"/>
<path d="M315.288 147.278C315.188 147.278 315.064 147.253 314.989 147.178C314.714 147.003 308.345 142.708 305.098 137.488C302.851 133.891 303.2 129.321 304.174 126.499C304.449 125.724 305.198 123.876 306.322 123.477C307.096 123.202 307.896 123.277 308.645 123.701C310.118 124.551 311.217 126.624 311.817 129.72C312.066 131.094 313.64 133.467 314.589 133.292C315.788 133.067 316.337 132.343 316.887 131.619C317.461 130.844 318.185 129.87 319.634 130.545C320.208 130.794 320.583 131.194 320.783 131.718C321.232 132.917 320.508 134.466 319.809 135.964C319.284 137.063 318.76 138.212 318.885 138.861L320.283 143.532C320.358 143.756 320.258 144.031 320.059 144.156L315.588 147.178C315.513 147.253 315.413 147.278 315.288 147.278ZM307.246 124.476C307.071 124.476 306.897 124.501 306.697 124.576C306.347 124.7 305.723 125.475 305.223 126.898C304.324 129.471 304 133.642 306.023 136.913C308.745 141.284 313.965 145.13 315.288 146.054L319.109 143.482L317.811 139.161C317.586 138.112 318.185 136.863 318.785 135.515C319.359 134.291 320.009 132.892 319.709 132.143C319.659 131.993 319.534 131.793 319.159 131.619C318.585 131.369 318.41 131.494 317.761 132.343C317.186 133.117 316.412 134.166 314.764 134.466C312.841 134.815 310.993 131.544 310.693 130.02C310.193 127.348 309.219 125.425 308.07 124.75C307.821 124.551 307.546 124.476 307.246 124.476Z" fill="black"/>
<path d="M319.409 140.909L312.941 144.805C312.042 145.33 311.617 146.379 311.842 147.403C313.715 155.22 330.348 180.52 384.245 180.17C394.16 180.095 398.106 167.083 394.31 157.942C392.212 152.922 386.892 150.075 381.547 151.024C368.935 153.297 338.515 160.714 322.481 141.459C321.732 140.535 320.408 140.285 319.409 140.909Z" fill="white"/>
<path d="M383.171 180.719C360.668 180.719 341.687 176.099 328.226 167.308C316.837 159.865 312.217 151.374 311.292 147.527C310.993 146.279 311.542 145.005 312.641 144.331L319.11 140.435C320.358 139.685 321.957 139.96 322.906 141.084C332.097 152.148 347.356 155.894 369.584 152.572C369.909 152.523 370.184 152.747 370.234 153.047C370.284 153.347 370.059 153.646 369.759 153.671C347.107 157.068 331.522 153.172 322.057 141.783C321.457 141.084 320.483 140.909 319.709 141.359L313.24 145.255C312.566 145.679 312.217 146.454 312.416 147.228C314.464 155.669 331.822 179.571 383.171 179.571C383.545 179.571 383.895 179.571 384.27 179.571C384.569 179.571 384.819 179.82 384.819 180.12C384.819 180.42 384.569 180.669 384.27 180.694C383.895 180.719 383.545 180.719 383.171 180.719Z" fill="black"/>
<path d="M229.399 318.832H273.505C273.505 318.832 279.549 355.62 253.225 358.567C226.901 361.489 229.399 318.832 229.399 318.832Z" fill="white"/>
<path d="M250.703 359.242C245.932 359.242 241.862 357.668 238.565 354.546C227.476 344.032 228.75 319.806 228.825 318.782C228.85 318.482 229.074 318.257 229.374 318.257H273.48C273.755 318.257 273.979 318.457 274.029 318.732C274.154 319.556 277.251 339.137 268.36 350.875C264.764 355.62 259.669 358.392 253.25 359.117C252.401 359.192 251.552 359.242 250.703 359.242ZM229.923 319.381C229.799 323.003 229.524 344.406 239.339 353.747C242.96 357.194 247.606 358.617 253.15 357.993C259.269 357.319 264.089 354.696 267.486 350.201C275.353 339.811 273.43 322.453 273.005 319.381H229.923Z" fill="black"/>
<path d="M242.611 309.816C239.464 309.916 232.746 310.016 226.427 305.695C224.079 304.096 217.661 299.726 218.26 293.957C218.785 289.011 224.304 284.466 231.822 283.667C222.905 284.716 215.738 278.047 215.738 271.154C215.738 265.86 219.908 260.615 226.102 258.892C216.512 251.649 211.467 239.96 213.065 228.347C214.614 217.058 222.431 205.944 234.219 202.523C235.693 202.098 248.53 198.577 257.746 206.444C265.488 213.037 265.588 223.277 265.638 230.27C265.738 242.683 260.768 252.123 257.746 256.869C258.37 256.819 264.739 254.721 270.708 260.015C276.777 265.41 277.076 277.798 274.104 282.693C271.007 287.813 263.565 286.739 262.216 287.113C267.786 292.033 267.611 296.154 267.536 296.929C266.912 304.946 252.401 309.541 242.611 309.816Z" fill="white"/>
<path d="M240.938 310.415C237.466 310.415 231.672 309.965 226.127 306.169C223.655 304.496 217.086 300 217.711 293.931C218.16 289.636 221.932 285.914 227.251 284.116C224.454 283.617 221.832 282.393 219.684 280.495C216.837 277.947 215.188 274.551 215.188 271.179C215.188 265.834 219.234 260.74 224.954 258.692C215.713 251.249 210.967 239.711 212.541 228.272C214.264 215.809 222.906 205.245 234.094 201.998C236.492 201.299 248.955 198.202 258.145 206.019C266.087 212.787 266.187 223.302 266.237 230.27C266.337 241.284 262.466 250.225 258.92 256.094C263.54 255.345 267.636 256.544 271.107 259.616C277.326 265.135 277.701 277.922 274.629 282.992C272.007 287.338 266.462 287.488 263.79 287.563C263.715 287.563 263.64 287.563 263.59 287.563C268.011 291.884 268.26 295.53 268.16 296.953C267.511 305.245 252.951 310.065 242.686 310.365C242.161 310.39 241.587 310.415 240.938 310.415ZM231.697 284.266C224.829 285.065 219.309 289.261 218.81 294.056C218.235 299.476 224.404 303.672 226.727 305.27C233.02 309.566 239.739 309.366 242.586 309.291C252.176 309.016 266.387 304.446 266.987 296.928C267.061 295.88 266.937 292.083 261.842 287.588C261.692 287.463 261.617 287.238 261.667 287.038C261.717 286.839 261.867 286.689 262.066 286.614C262.416 286.514 262.941 286.514 263.715 286.489C266.387 286.414 271.332 286.264 273.63 282.443C276.527 277.648 276.177 265.66 270.333 260.465C266.937 257.443 262.866 256.394 258.245 257.368C258.021 257.418 257.871 257.443 257.796 257.443C257.571 257.468 257.371 257.343 257.271 257.168C257.171 256.993 257.171 256.769 257.271 256.594C260.893 250.924 265.163 241.734 265.088 230.295C265.039 223.527 264.939 213.337 257.396 206.893C248.655 199.451 236.692 202.423 234.394 203.072C223.63 206.194 215.288 216.384 213.64 228.422C212.066 239.785 216.986 251.274 226.477 258.442C226.652 258.567 226.727 258.792 226.702 258.991C226.652 259.191 226.502 259.366 226.302 259.416C220.508 261.039 216.337 265.959 216.337 271.129C216.337 274.201 217.836 277.298 220.458 279.621C223.455 282.293 227.526 283.542 231.622 283.117C231.672 283.117 231.747 283.092 231.797 283.092C232.096 283.067 232.371 283.267 232.421 283.592C232.446 283.891 232.246 284.166 231.922 284.216C231.822 284.241 231.772 284.266 231.697 284.266Z" fill="black"/>
<path d="M245.808 315.285C245.783 315.285 245.758 315.285 245.733 315.285C245.433 315.235 245.208 314.961 245.258 314.661C250.877 273.102 237.741 226.199 237.616 225.725C237.541 225.425 237.716 225.125 237.99 225.025C238.29 224.95 238.59 225.125 238.69 225.4C238.815 225.874 252.026 272.978 246.382 314.786C246.332 315.086 246.082 315.285 245.808 315.285Z" fill="black"/>
<path d="M252.151 311.739C251.152 309.291 246.807 297.978 252.451 288.437C253.6 286.489 257.471 279.921 263.09 280.37C267.286 280.72 269.934 284.766 270.508 285.69C268.81 279.546 271.857 273.302 276.902 271.154C282.871 268.607 290.813 272.128 293.011 279.496C294.484 279.071 298.48 278.172 302.501 280.07C307.796 282.568 310.993 288.912 310.268 295.905C308.07 303.397 301.227 307.993 294.734 307.118C287.691 306.194 284.319 299.276 284.094 298.777C285.193 300.5 286.817 303.722 285.818 306.844C284.169 312.088 275.903 314.686 269.983 313.162C264.489 311.764 262.891 307.293 258.47 307.693C255.573 307.968 253.425 310.165 252.151 311.739Z" fill="white"/>
<path d="M273.505 314.161C272.231 314.161 271.007 314.012 269.859 313.737C267.211 313.063 265.438 311.714 263.865 310.515C262.091 309.166 260.693 308.093 258.52 308.292C256.447 308.467 254.449 309.766 252.576 312.113C252.451 312.263 252.251 312.338 252.051 312.313C251.852 312.288 251.677 312.163 251.602 311.964C249.904 307.843 246.557 297.253 251.927 288.162C255.373 282.318 259.144 279.496 263.09 279.821C265.938 280.045 268.085 281.844 269.484 283.442C269.009 277.998 271.857 272.678 276.627 270.655C279.599 269.381 283.145 269.506 286.342 271.005C289.639 272.553 292.161 275.375 293.335 278.822C295.458 278.297 299.079 277.873 302.701 279.571C308.295 282.218 311.542 288.787 310.793 295.955C310.793 295.98 310.793 296.03 310.768 296.055C308.545 303.597 301.602 308.592 294.609 307.668C291.013 307.193 288.315 305.195 286.492 303.247C286.717 304.446 286.692 305.72 286.292 306.994C284.919 311.564 278.925 314.161 273.505 314.161ZM259.044 307.118C261.317 307.118 262.891 308.317 264.564 309.591C266.112 310.765 267.711 311.989 270.133 312.613C275.703 314.037 283.695 311.689 285.293 306.644C285.968 304.521 285.343 302.323 284.444 300.525C283.895 299.676 283.62 299.076 283.57 299.002C283.445 298.727 283.545 298.427 283.82 298.277C284.069 298.127 284.394 298.227 284.569 298.477C284.869 298.952 285.168 299.451 285.443 300.026C286.817 302.173 289.889 305.92 294.809 306.569C301.252 307.418 307.646 302.773 309.719 295.78C310.393 289.111 307.396 282.993 302.251 280.57C298.655 278.872 295.009 279.496 293.135 280.02C292.836 280.095 292.536 279.946 292.436 279.646C291.437 276.274 289.039 273.477 285.868 272.004C282.971 270.63 279.749 270.505 277.076 271.654C272.106 273.777 269.434 279.871 271.007 285.515C271.082 285.79 270.958 286.064 270.683 286.164C270.433 286.264 270.133 286.189 269.983 285.94C269.109 284.516 266.662 281.169 262.99 280.87C259.494 280.57 256.097 283.192 252.876 288.662C248.105 296.754 250.603 306.169 252.276 310.615C254.174 308.492 256.222 307.293 258.37 307.118C258.645 307.143 258.845 307.118 259.044 307.118Z" fill="black"/>
<path d="M251.727 314.811C251.702 314.811 251.652 314.811 251.627 314.811C251.327 314.761 251.127 314.461 251.177 314.162C251.302 313.462 254.424 296.754 270.008 290.835C281.197 286.564 291.262 290.835 294.084 292.233C294.359 292.383 294.484 292.708 294.334 292.983C294.184 293.257 293.86 293.382 293.585 293.232C290.863 291.884 281.197 287.763 270.408 291.884C255.398 297.603 252.401 313.687 252.276 314.361C252.226 314.611 251.976 314.811 251.727 314.811Z" fill="black"/>
</svg>
