<svg width="256" height="255" viewBox="0 0 256 255" fill="none" xmlns="http://www.w3.org/2000/svg">
<path d="M234.424 8.95324V188.558C234.424 192.959 230.872 196.511 226.471 196.511H53.1979C48.7966 196.511 45.2446 192.959 45.2446 188.558V8.95324C45.2446 4.55193 48.7966 1 53.1979 1H226.471C230.872 1 234.424 4.55193 234.424 8.95324Z" fill="white"/>
<path d="M110.029 196.511H53.1979C48.7966 196.511 45.2446 192.959 45.2446 188.558V80.8413" stroke="black" stroke-width="1.68257" stroke-miterlimit="10" stroke-linecap="round" stroke-linejoin="round"/>
<path d="M45.2446 24.937V22.5433V8.95324C45.2446 4.55193 48.7966 1 53.1979 1H226.471C230.872 1 234.424 4.55193 234.424 8.95324V173.809" stroke="black" stroke-width="1.68257" stroke-miterlimit="10" stroke-linecap="round" stroke-linejoin="round"/>
<path d="M234.424 8.95324V16.8293H45.2446V8.95324C45.2446 4.55193 48.7966 1 53.1979 1H226.471C230.872 1 234.424 4.55193 234.424 8.95324Z" fill="#85E25A"/>
<path d="M234.424 8.95324V16.8293H45.2446V8.95324C45.2446 4.55193 48.7966 1 53.1979 1H226.471C230.872 1 234.424 4.55193 234.424 8.95324Z" stroke="black" stroke-width="1.68257" stroke-miterlimit="10" stroke-linecap="round" stroke-linejoin="round"/>
<path d="M210.642 8.7988C210.642 10.3431 209.406 11.5786 207.862 11.5786C206.318 11.5786 205.082 10.3431 205.082 8.7988C205.082 7.25448 206.318 6.01904 207.862 6.01904C209.406 6.01904 210.642 7.25448 210.642 8.7988Z" fill="white"/>
<path d="M227.861 8.7988C227.861 10.3431 226.625 11.5786 225.081 11.5786C223.537 11.5786 222.301 10.3431 222.301 8.7988C222.301 7.25448 223.537 6.01904 225.081 6.01904C226.625 6.01904 227.861 7.25448 227.861 8.7988Z" fill="black"/>
<path d="M193.422 8.7988C193.422 10.3431 192.187 11.5786 190.642 11.5786C189.098 11.5786 187.863 10.3431 187.863 8.7988C187.863 7.25448 189.098 6.01904 190.642 6.01904C192.187 6.01904 193.422 7.25448 193.422 8.7988Z" fill="white"/>
<path d="M90.802 30.651H12.5822C9.10749 30.651 6.25049 33.508 6.25049 36.9827V73.197C6.25049 76.6717 9.10749 79.5287 12.5822 79.5287H82.6943L92.0375 92.5782C93.1957 94.1998 95.1261 95.2036 97.1337 95.2036V36.9827C97.1337 33.508 94.2767 30.651 90.802 30.651ZM29.8014 57.4449C28.257 57.4449 27.0216 56.2095 27.0216 54.6652C27.0216 53.1209 28.257 51.8854 29.8014 51.8854C31.3457 51.8854 32.5811 53.1209 32.5811 54.6652C32.5811 56.2095 31.3457 57.4449 29.8014 57.4449ZM50.2636 57.4449C48.7193 57.4449 47.4839 56.2095 47.4839 54.6652C47.4839 53.1209 48.7193 51.8854 50.2636 51.8854C51.8079 51.8854 53.0434 53.1209 53.0434 54.6652C52.9662 56.2095 51.7307 57.4449 50.2636 57.4449ZM70.6487 57.4449C69.1043 57.4449 67.8688 56.2095 67.8688 54.6652C67.8688 53.1209 69.1043 51.8854 70.6487 51.8854C72.193 51.8854 73.4284 53.1209 73.4284 54.6652C73.3512 56.2095 72.1158 57.4449 70.6487 57.4449Z" fill="#85E25A"/>
<path d="M85.5515 24.937H7.33172C3.857 24.937 1 27.794 1 31.2687V67.483C1 70.9577 3.857 73.8147 7.33172 73.8147H77.4438L86.787 86.8642C87.9452 88.4858 89.8756 89.4896 91.8832 89.4896V31.2687C91.8832 27.7168 89.0262 24.937 85.5515 24.937ZM24.5509 51.6537C23.0066 51.6537 21.7711 50.4183 21.7711 48.874C21.7711 47.3296 23.0066 46.0942 24.5509 46.0942C26.0952 46.0942 27.3307 47.3296 27.3307 48.874C27.3307 50.4183 26.0952 51.6537 24.5509 51.6537ZM45.0131 51.6537C43.4688 51.6537 42.2333 50.4183 42.2333 48.874C42.2333 47.3296 43.4688 46.0942 45.0131 46.0942C46.5574 46.0942 47.7929 47.3296 47.7929 48.874C47.7157 50.4183 46.4802 51.6537 45.0131 51.6537ZM65.3982 51.6537C63.8538 51.6537 62.6184 50.4183 62.6184 48.874C62.6184 47.3296 63.8538 46.0942 65.3982 46.0942C66.9425 46.0942 68.1779 47.3296 68.1779 48.874C68.1779 50.4183 66.9425 51.6537 65.3982 51.6537Z" stroke="black" stroke-width="1.68257" stroke-miterlimit="10" stroke-linecap="round" stroke-linejoin="round"/>
<path d="M207.784 41.9244C207.784 43.4688 206.549 44.7042 205.005 44.7042C203.46 44.7042 202.225 43.4688 202.225 41.9244C202.225 40.3801 203.46 39.1447 205.005 39.1447C206.549 39.1447 207.784 40.3801 207.784 41.9244Z" fill="#85E25A"/>
<path d="M228.169 41.9244C228.169 43.4688 226.934 44.7042 225.389 44.7042C223.845 44.7042 222.61 43.4688 222.61 41.9244C222.61 40.3801 223.845 39.1447 225.389 39.1447C226.934 39.1447 228.169 40.3801 228.169 41.9244Z" fill="#85E25A"/>
<path d="M248.554 41.9244C248.554 43.4688 247.319 44.7042 245.774 44.7042C244.23 44.7042 242.995 43.4688 242.995 41.9244C242.995 40.3801 244.23 39.1447 245.774 39.1447C247.319 39.1447 248.554 40.3801 248.554 41.9244Z" fill="#85E25A"/>
<path d="M207.784 60.2246C207.784 61.7689 206.549 63.0044 205.005 63.0044C203.46 63.0044 202.225 61.7689 202.225 60.2246C202.225 58.6803 203.46 57.4448 205.005 57.4448C206.549 57.4448 207.784 58.6803 207.784 60.2246Z" fill="#85E25A"/>
<path d="M228.169 60.2246C228.169 61.7689 226.934 63.0044 225.389 63.0044C223.845 63.0044 222.61 61.7689 222.61 60.2246C222.61 58.6803 223.845 57.4448 225.389 57.4448C226.934 57.4448 228.169 58.6803 228.169 60.2246Z" fill="#85E25A"/>
<path d="M248.554 60.2246C248.554 61.7689 247.319 63.0044 245.774 63.0044C244.23 63.0044 242.995 61.7689 242.995 60.2246C242.995 58.6803 244.23 57.4448 245.774 57.4448C247.319 57.4448 248.554 58.6803 248.554 60.2246Z" fill="#85E25A"/>
<path d="M207.784 78.4476C207.784 79.9919 206.549 81.2274 205.005 81.2274C203.46 81.2274 202.225 79.9919 202.225 78.4476C202.225 76.9033 203.46 75.6678 205.005 75.6678C206.549 75.7451 207.784 76.9805 207.784 78.4476Z" fill="#85E25A"/>
<path d="M228.169 78.4476C228.169 79.9919 226.934 81.2274 225.389 81.2274C223.845 81.2274 222.61 79.9919 222.61 78.4476C222.61 76.9033 223.845 75.6678 225.389 75.6678C226.934 75.7451 228.169 76.9805 228.169 78.4476Z" fill="#85E25A"/>
<path d="M248.554 78.4476C248.554 79.9919 247.319 81.2274 245.774 81.2274C244.23 81.2274 242.995 79.9919 242.995 78.4476C242.995 76.9033 244.23 75.6678 245.774 75.6678C247.319 75.7451 248.554 76.9805 248.554 78.4476Z" fill="#85E25A"/>
<path d="M79.297 120.299C79.297 120.299 71.1121 96.7478 71.1121 94.2769C71.1121 90.9566 75.8223 88.949 78.7565 90.4933C82.9261 92.8098 89.4123 121.766 89.4123 121.766L79.297 120.299Z" fill="white"/>
<path d="M79.297 120.299C79.297 120.299 71.1121 96.7478 71.1121 94.2769C71.1121 90.9566 75.8223 88.949 78.7565 90.4933C82.9261 92.8098 89.4123 121.766 89.4123 121.766L79.297 120.299Z" stroke="black" stroke-width="1.68257" stroke-miterlimit="10" stroke-linecap="round" stroke-linejoin="round"/>
<path d="M97.1339 128.484C87.0186 136.823 74.4323 137.827 69.1817 137.749C67.174 127.634 65.7842 119.604 65.7842 119.604L90.6477 114.199C90.5705 114.199 93.2731 119.913 97.1339 128.484Z" fill="white"/>
<path d="M97.1339 128.484C87.0186 136.823 74.4323 137.827 69.1817 137.749C67.174 127.634 65.7842 119.604 65.7842 119.604L90.6477 114.199C90.5705 114.199 93.2731 119.913 97.1339 128.484Z" stroke="black" stroke-width="1.68257" stroke-miterlimit="10" stroke-linecap="round" stroke-linejoin="round"/>
<path d="M67.5601 113.349C67.5601 113.349 68.4094 109.797 72.2702 108.639C76.131 107.481 79.683 114.816 80.5323 118.909C81.3817 122.924 80.6868 126.476 76.9804 126.553C73.1968 126.63 72.193 122.152 71.4209 119.527C70.6487 116.824 67.5601 113.349 67.5601 113.349Z" fill="white"/>
<path d="M67.5601 113.349C67.5601 113.349 68.4094 109.797 72.2702 108.639C76.131 107.481 79.683 114.816 80.5323 118.909C81.3817 122.924 80.6868 126.476 76.9804 126.553C73.1968 126.63 72.193 122.152 71.4209 119.527C70.6487 116.824 67.5601 113.349 67.5601 113.349Z" stroke="black" stroke-width="1.68257" stroke-miterlimit="10" stroke-linecap="round" stroke-linejoin="round"/>
<path d="M158.907 145.625L121.843 179.909L119.681 182.612C116.747 185.623 110.724 189.947 100.222 189.639C84.5475 189.253 77.6753 175.662 73.7373 159.138L81.2273 153.27C85.4741 144.544 91.9603 137.981 99.2186 133.039C120.762 118.523 149.486 118.445 149.486 118.445L158.907 145.625Z" fill="#1F1F1F"/>
<path d="M158.907 145.625L121.843 179.909L119.681 182.612C116.747 185.623 110.724 189.947 100.222 189.639C84.5475 189.253 77.6753 175.662 73.7373 159.138L81.2273 153.27C85.4741 144.544 91.9603 137.981 99.2186 133.039C120.762 118.523 149.486 118.445 149.486 118.445L158.907 145.625Z" stroke="black" stroke-width="1.68257" stroke-miterlimit="10" stroke-linecap="round" stroke-linejoin="round"/>
<path d="M119.681 182.612C116.747 185.623 110.724 189.947 100.222 189.639C84.5476 189.253 77.6754 175.663 73.7373 159.138C73.6601 158.829 73.5829 158.521 73.5057 158.212C73.1968 156.899 72.888 155.509 72.5791 154.119C72.4247 153.347 72.2702 152.575 72.0386 151.803C71.8842 151.185 71.7297 150.567 71.6525 149.95C71.4981 149.255 71.3437 148.56 71.1892 147.942C70.8804 146.629 70.6487 145.317 70.4171 144.081C70.3399 143.695 70.2626 143.232 70.1854 142.846C70.1854 142.691 70.1082 142.46 70.1082 142.305C70.031 142.074 70.031 141.765 69.9537 141.533C69.8765 141.07 69.7221 140.529 69.6449 140.066C69.5677 139.68 69.4904 139.371 69.4132 139.062C69.336 138.676 69.2588 138.213 69.1816 137.827C69.1044 137.441 69.0272 137.132 68.9499 136.746C68.8727 136.514 68.8727 136.205 68.7955 135.973C68.7955 135.896 68.7955 135.819 68.7183 135.742C68.6411 135.51 68.6411 135.279 68.5639 135.047C68.5639 135.047 68.5639 135.047 68.5639 134.97C68.4866 134.661 68.4866 134.352 68.4094 134.043C68.3322 133.811 68.3322 133.503 68.255 133.271C68.1778 132.962 68.1778 132.653 68.1006 132.422C73.6601 132.73 83.2349 131.495 94.4312 122.461C94.5084 122.615 94.5856 122.77 94.6629 122.924C94.7401 123.156 94.8945 123.387 94.9717 123.619C95.049 123.773 95.1262 124.005 95.2034 124.159C95.8211 125.472 96.4388 126.939 97.1338 128.484C97.7515 129.951 98.4465 131.495 99.2186 133.116C105.319 147.015 113.581 166.165 119.681 182.612Z" fill="#1F1F1F"/>
<path d="M119.681 182.612C116.747 185.623 110.724 189.948 100.222 189.639C84.5475 189.253 77.6753 175.663 73.7373 159.138C73.6601 158.829 73.5829 158.521 73.5057 158.212C73.1968 156.899 72.8879 155.509 72.5791 154.119C72.4246 153.347 72.2702 152.575 72.0385 151.803C71.8841 151.185 71.7297 150.567 71.6525 149.95C71.498 149.255 71.3436 148.56 71.1892 147.942C70.8803 146.629 70.6487 145.317 70.417 144.081C70.3398 143.695 70.2625 143.232 70.1853 142.846C70.1853 142.691 70.1081 142.46 70.1081 142.305C70.0309 142.074 70.0309 141.765 69.9537 141.533C69.8765 141.07 69.7221 140.529 69.6449 140.066C69.5676 139.68 69.4904 139.371 69.4132 139.062C69.336 138.676 69.2587 138.213 69.1815 137.827C68.7955 135.974 68.4866 134.198 68.1777 132.499C73.7373 132.808 83.3121 131.572 94.5084 122.538C95.821 125.472 97.4426 129.101 99.2958 133.117C101.381 137.827 103.697 143.155 106.091 148.714" stroke="black" stroke-width="1.68257" stroke-miterlimit="10" stroke-linecap="round" stroke-linejoin="round"/>
<path d="M97.1338 128.484C87.0185 136.823 74.4323 137.827 69.1816 137.75C69.1044 137.363 69.0272 137.055 68.9499 136.669C68.8727 136.437 68.8727 136.128 68.7955 135.896C68.7955 135.819 68.7955 135.742 68.7183 135.665C68.6411 135.433 68.6411 135.201 68.5639 134.97C68.5639 134.97 68.5639 134.97 68.5639 134.893C68.4866 134.584 68.4866 134.275 68.4094 133.966C68.3322 133.734 68.3322 133.425 68.255 133.194C68.1778 132.885 68.1778 132.576 68.1006 132.344C73.6601 132.653 83.2349 131.418 94.4312 122.384C94.5084 122.538 94.5856 122.692 94.6629 122.847C94.7401 123.078 94.8945 123.31 94.9717 123.542C95.049 123.696 95.1262 123.928 95.2034 124.082C95.7439 125.549 96.4388 126.939 97.1338 128.484Z" fill="#85E25A"/>
<path d="M97.1338 128.484C87.0185 136.823 74.4323 137.827 69.1816 137.75C69.1044 137.363 69.0272 137.055 68.9499 136.669C68.8727 136.437 68.8727 136.128 68.7955 135.896C68.7955 135.819 68.7955 135.742 68.7183 135.665C68.6411 135.433 68.6411 135.201 68.5639 134.97C68.5639 134.97 68.5639 134.97 68.5639 134.893C68.4866 134.584 68.4866 134.275 68.4094 133.966C68.3322 133.734 68.3322 133.425 68.255 133.194C68.1778 132.885 68.1778 132.576 68.1006 132.344C73.6601 132.653 83.2349 131.418 94.4312 122.384C94.5084 122.538 94.5856 122.692 94.6629 122.847C94.7401 123.078 94.8945 123.31 94.9717 123.542C95.049 123.696 95.1262 123.928 95.2034 124.082C95.7439 125.549 96.4388 126.939 97.1338 128.484Z" stroke="black" stroke-width="1.68257" stroke-miterlimit="10" stroke-linecap="round" stroke-linejoin="round"/>
<path d="M63.0042 115.511C62.232 118.214 64.8573 128.406 70.7258 127.171C76.5942 125.935 71.4207 114.353 68.1776 112.654C66.2472 111.651 63.4675 113.89 63.0042 115.511Z" fill="white"/>
<path d="M63.0042 115.511C62.232 118.214 64.8573 128.406 70.7258 127.171C76.5942 125.935 71.4207 114.353 68.1776 112.654C66.2472 111.651 63.4675 113.89 63.0042 115.511Z" stroke="black" stroke-width="1.68257" stroke-miterlimit="10" stroke-linecap="round" stroke-linejoin="round"/>
<path d="M91.1109 115.434C91.1109 115.434 90.2615 110.415 87.1729 110.029C84.0842 109.643 73.5057 115.974 74.1234 118.6C74.8183 121.225 76.9031 123.464 80.7639 122.306C84.7792 121.071 91.1109 115.434 91.1109 115.434Z" fill="white"/>
<path d="M91.1109 115.434C91.1109 115.434 90.2615 110.415 87.1729 110.029C84.0842 109.643 73.5057 115.974 74.1234 118.6C74.8183 121.225 76.9031 123.464 80.7639 122.306C82.6943 121.766 85.1653 120.067 87.2501 118.523" stroke="black" stroke-width="1.68257" stroke-miterlimit="10" stroke-linecap="round" stroke-linejoin="round"/>
<path d="M149.409 118.523C149.409 118.523 177.979 113.967 195.507 135.279C213.035 156.59 214.579 185.392 214.965 193.5H110.955C110.955 193.5 106.245 175.431 113.581 155.123C120.916 134.815 149.409 118.523 149.409 118.523Z" fill="#1F1F1F"/>
<path d="M149.409 118.523C149.409 118.523 177.979 113.967 195.507 135.279C213.035 156.59 214.579 185.392 214.965 193.5H110.955C110.955 193.5 106.245 175.431 113.581 155.123" stroke="black" stroke-width="1.68257" stroke-miterlimit="10" stroke-linecap="round" stroke-linejoin="round"/>
<path d="M185.083 156.05C185.083 156.05 188.094 169.563 187.013 194.194" stroke="black" stroke-width="1.68257" stroke-miterlimit="10" stroke-linecap="round" stroke-linejoin="round"/>
<path d="M158.907 107.712V121.92C158.907 121.92 156.358 126.553 149.795 126.553C143.309 126.553 140.684 121.92 140.684 121.92V107.712H158.907Z" fill="#85E25A"/>
<path d="M158.907 107.712V121.92C158.907 121.92 156.358 126.553 149.795 126.553C143.309 126.553 140.684 121.92 140.684 121.92V107.712H158.907Z" stroke="black" stroke-width="1.68257" stroke-miterlimit="10" stroke-linecap="round" stroke-linejoin="round"/>
<path d="M157.44 106.245V118.291C157.44 118.291 155.277 122.152 149.718 122.152C144.158 122.152 141.996 118.291 141.996 118.291V106.245H157.44Z" fill="white"/>
<path d="M157.44 106.245V118.291C157.44 118.291 155.277 122.152 149.718 122.152C144.158 122.152 141.996 118.291 141.996 118.291V106.245H157.44Z" stroke="black" stroke-width="1.68257" stroke-miterlimit="10" stroke-linecap="round" stroke-linejoin="round"/>
<path d="M182.689 129.873C176.28 137.132 162.381 137.441 157.13 127.248C151.957 117.056 157.517 93.3503 157.517 93.3503L137.363 93.5047C137.363 93.5047 148.251 108.33 142.073 123.387C137.363 134.893 127.016 138.753 120.376 134.429C118.291 133.039 116.592 130.877 115.511 127.943C110.955 115.357 122.924 109.72 127.325 105.087C131.726 100.454 129.487 90.6477 129.178 82.3856C128.947 74.1235 134.197 58.6803 148.328 58.0626C161.3 57.4449 171.261 69.645 169.871 87.173C168.481 104.778 174.118 107.635 177.67 110.415C181.145 113.04 189.098 122.538 182.689 129.873Z" fill="#1F1F1F"/>
<path d="M130.8 98.3693C131.726 107.326 121.997 111.959 118.986 116.283C115.974 120.685 115.434 127.866 120.376 134.352C118.291 132.962 116.592 130.8 115.511 127.866C110.955 115.28 122.924 109.643 127.325 105.01C131.726 100.377 129.487 90.5705 129.178 82.3084C128.947 74.0463 134.197 58.6031 148.328 57.9854C128.869 61.9234 129.873 89.335 130.8 98.3693Z" fill="white"/>
<path d="M148.328 57.9082C134.197 58.6031 128.947 73.9691 129.178 82.2312C129.41 90.4933 131.726 100.3 127.325 104.933C122.924 109.566 111.033 115.202 115.511 127.789C120.067 140.375 135.896 138.367 142.073 123.233C148.251 108.176 137.363 93.3503 137.363 93.3503L157.517 93.1959C157.517 93.1959 151.957 116.901 157.208 127.094C162.458 137.286 176.357 136.977 182.766 129.719C189.175 122.461 181.222 112.886 177.747 110.106C174.195 107.326 168.558 104.469 169.948 86.8642C171.261 69.4906 161.377 57.2904 148.328 57.9082Z" stroke="black" stroke-width="1.68257" stroke-miterlimit="10" stroke-linecap="round" stroke-linejoin="round"/>
<path d="M164.93 91.8832C164.93 102.848 157.98 111.187 149.409 111.187C140.838 111.187 133.889 102.848 133.889 91.8832C133.889 80.9186 140.838 70.34 149.409 70.34C157.98 70.34 164.93 80.9186 164.93 91.8832Z" fill="white"/>
<path d="M164.93 91.8832C164.93 102.848 157.98 111.187 149.409 111.187C140.838 111.187 133.889 102.848 133.889 91.8832C133.889 80.9186 140.838 70.34 149.409 70.34C157.98 70.34 164.93 80.9186 164.93 91.8832Z" stroke="black" stroke-width="1.68257" stroke-miterlimit="10" stroke-linecap="round" stroke-linejoin="round"/>
<path d="M143.618 91.2655H141.919V88.6402C141.919 88.1769 142.305 87.7908 142.769 87.7908C143.232 87.7908 143.618 88.1769 143.618 88.6402V91.2655Z" fill="#1F1F1F"/>
<path d="M153.27 84.1616C153.347 85.1654 158.366 85.7059 158.52 84.6249C158.675 83.4667 153.192 82.7717 153.27 84.1616Z" fill="#1F1F1F"/>
<path d="M155.663 91.2655H153.965V88.6402C153.965 88.1769 154.351 87.7908 154.814 87.7908C155.277 87.7908 155.663 88.1769 155.663 88.6402V91.2655Z" fill="#1F1F1F"/>
<path d="M153.733 91.2657C153.733 91.2657 154.66 90.5707 155.895 91.2657" stroke="black" stroke-width="1.68257" stroke-miterlimit="10" stroke-linecap="round" stroke-linejoin="round"/>
<path d="M144.313 83.9301C144.313 84.9339 139.371 85.8605 139.062 84.7795C138.831 83.6985 144.313 82.6174 144.313 83.9301Z" stroke="black" stroke-width="0.528482" stroke-miterlimit="10"/>
<path d="M143.849 91.2657C143.849 91.2657 142.923 90.5707 141.687 91.2657" stroke="black" stroke-width="1.68257" stroke-miterlimit="10" stroke-linecap="round" stroke-linejoin="round"/>
<path d="M148.096 96.2073C148.096 96.2073 147.71 97.9832 149.486 97.8288C151.262 97.6744 151.262 95.744 150.027 95.6667" stroke="black" stroke-width="1.68257" stroke-miterlimit="10" stroke-linecap="round" stroke-linejoin="round"/>
<path d="M154.505 71.5755C154.505 71.5755 148.405 88.8718 132.962 90.725C132.962 90.725 129.101 65.0893 148.328 63.6994C167.555 62.3095 166.242 90.4934 166.242 90.4934C166.242 90.4934 160.683 89.8757 154.505 71.5755Z" fill="#1F1F1F"/>
<path d="M154.505 71.5755C154.505 71.5755 148.405 88.8718 132.962 90.725C132.962 90.725 129.101 65.0893 148.328 63.6994C167.555 62.3095 166.242 90.4934 166.242 90.4934C166.242 90.4934 160.683 89.8757 154.505 71.5755Z" stroke="black" stroke-width="1.68257" stroke-miterlimit="10" stroke-linecap="round" stroke-linejoin="round"/>
<path d="M163.462 90.4933C163.462 90.4933 164.852 88.1768 168.79 89.335C172.728 90.4933 171.647 100.609 163.462 98.4465V90.4933Z" fill="white"/>
<path d="M164.466 89.5666C165.316 89.1033 166.705 88.7173 168.79 89.335C172.651 90.4932 171.647 100.222 164.003 98.6009" stroke="black" stroke-width="1.68257" stroke-miterlimit="10" stroke-linecap="round" stroke-linejoin="round"/>
<path d="M165.702 92.8099C165.702 92.8099 167.941 91.2655 169.254 93.8909" stroke="black" stroke-width="1.68257" stroke-miterlimit="10" stroke-linecap="round" stroke-linejoin="round"/>
<path d="M167.092 95.2806V92.3464" stroke="black" stroke-width="1.68257" stroke-miterlimit="10" stroke-linecap="round" stroke-linejoin="round"/>
<path d="M154.196 104.469C153.733 104.624 153.193 104.624 152.652 104.624C151.031 104.547 149.332 103.775 149.409 102.539C149.563 100.531 153.193 101.149 154.196 99.6821C155.2 98.1378 157.131 97.8289 157.439 99.6821V99.7593C157.826 101.458 157.053 103.62 154.196 104.469Z" fill="#1F1F1F"/>
<path d="M154.196 104.469C153.733 104.624 153.193 104.624 152.652 104.624C151.031 104.547 149.332 103.775 149.409 102.539C149.563 100.531 153.193 101.149 154.196 99.6821C155.2 98.1378 157.131 97.8289 157.439 99.6821V99.7593C157.826 101.458 157.053 103.62 154.196 104.469Z" stroke="black" stroke-width="1.68257" stroke-miterlimit="10" stroke-linecap="round" stroke-linejoin="round"/>
<path d="M154.196 104.47C153.733 104.624 153.192 104.624 152.652 104.624C152.42 103.157 152.266 101.381 153.733 100.918C154.891 100.532 155.509 98.91 157.517 99.6821C157.825 101.458 157.053 103.62 154.196 104.47Z" fill="white"/>
<path d="M135.201 90.4933C135.201 90.4933 133.811 88.1768 129.873 89.335C125.935 90.4933 127.016 100.609 135.201 98.4465V90.4933Z" fill="white"/>
<path d="M134.969 90.4933C134.969 90.4933 133.58 88.1768 129.642 89.335C125.704 90.4933 126.785 100.609 134.969 98.4465" stroke="black" stroke-width="1.68257" stroke-miterlimit="10" stroke-linecap="round" stroke-linejoin="round"/>
<path d="M132.962 92.8099C132.962 92.8099 130.723 91.2655 129.41 93.8909" stroke="black" stroke-width="1.68257" stroke-miterlimit="10" stroke-linecap="round" stroke-linejoin="round"/>
<path d="M131.572 95.2806V92.3464" stroke="black" stroke-width="1.68257" stroke-miterlimit="10" stroke-linecap="round" stroke-linejoin="round"/>
<path d="M250.176 254.346H121.689C118.677 254.346 116.283 251.952 116.283 248.941V182.689C116.283 179.678 118.677 177.284 121.689 177.284H250.176C253.187 177.284 255.581 179.678 255.581 182.689V248.941C255.658 251.952 253.187 254.346 250.176 254.346Z" fill="#85E25A"/>
<path d="M243.921 250.948H115.434C112.423 250.948 110.029 248.554 110.029 245.543V179.292C110.029 176.28 112.423 173.887 115.434 173.887H234.424H243.921C246.933 173.887 249.326 176.28 249.326 179.292V245.543C249.326 248.554 246.933 250.948 243.921 250.948Z" stroke="black" stroke-width="1.68257" stroke-miterlimit="10" stroke-linecap="round" stroke-linejoin="round"/>
<path d="M144.622 198.364H227.397" stroke="white" stroke-width="1.68257" stroke-miterlimit="10" stroke-linecap="round" stroke-linejoin="round"/>
<path d="M144.622 217.591H227.397" stroke="white" stroke-width="1.68257" stroke-miterlimit="10" stroke-linecap="round" stroke-linejoin="round"/>
<path d="M144.622 236.74H227.397" stroke="white" stroke-width="1.68257" stroke-miterlimit="10" stroke-linecap="round" stroke-linejoin="round"/>
</svg>
