<svg width="283" height="81" viewBox="0 0 283 81" fill="none" xmlns="http://www.w3.org/2000/svg">
<path d="M29.327 8.78444V60H16.7939V8.78444H29.327ZM0.547302 14.3547V2.74998H45.5737V14.3547H0.547302Z" fill="#85E25A"/>
<path d="M73.6185 21.3176V32.5355H69.8276C66.4235 32.5355 63.7415 33.3607 61.7816 35.0111C59.8733 36.6616 58.9191 39.3952 58.9191 43.2118V60H47.0049V21.3949H58.2228L59.1512 29.673H58.0681C58.5839 27.0941 59.7443 24.9795 61.5495 23.329C63.4063 21.627 65.9078 20.776 69.0539 20.776C69.776 20.776 70.4981 20.8276 71.2201 20.9307C71.9938 20.9823 72.7932 21.1112 73.6185 21.3176Z" fill="#85E25A"/>
<path d="M89.8143 61.0057C85.7398 61.0057 82.4904 59.8969 80.0663 57.6791C77.6938 55.4097 76.5075 52.3925 76.5075 48.6274C76.5075 45.0686 77.7196 42.2319 80.1437 40.1172C82.6194 38.0026 86.1782 36.7647 90.8201 36.4037L101.651 35.5527V34.9338C101.651 33.6444 101.393 32.587 100.877 31.7618C100.362 30.885 99.6139 30.2403 98.6339 29.8277C97.7055 29.3635 96.5193 29.1314 95.0751 29.1314C92.5479 29.1314 90.6137 29.5956 89.2728 30.524C87.9833 31.4524 87.3386 32.7933 87.3386 34.547H77.4359C77.4359 31.6071 78.1838 29.054 79.6795 26.8878C81.1752 24.7216 83.2899 23.0454 86.0234 21.8591C88.8086 20.6728 92.0321 20.0797 95.694 20.0797C99.4591 20.0797 102.631 20.7502 105.21 22.0912C107.84 23.4322 109.826 25.3921 111.167 27.9709C112.56 30.5498 113.256 33.6959 113.256 37.4095V60H102.734L101.961 54.8939C101.342 56.6475 99.8717 58.1175 97.5508 59.3037C95.2814 60.4384 92.7026 61.0057 89.8143 61.0057ZM93.992 52.1861C96.2614 52.1861 98.1181 51.6446 99.5623 50.5615C101.006 49.4268 101.729 47.7506 101.729 45.5328V43.4439L95.694 43.9855C93.1152 44.1918 91.2842 44.6302 90.2011 45.3007C89.1696 45.9196 88.6538 46.848 88.6538 48.0858C88.6538 49.4784 89.0922 50.5099 89.969 51.1804C90.8458 51.8509 92.1868 52.1861 93.992 52.1861Z" fill="#85E25A"/>
<path d="M133.019 60H121.801V1.66687H133.715V25.8047C134.902 24.0511 136.655 22.6585 138.976 21.627C141.349 20.5439 143.927 20.0023 146.713 20.0023C150.323 20.0023 153.443 20.8792 156.074 22.6328C158.756 24.3864 160.819 26.8362 162.263 29.9824C163.707 33.1286 164.429 36.8163 164.429 41.0456C164.429 45.017 163.63 48.5242 162.031 51.5672C160.484 54.5587 158.292 56.8796 155.455 58.5301C152.67 60.1805 149.446 61.0057 145.784 61.0057C143.102 61.0057 140.652 60.4642 138.435 59.3811C136.268 58.2464 134.669 56.8023 133.638 55.0486L133.019 60ZM133.793 40.4267C133.793 42.335 134.179 44.037 134.953 45.5328C135.778 46.9769 136.887 48.1116 138.28 48.9368C139.724 49.7105 141.374 50.0973 143.231 50.0973C145.139 50.0973 146.764 49.6847 148.105 48.8595C149.498 48.0342 150.555 46.8995 151.277 45.4554C152.051 44.0113 152.438 42.335 152.438 40.4267C152.438 38.5183 152.051 36.8421 151.277 35.398C150.555 33.9538 149.498 32.8191 148.105 31.9939C146.764 31.1687 145.139 30.7561 143.231 30.7561C141.374 30.7561 139.724 31.1687 138.28 31.9939C136.887 32.7676 135.778 33.8765 134.953 35.3206C134.179 36.7647 133.793 38.4668 133.793 40.4267Z" fill="#85E25A"/>
<path d="M182.969 61.0057C178.895 61.0057 175.646 59.8969 173.222 57.6791C170.849 55.4097 169.663 52.3925 169.663 48.6274C169.663 45.0686 170.875 42.2319 173.299 40.1172C175.775 38.0026 179.333 36.7647 183.975 36.4037L194.806 35.5527V34.9338C194.806 33.6444 194.548 32.587 194.033 31.7618C193.517 30.885 192.769 30.2403 191.789 29.8277C190.861 29.3635 189.674 29.1314 188.23 29.1314C185.703 29.1314 183.769 29.5956 182.428 30.524C181.139 31.4524 180.494 32.7933 180.494 34.547H170.591C170.591 31.6071 171.339 29.054 172.835 26.8878C174.33 24.7216 176.445 23.0454 179.179 21.8591C181.964 20.6728 185.187 20.0797 188.849 20.0797C192.614 20.0797 195.786 20.7502 198.365 22.0912C200.996 23.4322 202.981 25.3921 204.322 27.9709C205.715 30.5498 206.411 33.6959 206.411 37.4095V60H195.889L195.116 54.8939C194.497 56.6475 193.027 58.1175 190.706 59.3037C188.437 60.4384 185.858 61.0057 182.969 61.0057ZM187.147 52.1861C189.417 52.1861 191.273 51.6446 192.717 50.5615C194.162 49.4268 194.884 47.7506 194.884 45.5328V43.4439L188.849 43.9855C186.27 44.1918 184.439 44.6302 183.356 45.3007C182.325 45.9196 181.809 46.848 181.809 48.0858C181.809 49.4784 182.247 50.5099 183.124 51.1804C184.001 51.8509 185.342 52.1861 187.147 52.1861Z" fill="#85E25A"/>
<path d="M206.291 78.877L208.226 68.3554C208.793 68.5617 209.283 68.6907 209.695 68.7422C210.108 68.7938 210.598 68.8196 211.165 68.8196C212.661 68.8196 213.667 68.407 214.183 67.5818C214.698 66.7565 214.956 65.4929 214.956 63.7909V21.3176H226.87V65.3382C226.87 69.6706 225.607 73.152 223.08 75.7824C220.552 78.4644 216.968 79.8054 212.326 79.8054C211.501 79.8054 210.65 79.7538 209.773 79.6507C208.844 79.5475 207.684 79.2897 206.291 78.877ZM220.913 15.2831C219.005 15.2831 217.38 14.6384 216.039 13.349C214.75 12.008 214.105 10.3833 214.105 8.47498C214.105 6.56665 214.75 4.96777 216.039 3.67836C217.38 2.38894 219.005 1.74423 220.913 1.74423C222.77 1.74423 224.343 2.38894 225.633 3.67836C226.974 4.96777 227.644 6.56665 227.644 8.47498C227.644 10.3833 226.974 12.008 225.633 13.349C224.343 14.6384 222.77 15.2831 220.913 15.2831Z" fill="#85E25A"/>
<path d="M233.72 40.5814C233.72 36.5069 234.622 32.9481 236.427 29.9051C238.284 26.8105 240.811 24.4121 244.009 22.7101C247.259 21.0081 250.946 20.1571 255.072 20.1571C259.199 20.1571 262.86 21.0081 266.058 22.7101C269.256 24.4121 271.757 26.8105 273.563 29.9051C275.419 32.9481 276.348 36.5069 276.348 40.5814C276.348 44.656 275.419 48.2148 273.563 51.2578C271.757 54.3008 269.256 56.6733 266.058 58.3753C262.86 60.0774 259.199 60.9284 255.072 60.9284C250.946 60.9284 247.259 60.0774 244.009 58.3753C240.811 56.6733 238.284 54.3008 236.427 51.2578C234.622 48.2148 233.72 44.656 233.72 40.5814ZM245.711 40.504C245.711 42.464 246.098 44.1918 246.872 45.6875C247.697 47.1316 248.806 48.2663 250.198 49.0916C251.591 49.8652 253.216 50.252 255.072 50.252C256.929 50.252 258.554 49.8652 259.946 49.0916C261.339 48.2663 262.422 47.1316 263.196 45.6875C263.969 44.1918 264.356 42.464 264.356 40.504C264.356 38.5441 263.969 36.8421 263.196 35.398C262.422 33.9538 261.339 32.8449 259.946 32.0713C258.554 31.246 256.929 30.8334 255.072 30.8334C253.216 30.8334 251.591 31.246 250.198 32.0713C248.806 32.8449 247.697 33.9538 246.872 35.398C246.098 36.8421 245.711 38.5441 245.711 40.504Z" fill="#85E25A"/>
<path fill-rule="evenodd" clip-rule="evenodd" d="M34.327 14.3547V60H21.7939V14.3547H5.5473V2.74998H50.5737V14.3547H34.327ZM20.7939 15.3547H5.5473C4.99502 15.3547 4.5473 14.907 4.5473 14.3547V2.74998C4.5473 2.19769 4.99502 1.74998 5.5473 1.74998H50.5737C51.126 1.74998 51.5737 2.19769 51.5737 2.74998V14.3547C51.5737 14.907 51.126 15.3547 50.5737 15.3547H35.327V60C35.327 60.5523 34.8793 61 34.327 61H21.7939C21.2416 61 20.7939 60.5523 20.7939 60V15.3547ZM78.861 20.3474C79.3062 20.4587 79.6185 20.8587 79.6185 21.3176V32.5355C79.6185 33.0877 79.1707 33.5355 78.6185 33.5355H74.8276C71.5843 33.5355 69.1583 34.3196 67.4309 35.7718C65.8377 37.1529 64.9191 39.5392 64.9191 43.2118V60C64.9191 60.5523 64.4714 61 63.9191 61H52.0049C51.4526 61 51.0049 60.5523 51.0049 60V21.3949C51.0049 20.8426 51.4526 20.3949 52.0049 20.3949H63.2228C63.732 20.3949 64.1599 20.7775 64.2166 21.2835L64.5259 24.0415C64.9306 23.5269 65.38 23.0434 65.8743 22.5914C65.8744 22.5913 65.8741 22.5916 65.8743 22.5914M64.6931 25.5319C64.3776 26.0265 64.1008 26.5487 63.8625 27.0988L63.2228 21.3949H52.0049V60H63.9191V43.2118C63.9191 39.3952 64.8733 36.6616 66.7816 35.0111C68.7415 33.3607 71.4235 32.5355 74.8276 32.5355H78.6185V21.3176C77.7932 21.1112 76.9938 20.9823 76.2201 20.9307C75.4981 20.8276 74.776 20.776 74.0539 20.776C70.9078 20.776 68.4063 21.627 66.5495 23.329C65.8276 23.9891 65.2088 24.7234 64.6931 25.5319ZM78.861 20.3474C77.9967 20.1313 77.1509 19.993 76.3244 19.9355ZM84.3913 58.4169L84.3751 58.4017C81.7758 55.9154 80.5075 52.6216 80.5075 48.6274C80.5075 44.8141 81.8198 41.6897 84.4863 39.3637L84.4942 39.3568C87.1864 37.0572 90.9768 35.7775 95.7417 35.4068M95.7417 35.4068L105.646 34.6286C105.608 33.6204 105.384 32.8585 105.029 32.2918C105.027 32.2879 105.025 32.284 105.022 32.2801C105.02 32.2764 105.018 32.2726 105.016 32.2688C104.614 31.5864 104.037 31.0824 103.246 30.7493C103.226 30.7409 103.206 30.7318 103.187 30.7221C102.441 30.3491 101.421 30.1314 100.075 30.1314C97.6528 30.1314 95.9546 30.5792 94.8495 31.341C93.8559 32.0596 93.3386 33.0799 93.3386 34.547C93.3386 35.0992 92.8909 35.547 92.3386 35.547H82.4359C81.8836 35.547 81.4359 35.0992 81.4359 34.547C81.4359 31.4288 82.2323 28.6721 83.8566 26.3196C85.472 23.98 87.7435 22.1924 90.6253 20.9418L90.6316 20.9391C93.5637 19.6902 96.925 19.0797 100.694 19.0797C104.572 19.0797 107.911 19.7697 110.668 21.2021C113.476 22.6349 115.613 24.7405 117.051 27.5026C118.538 30.2599 119.256 33.5765 119.256 37.4095V60C119.256 60.5523 118.808 61 118.256 61H107.734C107.24 61 106.82 60.6387 106.746 60.1498L106.379 57.7285C105.514 58.6756 104.376 59.4937 103.006 60.1942L102.998 60.1982C100.572 61.4113 97.8362 62.0057 94.8143 62.0057C90.5526 62.0057 87.0413 60.8413 84.3913 58.4169M106.176 56.3922C106.514 55.9182 106.775 55.4188 106.961 54.8939L107.734 60H118.256V37.4095C118.256 33.6959 117.56 30.5498 116.167 27.9709C114.826 25.3921 112.84 23.4322 110.21 22.0912C107.631 20.7502 104.459 20.0797 100.694 20.0797C97.0321 20.0797 93.8086 20.6728 91.0234 21.8591C88.2899 23.0454 86.1752 24.7216 84.6795 26.8878C83.356 28.8046 82.618 31.0244 82.4657 33.547C82.4458 33.8752 82.4359 34.2085 82.4359 34.547H92.3386C92.3386 32.7933 92.9833 31.4524 94.2728 30.524C95.6137 29.5956 97.5479 29.1314 100.075 29.1314C101.519 29.1314 102.706 29.3635 103.634 29.8277C104.614 30.2403 105.362 30.885 105.877 31.7618C106.393 32.587 106.651 33.6444 106.651 34.9338V35.5527L95.8201 36.4037C91.1782 36.7647 87.6194 38.0026 85.1437 40.1172C82.7196 42.2319 81.5075 45.0686 81.5075 48.6274C81.5075 52.3925 82.6938 55.4097 85.0663 57.6791C87.4904 59.8969 90.7398 61.0057 94.8143 61.0057C97.7026 61.0057 100.281 60.4384 102.551 59.3037C104.177 58.4725 105.386 57.502 106.176 56.3922ZM100.694 43.9855C98.1152 44.1918 96.2842 44.6302 95.2011 45.3007C94.1696 45.9196 93.6538 46.848 93.6538 48.0858C93.6538 49.4784 94.0922 50.5099 94.969 51.1804C95.8458 51.8509 97.1868 52.1861 98.992 52.1861C101.261 52.1861 103.118 51.6446 104.562 50.5615C106.006 49.4268 106.729 47.7506 106.729 45.5328V43.4439L100.694 43.9855ZM105.729 44.5377L100.774 44.9823C98.2223 45.1864 96.5961 45.6132 95.7275 46.1509L95.7157 46.1582C94.9959 46.5901 94.6538 47.1867 94.6538 48.0858C94.6538 49.2567 95.0106 49.9533 95.5765 50.386C96.1989 50.862 97.2781 51.1861 98.992 51.1861C101.096 51.1861 102.724 50.687 103.953 49.7682C105.1 48.863 105.729 47.5095 105.729 45.5328V44.5377ZM139.011 60.124C138.949 60.6245 138.523 61 138.019 61H126.801C126.249 61 125.801 60.5523 125.801 60V1.66687C125.801 1.11459 126.249 0.66687 126.801 0.66687H138.715C139.268 0.66687 139.715 1.11459 139.715 1.66687V23.1544C140.791 22.1876 142.079 21.3765 143.565 20.7153C146.076 19.57 148.796 19.0023 151.713 19.0023C155.49 19.0023 158.809 19.9219 161.625 21.7986C164.476 23.6634 166.656 26.2639 168.172 29.5653C169.688 32.868 170.429 36.7036 170.429 41.0456C170.429 45.1524 169.602 48.8226 167.918 52.0292C166.286 55.1824 163.964 57.6443 160.961 59.3924C158.003 61.1445 154.6 62.0057 150.784 62.0057C147.964 62.0057 145.362 61.4351 142.996 60.2797C142.987 60.2755 142.979 60.2713 142.971 60.2669C141.54 59.5174 140.32 58.6285 139.327 57.595L139.011 60.124ZM139.492 56.2747C139.174 55.8844 138.889 55.4757 138.638 55.0486L138.019 60H126.801V1.66687H138.715V25.8047C139.013 25.3648 139.346 24.9475 139.715 24.553C140.817 23.3751 142.237 22.3997 143.976 21.627C146.349 20.5439 148.927 20.0023 151.713 20.0023C155.323 20.0023 158.443 20.8792 161.074 22.6328C163.756 24.3864 165.819 26.8363 167.263 29.9824C168.707 33.1286 169.429 36.8163 169.429 41.0456C169.429 45.017 168.63 48.5242 167.031 51.5672C165.484 54.5587 163.292 56.8796 160.455 58.5301C157.67 60.1805 154.446 61.0057 150.784 61.0057C148.102 61.0057 145.652 60.4642 143.435 59.3811C141.796 58.5227 140.482 57.4873 139.492 56.2747ZM152.581 48.0078L152.595 47.9992C153.823 47.2716 154.747 46.2801 155.383 45.0082C155.387 44.9998 155.391 44.9915 155.396 44.9832C156.08 43.7065 156.438 42.1975 156.438 40.4267C156.438 38.6559 156.08 37.1468 155.396 35.8702C155.391 35.8619 155.387 35.8536 155.383 35.8452C154.747 34.5733 153.823 33.5818 152.595 32.8542L152.581 32.8456C151.428 32.1361 149.994 31.7561 148.231 31.7561C146.528 31.7561 145.052 32.133 143.776 32.8622L143.765 32.8681C142.544 33.5469 141.566 34.5177 140.828 35.8046C140.15 37.0752 139.793 38.605 139.793 40.4267C139.793 42.1884 140.147 43.7233 140.832 45.0547C141.569 46.3375 142.546 47.3354 143.771 48.0654C145.047 48.7448 146.525 49.0973 148.231 49.0973C149.994 49.0973 151.428 48.7173 152.581 48.0078ZM139.953 45.5328C139.179 44.037 138.793 42.335 138.793 40.4267C138.793 38.4668 139.179 36.7647 139.953 35.3206C140.778 33.8765 141.887 32.7676 143.28 31.9939C144.724 31.1687 146.374 30.7561 148.231 30.7561C150.139 30.7561 151.764 31.1687 153.105 31.9939C154.498 32.8191 155.555 33.9538 156.277 35.398C157.051 36.8421 157.438 38.5183 157.438 40.4267C157.438 42.335 157.051 44.0113 156.277 45.4554C155.555 46.8995 154.498 48.0342 153.105 48.8595C151.764 49.6847 150.139 50.0973 148.231 50.0973C146.374 50.0973 144.724 49.7105 143.28 48.9368C141.887 48.1116 140.778 46.9769 139.953 45.5328ZM177.547 58.4169L177.53 58.4017C174.931 55.9154 173.663 52.6216 173.663 48.6274C173.663 44.8141 174.975 41.6897 177.642 39.3637L177.649 39.3568C180.342 37.0571 184.132 35.7774 188.898 35.4067L198.801 34.6286C198.763 33.6204 198.539 32.8585 198.185 32.2918C198.18 32.2842 198.175 32.2766 198.171 32.2688C197.769 31.5864 197.192 31.0824 196.401 30.7493C196.381 30.7409 196.361 30.7318 196.342 30.7221C195.596 30.3491 194.576 30.1314 193.23 30.1314C190.808 30.1314 189.11 30.5791 188.005 31.3407C187.011 32.0594 186.494 33.0798 186.494 34.547C186.494 35.0992 186.046 35.547 185.494 35.547H175.591C175.039 35.547 174.591 35.0992 174.591 34.547C174.591 31.4288 175.387 28.6721 177.012 26.3196C178.627 23.98 180.899 22.1924 183.781 20.9418L183.787 20.9391C186.719 19.6902 190.08 19.0797 193.849 19.0797C197.727 19.0797 201.066 19.7696 203.822 21.2019C206.631 22.6347 208.768 24.7403 210.206 27.5026C211.693 30.2599 212.411 33.5765 212.411 37.4095V60C212.411 60.5523 211.963 61 211.411 61H200.889C200.395 61 199.975 60.6387 199.901 60.1498L199.534 57.7284C198.669 58.6756 197.531 59.4937 196.161 60.1942L196.153 60.1982C193.727 61.4113 190.991 62.0057 187.969 62.0057C183.708 62.0057 180.197 60.8413 177.547 58.4169ZM199.331 56.3922C199.669 55.9182 199.931 55.4188 200.116 54.8939L200.889 60H211.411V37.4095C211.411 33.6959 210.715 30.5498 209.322 27.9709C207.981 25.3921 205.996 23.4322 203.365 22.0912C200.786 20.7502 197.614 20.0797 193.849 20.0797C190.187 20.0797 186.964 20.6728 184.179 21.8591C181.445 23.0454 179.33 24.7216 177.835 26.8878C176.511 28.8046 175.773 31.0244 175.621 33.547C175.601 33.8752 175.591 34.2085 175.591 34.547H185.494C185.494 32.7933 186.139 31.4524 187.428 30.524C188.769 29.5956 190.703 29.1314 193.23 29.1314C194.674 29.1314 195.861 29.3635 196.789 29.8277C197.769 30.2403 198.517 30.885 199.033 31.7618C199.548 32.587 199.806 33.6444 199.806 34.9338V35.5527L188.975 36.4037C184.333 36.7647 180.775 38.0026 178.299 40.1172C175.875 42.2319 174.663 45.0686 174.663 48.6274C174.663 52.3925 175.849 55.4097 178.222 57.6791C180.646 59.8969 183.895 61.0057 187.969 61.0057C190.858 61.0057 193.437 60.4384 195.706 59.3037C197.332 58.4725 198.541 57.502 199.331 56.3922ZM193.849 43.9855C191.27 44.1918 189.439 44.6302 188.356 45.3007C187.325 45.9196 186.809 46.848 186.809 48.0858C186.809 49.4784 187.247 50.5099 188.124 51.1804C189.001 51.8509 190.342 52.1861 192.147 52.1861C194.417 52.1861 196.273 51.6446 197.717 50.5615C199.162 49.4268 199.884 47.7506 199.884 45.5328V43.4439L193.849 43.9855ZM198.884 44.5377L193.929 44.9823C191.377 45.1864 189.751 45.6132 188.883 46.1509L188.871 46.1582C188.151 46.59 187.809 47.1867 187.809 48.0858C187.809 49.2567 188.166 49.9533 188.732 50.386C189.354 50.862 190.433 51.1861 192.147 51.1861C194.251 51.1861 195.879 50.6871 197.108 49.7684C198.255 48.8631 198.884 47.5096 198.884 45.5328V44.5377ZM211.007 79.8358C210.517 79.6906 210.215 79.1991 210.308 78.6963L212.242 68.1746C212.295 67.8852 212.473 67.6339 212.729 67.4877C212.984 67.3414 213.291 67.3151 213.567 67.4156C214.093 67.6067 214.506 67.7108 214.819 67.75C215.179 67.7949 215.626 67.8196 216.165 67.8196C217.513 67.8196 218.086 67.4499 218.335 67.0518C218.702 66.4646 218.956 65.4282 218.956 63.7909V21.3176C218.956 20.7653 219.404 20.3176 219.956 20.3176H231.87C232.423 20.3176 232.87 20.7653 232.87 21.3176V65.3382C232.87 69.8754 231.541 73.6214 228.804 76.4719C226.041 79.4013 222.165 80.8054 217.326 80.8054C216.46 80.8054 215.571 80.7514 214.659 80.6442C213.65 80.5317 212.428 80.2567 211.007 79.8358ZM214.773 79.6507C215.65 79.7538 216.501 79.8054 217.326 79.8054C221.968 79.8054 225.552 78.4644 228.08 75.7824C230.607 73.152 231.87 69.6706 231.87 65.3382V21.3176H219.956V63.7909C219.956 65.4929 219.698 66.7565 219.183 67.5818C218.667 68.407 217.661 68.8196 216.165 68.8196C215.598 68.8196 215.108 68.7938 214.695 68.7422C214.538 68.7225 214.369 68.6915 214.188 68.6492C213.897 68.5808 213.576 68.4828 213.226 68.3554L211.291 78.877C212.684 79.2897 213.844 79.5475 214.773 79.6507ZM220.346 14.0698C220.337 14.0607 220.328 14.0515 220.319 14.0421C218.845 12.5095 218.105 10.6343 218.105 8.47498C218.105 6.31517 218.846 4.4577 220.332 2.97125L220.346 2.95752C221.879 1.48391 223.754 0.744234 225.913 0.744234C228.027 0.744234 229.853 1.48812 231.333 2.96419C232.871 4.44646 233.644 6.30579 233.644 8.47498C233.644 10.6467 232.87 12.5262 231.34 14.0561C229.859 15.5368 228.03 16.2831 225.913 16.2831C223.754 16.2831 221.879 15.5434 220.346 14.0698ZM230.633 3.67835C229.343 2.38894 227.77 1.74423 225.913 1.74423C224.005 1.74423 222.38 2.38894 221.039 3.67835C219.75 4.96777 219.105 6.56665 219.105 8.47498C219.105 10.3833 219.75 12.008 221.039 13.349C222.38 14.6384 224.005 15.2831 225.913 15.2831C227.77 15.2831 229.343 14.6384 230.633 13.349C231.974 12.008 232.644 10.3833 232.644 8.47498C232.644 6.56665 231.974 4.96777 230.633 3.67835ZM240.567 29.3949L240.57 29.3906C242.52 26.1397 245.182 23.6144 248.539 21.8274L248.545 21.8243C251.955 20.0383 255.805 19.1571 260.072 19.1571C264.339 19.1571 268.167 20.0382 271.528 21.8274C274.885 23.614 277.522 26.1397 279.421 29.3923C281.383 32.6118 282.348 36.3535 282.348 40.5814C282.348 44.8107 281.383 48.5535 279.419 51.7737C277.519 54.9755 274.881 57.4732 271.528 59.2581C268.167 61.0472 264.339 61.9284 260.072 61.9284C255.805 61.9284 251.955 61.0471 248.545 59.2612L248.539 59.2581C245.186 57.4734 242.525 54.977 240.574 51.7786L240.567 51.768C238.657 48.5484 237.72 44.8079 237.72 40.5814C237.72 36.355 238.657 32.6145 240.567 29.3949ZM278.563 51.2578C280.419 48.2148 281.348 44.656 281.348 40.5814C281.348 36.5069 280.419 32.9481 278.563 29.9051C276.757 26.8105 274.256 24.4121 271.058 22.7101C267.86 21.0081 264.199 20.1571 260.072 20.1571C255.946 20.1571 252.259 21.0081 249.009 22.7101C245.811 24.4121 243.284 26.8105 241.427 29.9051C239.622 32.9481 238.72 36.5069 238.72 40.5814C238.72 44.656 239.622 48.2148 241.427 51.2578C243.284 54.3008 245.811 56.6733 249.009 58.3753C252.259 60.0774 255.946 60.9284 260.072 60.9284C264.199 60.9284 267.86 60.0774 271.058 58.3753C274.256 56.6733 276.757 54.3008 278.563 51.2578ZM264.461 32.9454C264.453 32.9409 264.445 32.9363 264.437 32.9316C263.22 32.2106 261.777 31.8334 260.072 31.8334C258.368 31.8334 256.925 32.2106 255.708 32.9316C255.7 32.9363 255.692 32.9409 255.684 32.9454C254.462 33.6243 253.485 34.5953 252.747 35.8824C252.069 37.1529 251.711 38.6825 251.711 40.504C251.711 42.3219 252.068 43.8814 252.75 45.2095C253.489 46.4946 254.468 47.4937 255.696 48.2241C256.915 48.8981 258.363 49.252 260.072 49.252C261.782 49.252 263.23 48.8982 264.448 48.2242C265.674 47.4951 266.625 46.5 267.311 45.222C267.998 43.8912 268.356 42.3275 268.356 40.504C268.356 38.6767 267.996 37.1431 267.314 35.8702C266.628 34.5901 265.681 33.6231 264.461 32.9454ZM268.196 45.6875C267.422 47.1316 266.339 48.2663 264.946 49.0916C263.554 49.8652 261.929 50.252 260.072 50.252C258.216 50.252 256.591 49.8652 255.198 49.0916C253.806 48.2663 252.697 47.1316 251.872 45.6875C251.098 44.1918 250.711 42.464 250.711 40.504C250.711 38.5441 251.098 36.8421 251.872 35.398C252.697 33.9538 253.806 32.8449 255.198 32.0713C256.591 31.246 258.216 30.8334 260.072 30.8334C261.929 30.8334 263.554 31.246 264.946 32.0713C266.339 32.8449 267.422 33.9538 268.196 35.398C268.969 36.8421 269.356 38.5441 269.356 40.504C269.356 42.464 268.969 44.1918 268.196 45.6875Z" fill="black"/>
</svg>
